<svg version="1.1" 
baseProfile="full"
width="800" height="800"
xmlns="http://www.w3.org/2000/svg">
<circle cx="400" cy="400" r="400" stroke="black" stroke-width="1" fill="blue" />
<polygon points="277,200 276.803,206.279 276.211,212.533 275.229,218.738 273.858,224.869 272.106,230.902 269.978,236.812 267.483,242.578 264.631,248.175 261.433,253.583 257.902,258.779 254.051,263.742 249.897,268.455 245.455,272.897 240.742,277.051 235.779,280.902 230.583,284.433 225.175,287.631 219.578,290.483 213.812,292.978 207.902,295.106 201.869,296.858 195.738,298.229 189.533,299.211 183.279,299.803 177,300 170.721,299.803 164.467,299.211 158.262,298.229 152.131,296.858 146.098,295.106 140.188,292.978 134.422,290.483 128.825,287.631 123.417,284.433 118.221,280.902 113.258,277.051 108.545,272.897 104.103,268.455 99.9487,263.742 96.0983,258.779 92.5672,253.583 89.3693,248.175 86.5173,242.578 84.0224,236.812 81.8943,230.902 80.1417,224.869 78.7713,218.738 77.7885,212.533 77.1973,206.279 77,200 77.1973,193.721 77.7885,187.467 78.7713,181.262 80.1417,175.131 81.8943,169.098 84.0224,163.188 86.5173,157.422 89.3693,151.825 92.5672,146.417 96.0983,141.221 99.9487,136.258 104.103,131.545 108.545,127.103 113.258,122.949 118.221,119.098 123.417,115.567 128.825,112.369 134.422,109.517 140.188,107.022 146.098,104.894 152.131,103.142 158.262,101.771 164.467,100.789 170.721,100.197 177,100 183.279,100.197 189.533,100.789 195.738,101.771 201.869,103.142 207.902,104.894 213.812,107.022 219.578,109.517 225.175,112.369 230.583,115.567 235.779,119.098 240.742,122.949 245.455,127.103 249.897,131.545 254.051,136.258 257.902,141.221 261.433,146.417 264.631,151.825 267.483,157.422 269.978,163.188 272.106,169.098 273.858,175.131 275.229,181.262 276.211,187.467 276.803,193.721 "
stroke="black" stroke-width="1" fill="purple" />
<polygon points="477,200 476.803,206.279 476.211,212.533 475.229,218.738 473.858,224.869 472.106,230.902 469.978,236.812 467.483,242.578 464.631,248.175 461.433,253.583 457.902,258.779 454.051,263.742 449.897,268.455 445.455,272.897 440.742,277.051 435.779,280.902 430.583,284.433 425.175,287.631 419.578,290.483 413.812,292.978 407.902,295.106 401.869,296.858 395.738,298.229 389.533,299.211 383.279,299.803 377,300 370.721,299.803 364.467,299.211 358.262,298.229 352.131,296.858 346.098,295.106 340.188,292.978 334.422,290.483 328.825,287.631 323.417,284.433 318.221,280.902 313.258,277.051 308.545,272.897 304.103,268.455 299.949,263.742 296.098,258.779 292.567,253.583 289.369,248.175 286.517,242.578 284.022,236.812 281.894,230.902 280.142,224.869 278.771,218.738 277.789,212.533 277.197,206.279 277,200 277.197,193.721 277.789,187.467 278.771,181.262 280.142,175.131 281.894,169.098 284.022,163.188 286.517,157.422 289.369,151.825 292.567,146.417 296.098,141.221 299.949,136.258 304.103,131.545 308.545,127.103 313.258,122.949 318.221,119.098 323.417,115.567 328.825,112.369 334.422,109.517 340.188,107.022 346.098,104.894 352.131,103.142 358.262,101.771 364.467,100.789 370.721,100.197 377,100 383.279,100.197 389.533,100.789 395.738,101.771 401.869,103.142 407.902,104.894 413.812,107.022 419.578,109.517 425.175,112.369 430.583,115.567 435.779,119.098 440.742,122.949 445.455,127.103 449.897,131.545 454.051,136.258 457.902,141.221 461.433,146.417 464.631,151.825 467.483,157.422 469.978,163.188 472.106,169.098 473.858,175.131 475.229,181.262 476.211,187.467 476.803,193.721 "
stroke="black" stroke-width="1" fill="purple" />
<polygon points="677,200 676.803,206.279 676.211,212.533 675.229,218.738 673.858,224.869 672.106,230.902 669.978,236.812 667.483,242.578 664.631,248.175 661.433,253.583 657.902,258.779 654.051,263.742 649.897,268.455 645.455,272.897 640.742,277.051 635.779,280.902 630.583,284.433 625.175,287.631 619.578,290.483 613.812,292.978 607.902,295.106 601.869,296.858 595.738,298.229 589.533,299.211 583.279,299.803 577,300 570.721,299.803 564.467,299.211 558.262,298.229 552.131,296.858 546.098,295.106 540.188,292.978 534.422,290.483 528.825,287.631 523.417,284.433 518.221,280.902 513.258,277.051 508.545,272.897 504.103,268.455 499.949,263.742 496.098,258.779 492.567,253.583 489.369,248.175 486.517,242.578 484.022,236.812 481.894,230.902 480.142,224.869 478.771,218.738 477.789,212.533 477.197,206.279 477,200 477.197,193.721 477.789,187.467 478.771,181.262 480.142,175.131 481.894,169.098 484.022,163.188 486.517,157.422 489.369,151.825 492.567,146.417 496.098,141.221 499.949,136.258 504.103,131.545 508.545,127.103 513.258,122.949 518.221,119.098 523.417,115.567 528.825,112.369 534.422,109.517 540.188,107.022 546.098,104.894 552.131,103.142 558.262,101.771 564.467,100.789 570.721,100.197 577,100 583.279,100.197 589.533,100.789 595.738,101.771 601.869,103.142 607.902,104.894 613.812,107.022 619.578,109.517 625.175,112.369 630.583,115.567 635.779,119.098 640.742,122.949 645.455,127.103 649.897,131.545 654.051,136.258 657.902,141.221 661.433,146.417 664.631,151.825 667.483,157.422 669.978,163.188 672.106,169.098 673.858,175.131 675.229,181.262 676.211,187.467 676.803,193.721 "
stroke="black" stroke-width="1" fill="purple" />
<polygon points="200,400 199.803,406.279 199.211,412.533 198.229,418.738 196.858,424.869 195.106,430.902 192.978,436.812 190.483,442.578 187.631,448.175 184.433,453.583 180.902,458.779 177.051,463.742 172.897,468.455 168.455,472.897 163.742,477.051 158.779,480.902 153.583,484.433 148.175,487.631 142.578,490.483 136.812,492.978 130.902,495.106 124.869,496.858 118.738,498.229 112.533,499.211 106.279,499.803 100,500 93.7209,499.803 87.4667,499.211 81.2619,498.229 75.131,496.858 69.0983,495.106 63.1875,492.978 57.4221,490.483 51.8246,487.631 46.4173,484.433 41.2215,480.902 36.2576,477.051 31.5453,472.897 27.1031,468.455 22.9487,463.742 19.0983,458.779 15.5672,453.583 12.3693,448.175 9.51729,442.578 7.02235,436.812 4.89435,430.902 3.14168,424.869 1.77127,418.738 0.78853,412.533 0.197327,406.279 0,400 0.197327,393.721 0.78853,387.467 1.77127,381.262 3.14168,375.131 4.89435,369.098 7.02235,363.188 9.51729,357.422 12.3693,351.825 15.5672,346.417 19.0983,341.221 22.9487,336.258 27.1031,331.545 31.5453,327.103 36.2576,322.949 41.2215,319.098 46.4173,315.567 51.8246,312.369 57.4221,309.517 63.1875,307.022 69.0983,304.894 75.131,303.142 81.2619,301.771 87.4667,300.789 93.7209,300.197 100,300 106.279,300.197 112.533,300.789 118.738,301.771 124.869,303.142 130.902,304.894 136.812,307.022 142.578,309.517 148.175,312.369 153.583,315.567 158.779,319.098 163.742,322.949 168.455,327.103 172.897,331.545 177.051,336.258 180.902,341.221 184.433,346.417 187.631,351.825 190.483,357.422 192.978,363.188 195.106,369.098 196.858,375.131 198.229,381.262 199.211,387.467 199.803,393.721 "
stroke="black" stroke-width="1" fill="purple" />
<polygon points="400,400 399.803,406.279 399.211,412.533 398.229,418.738 396.858,424.869 395.106,430.902 392.978,436.812 390.483,442.578 387.631,448.175 384.433,453.583 380.902,458.779 377.051,463.742 372.897,468.455 368.455,472.897 363.742,477.051 358.779,480.902 353.583,484.433 348.175,487.631 342.578,490.483 336.812,492.978 330.902,495.106 324.869,496.858 318.738,498.229 312.533,499.211 306.279,499.803 300,500 293.721,499.803 287.467,499.211 281.262,498.229 275.131,496.858 269.098,495.106 263.188,492.978 257.422,490.483 251.825,487.631 246.417,484.433 241.221,480.902 236.258,477.051 231.545,472.897 227.103,468.455 222.949,463.742 219.098,458.779 215.567,453.583 212.369,448.175 209.517,442.578 207.022,436.812 204.894,430.902 203.142,424.869 201.771,418.738 200.789,412.533 200.197,406.279 200,400 200.197,393.721 200.789,387.467 201.771,381.262 203.142,375.131 204.894,369.098 207.022,363.188 209.517,357.422 212.369,351.825 215.567,346.417 219.098,341.221 222.949,336.258 227.103,331.545 231.545,327.103 236.258,322.949 241.221,319.098 246.417,315.567 251.825,312.369 257.422,309.517 263.188,307.022 269.098,304.894 275.131,303.142 281.262,301.771 287.467,300.789 293.721,300.197 300,300 306.279,300.197 312.533,300.789 318.738,301.771 324.869,303.142 330.902,304.894 336.812,307.022 342.578,309.517 348.175,312.369 353.583,315.567 358.779,319.098 363.742,322.949 368.455,327.103 372.897,331.545 377.051,336.258 380.902,341.221 384.433,346.417 387.631,351.825 390.483,357.422 392.978,363.188 395.106,369.098 396.858,375.131 398.229,381.262 399.211,387.467 399.803,393.721 "
stroke="black" stroke-width="1" fill="purple" />
<polygon points="600,400 599.803,406.279 599.211,412.533 598.229,418.738 596.858,424.869 595.106,430.902 592.978,436.812 590.483,442.578 587.631,448.175 584.433,453.583 580.902,458.779 577.051,463.742 572.897,468.455 568.455,472.897 563.742,477.051 558.779,480.902 553.583,484.433 548.175,487.631 542.578,490.483 536.812,492.978 530.902,495.106 524.869,496.858 518.738,498.229 512.533,499.211 506.279,499.803 500,500 493.721,499.803 487.467,499.211 481.262,498.229 475.131,496.858 469.098,495.106 463.188,492.978 457.422,490.483 451.825,487.631 446.417,484.433 441.221,480.902 436.258,477.051 431.545,472.897 427.103,468.455 422.949,463.742 419.098,458.779 415.567,453.583 412.369,448.175 409.517,442.578 407.022,436.812 404.894,430.902 403.142,424.869 401.771,418.738 400.789,412.533 400.197,406.279 400,400 400.197,393.721 400.789,387.467 401.771,381.262 403.142,375.131 404.894,369.098 407.022,363.188 409.517,357.422 412.369,351.825 415.567,346.417 419.098,341.221 422.949,336.258 427.103,331.545 431.545,327.103 436.258,322.949 441.221,319.098 446.417,315.567 451.825,312.369 457.422,309.517 463.188,307.022 469.098,304.894 475.131,303.142 481.262,301.771 487.467,300.789 493.721,300.197 500,300 506.279,300.197 512.533,300.789 518.738,301.771 524.869,303.142 530.902,304.894 536.812,307.022 542.578,309.517 548.175,312.369 553.583,315.567 558.779,319.098 563.742,322.949 568.455,327.103 572.897,331.545 577.051,336.258 580.902,341.221 584.433,346.417 587.631,351.825 590.483,357.422 592.978,363.188 595.106,369.098 596.858,375.131 598.229,381.262 599.211,387.467 599.803,393.721 "
stroke="black" stroke-width="1" fill="purple" />
<polygon points="800,400 799.803,406.279 799.211,412.533 798.229,418.738 796.858,424.869 795.106,430.902 792.978,436.812 790.483,442.578 787.631,448.175 784.433,453.583 780.902,458.779 777.051,463.742 772.897,468.455 768.455,472.897 763.742,477.051 758.779,480.902 753.583,484.433 748.175,487.631 742.578,490.483 736.812,492.978 730.902,495.106 724.869,496.858 718.738,498.229 712.533,499.211 706.279,499.803 700,500 693.721,499.803 687.467,499.211 681.262,498.229 675.131,496.858 669.098,495.106 663.188,492.978 657.422,490.483 651.825,487.631 646.417,484.433 641.221,480.902 636.258,477.051 631.545,472.897 627.103,468.455 622.949,463.742 619.098,458.779 615.567,453.583 612.369,448.175 609.517,442.578 607.022,436.812 604.894,430.902 603.142,424.869 601.771,418.738 600.789,412.533 600.197,406.279 600,400 600.197,393.721 600.789,387.467 601.771,381.262 603.142,375.131 604.894,369.098 607.022,363.188 609.517,357.422 612.369,351.825 615.567,346.417 619.098,341.221 622.949,336.258 627.103,331.545 631.545,327.103 636.258,322.949 641.221,319.098 646.417,315.567 651.825,312.369 657.422,309.517 663.188,307.022 669.098,304.894 675.131,303.142 681.262,301.771 687.467,300.789 693.721,300.197 700,300 706.279,300.197 712.533,300.789 718.738,301.771 724.869,303.142 730.902,304.894 736.812,307.022 742.578,309.517 748.175,312.369 753.583,315.567 758.779,319.098 763.742,322.949 768.455,327.103 772.897,331.545 777.051,336.258 780.902,341.221 784.433,346.417 787.631,351.825 790.483,357.422 792.978,363.188 795.106,369.098 796.858,375.131 798.229,381.262 799.211,387.467 799.803,393.721 "
stroke="black" stroke-width="1" fill="purple" />
<polygon points="277,600 276.803,606.279 276.211,612.533 275.229,618.738 273.858,624.869 272.106,630.902 269.978,636.812 267.483,642.578 264.631,648.175 261.433,653.583 257.902,658.779 254.051,663.742 249.897,668.455 245.455,672.897 240.742,677.051 235.779,680.902 230.583,684.433 225.175,687.631 219.578,690.483 213.812,692.978 207.902,695.106 201.869,696.858 195.738,698.229 189.533,699.211 183.279,699.803 177,700 170.721,699.803 164.467,699.211 158.262,698.229 152.131,696.858 146.098,695.106 140.188,692.978 134.422,690.483 128.825,687.631 123.417,684.433 118.221,680.902 113.258,677.051 108.545,672.897 104.103,668.455 99.9487,663.742 96.0983,658.779 92.5672,653.583 89.3693,648.175 86.5173,642.578 84.0224,636.812 81.8943,630.902 80.1417,624.869 78.7713,618.738 77.7885,612.533 77.1973,606.279 77,600 77.1973,593.721 77.7885,587.467 78.7713,581.262 80.1417,575.131 81.8943,569.098 84.0224,563.188 86.5173,557.422 89.3693,551.825 92.5672,546.417 96.0983,541.221 99.9487,536.258 104.103,531.545 108.545,527.103 113.258,522.949 118.221,519.098 123.417,515.567 128.825,512.369 134.422,509.517 140.188,507.022 146.098,504.894 152.131,503.142 158.262,501.771 164.467,500.789 170.721,500.197 177,500 183.279,500.197 189.533,500.789 195.738,501.771 201.869,503.142 207.902,504.894 213.812,507.022 219.578,509.517 225.175,512.369 230.583,515.567 235.779,519.098 240.742,522.949 245.455,527.103 249.897,531.545 254.051,536.258 257.902,541.221 261.433,546.417 264.631,551.825 267.483,557.422 269.978,563.188 272.106,569.098 273.858,575.131 275.229,581.262 276.211,587.467 276.803,593.721 "
stroke="black" stroke-width="1" fill="purple" />
<polygon points="477,600 476.803,606.279 476.211,612.533 475.229,618.738 473.858,624.869 472.106,630.902 469.978,636.812 467.483,642.578 464.631,648.175 461.433,653.583 457.902,658.779 454.051,663.742 449.897,668.455 445.455,672.897 440.742,677.051 435.779,680.902 430.583,684.433 425.175,687.631 419.578,690.483 413.812,692.978 407.902,695.106 401.869,696.858 395.738,698.229 389.533,699.211 383.279,699.803 377,700 370.721,699.803 364.467,699.211 358.262,698.229 352.131,696.858 346.098,695.106 340.188,692.978 334.422,690.483 328.825,687.631 323.417,684.433 318.221,680.902 313.258,677.051 308.545,672.897 304.103,668.455 299.949,663.742 296.098,658.779 292.567,653.583 289.369,648.175 286.517,642.578 284.022,636.812 281.894,630.902 280.142,624.869 278.771,618.738 277.789,612.533 277.197,606.279 277,600 277.197,593.721 277.789,587.467 278.771,581.262 280.142,575.131 281.894,569.098 284.022,563.188 286.517,557.422 289.369,551.825 292.567,546.417 296.098,541.221 299.949,536.258 304.103,531.545 308.545,527.103 313.258,522.949 318.221,519.098 323.417,515.567 328.825,512.369 334.422,509.517 340.188,507.022 346.098,504.894 352.131,503.142 358.262,501.771 364.467,500.789 370.721,500.197 377,500 383.279,500.197 389.533,500.789 395.738,501.771 401.869,503.142 407.902,504.894 413.812,507.022 419.578,509.517 425.175,512.369 430.583,515.567 435.779,519.098 440.742,522.949 445.455,527.103 449.897,531.545 454.051,536.258 457.902,541.221 461.433,546.417 464.631,551.825 467.483,557.422 469.978,563.188 472.106,569.098 473.858,575.131 475.229,581.262 476.211,587.467 476.803,593.721 "
stroke="black" stroke-width="1" fill="purple" />
<polygon points="677,600 676.803,606.279 676.211,612.533 675.229,618.738 673.858,624.869 672.106,630.902 669.978,636.812 667.483,642.578 664.631,648.175 661.433,653.583 657.902,658.779 654.051,663.742 649.897,668.455 645.455,672.897 640.742,677.051 635.779,680.902 630.583,684.433 625.175,687.631 619.578,690.483 613.812,692.978 607.902,695.106 601.869,696.858 595.738,698.229 589.533,699.211 583.279,699.803 577,700 570.721,699.803 564.467,699.211 558.262,698.229 552.131,696.858 546.098,695.106 540.188,692.978 534.422,690.483 528.825,687.631 523.417,684.433 518.221,680.902 513.258,677.051 508.545,672.897 504.103,668.455 499.949,663.742 496.098,658.779 492.567,653.583 489.369,648.175 486.517,642.578 484.022,636.812 481.894,630.902 480.142,624.869 478.771,618.738 477.789,612.533 477.197,606.279 477,600 477.197,593.721 477.789,587.467 478.771,581.262 480.142,575.131 481.894,569.098 484.022,563.188 486.517,557.422 489.369,551.825 492.567,546.417 496.098,541.221 499.949,536.258 504.103,531.545 508.545,527.103 513.258,522.949 518.221,519.098 523.417,515.567 528.825,512.369 534.422,509.517 540.188,507.022 546.098,504.894 552.131,503.142 558.262,501.771 564.467,500.789 570.721,500.197 577,500 583.279,500.197 589.533,500.789 595.738,501.771 601.869,503.142 607.902,504.894 613.812,507.022 619.578,509.517 625.175,512.369 630.583,515.567 635.779,519.098 640.742,522.949 645.455,527.103 649.897,531.545 654.051,536.258 657.902,541.221 661.433,546.417 664.631,551.825 667.483,557.422 669.978,563.188 672.106,569.098 673.858,575.131 675.229,581.262 676.211,587.467 676.803,593.721 "
stroke="black" stroke-width="1" fill="purple" />
</svg>
