<svg version="1.1" 
baseProfile="full"
width="400" height="400"
xmlns="http://www.w3.org/2000/svg">
<polygon points="200,0 0,346.41 400,346.41"
stroke="black" stroke-width="1" fill="blue" />
<polygon points="300,200 299.803,206.279 299.211,212.533 298.229,218.738 296.858,224.869 295.106,230.902 292.978,236.812 290.483,242.578 287.631,248.175 284.433,253.583 280.902,258.779 277.051,263.742 272.897,268.455 268.455,272.897 263.742,277.051 258.779,280.902 253.583,284.433 248.175,287.631 242.578,290.483 236.812,292.978 230.902,295.106 224.869,296.858 218.738,298.229 212.533,299.211 206.279,299.803 200,300 193.721,299.803 187.467,299.211 181.262,298.229 175.131,296.858 169.098,295.106 163.188,292.978 157.422,290.483 151.825,287.631 146.417,284.433 141.221,280.902 136.258,277.051 131.545,272.897 127.103,268.455 122.949,263.742 119.098,258.779 115.567,253.583 112.369,248.175 109.517,242.578 107.022,236.812 104.894,230.902 103.142,224.869 101.771,218.738 100.789,212.533 100.197,206.279 100,200 100.197,193.721 100.789,187.467 101.771,181.262 103.142,175.131 104.894,169.098 107.022,163.188 109.517,157.422 112.369,151.825 115.567,146.417 119.098,141.221 122.949,136.258 127.103,131.545 131.545,127.103 136.258,122.949 141.221,119.098 146.417,115.567 151.825,112.369 157.422,109.517 163.188,107.022 169.098,104.894 175.131,103.142 181.262,101.771 187.467,100.789 193.721,100.197 200,100 206.279,100.197 212.533,100.789 218.738,101.771 224.869,103.142 230.902,104.894 236.812,107.022 242.578,109.517 248.175,112.369 253.583,115.567 258.779,119.098 263.742,122.949 268.455,127.103 272.897,131.545 277.051,136.258 280.902,141.221 284.433,146.417 287.631,151.825 290.483,157.422 292.978,163.188 295.106,169.098 296.858,175.131 298.229,181.262 299.211,187.467 299.803,193.721 "
stroke="black" stroke-width="1" fill="purple" />
</svg>
