<svg version="1.1" 
baseProfile="full"
width="210" height="200"
xmlns="http://www.w3.org/2000/svg">
<rect width="100%" height="100%" stroke="black" stroke-width="1" fill="blue" />
<polygon points="15,0 0,25.9808 30,25.9808 "
stroke="black" stroke-width="1" fill="purple" />
<polygon points="45,0 30,25.9808 60,25.9808 "
stroke="black" stroke-width="1" fill="purple" />
<polygon points="75,0 60,25.9808 90,25.9808 "
stroke="black" stroke-width="1" fill="purple" />
<polygon points="105,0 90,25.9808 120,25.9808 "
stroke="black" stroke-width="1" fill="purple" />
<polygon points="135,0 120,25.9808 150,25.9808 "
stroke="black" stroke-width="1" fill="purple" />
<polygon points="165,0 150,25.9808 180,25.9808 "
stroke="black" stroke-width="1" fill="purple" />
<polygon points="195,0 180,25.9808 210,25.9808 "
stroke="black" stroke-width="1" fill="purple" />
<polygon points="15,25.9808 0,51.9615 30,51.9615 "
stroke="black" stroke-width="1" fill="purple" />
<polygon points="45,25.9808 30,51.9615 60,51.9615 "
stroke="black" stroke-width="1" fill="purple" />
<polygon points="75,25.9808 60,51.9615 90,51.9615 "
stroke="black" stroke-width="1" fill="purple" />
<polygon points="105,25.9808 90,51.9615 120,51.9615 "
stroke="black" stroke-width="1" fill="purple" />
<polygon points="135,25.9808 120,51.9615 150,51.9615 "
stroke="black" stroke-width="1" fill="purple" />
<polygon points="165,25.9808 150,51.9615 180,51.9615 "
stroke="black" stroke-width="1" fill="purple" />
<polygon points="195,25.9808 180,51.9615 210,51.9615 "
stroke="black" stroke-width="1" fill="purple" />
<polygon points="15,51.9615 0,77.9423 30,77.9423 "
stroke="black" stroke-width="1" fill="purple" />
<polygon points="45,51.9615 30,77.9423 60,77.9423 "
stroke="black" stroke-width="1" fill="purple" />
<polygon points="75,51.9615 60,77.9423 90,77.9423 "
stroke="black" stroke-width="1" fill="purple" />
<polygon points="105,51.9615 90,77.9423 120,77.9423 "
stroke="black" stroke-width="1" fill="purple" />
<polygon points="135,51.9615 120,77.9423 150,77.9423 "
stroke="black" stroke-width="1" fill="purple" />
<polygon points="165,51.9615 150,77.9423 180,77.9423 "
stroke="black" stroke-width="1" fill="purple" />
<polygon points="195,51.9615 180,77.9423 210,77.9423 "
stroke="black" stroke-width="1" fill="purple" />
<polygon points="15,77.9423 0,103.923 30,103.923 "
stroke="black" stroke-width="1" fill="purple" />
<polygon points="45,77.9423 30,103.923 60,103.923 "
stroke="black" stroke-width="1" fill="purple" />
<polygon points="75,77.9423 60,103.923 90,103.923 "
stroke="black" stroke-width="1" fill="purple" />
<polygon points="105,77.9423 90,103.923 120,103.923 "
stroke="black" stroke-width="1" fill="purple" />
<polygon points="135,77.9423 120,103.923 150,103.923 "
stroke="black" stroke-width="1" fill="purple" />
<polygon points="165,77.9423 150,103.923 180,103.923 "
stroke="black" stroke-width="1" fill="purple" />
<polygon points="195,77.9423 180,103.923 210,103.923 "
stroke="black" stroke-width="1" fill="purple" />
<polygon points="15,103.923 0,129.904 30,129.904 "
stroke="black" stroke-width="1" fill="purple" />
<polygon points="45,103.923 30,129.904 60,129.904 "
stroke="black" stroke-width="1" fill="purple" />
<polygon points="75,103.923 60,129.904 90,129.904 "
stroke="black" stroke-width="1" fill="purple" />
<polygon points="105,103.923 90,129.904 120,129.904 "
stroke="black" stroke-width="1" fill="purple" />
<polygon points="135,103.923 120,129.904 150,129.904 "
stroke="black" stroke-width="1" fill="purple" />
<polygon points="165,103.923 150,129.904 180,129.904 "
stroke="black" stroke-width="1" fill="purple" />
<polygon points="195,103.923 180,129.904 210,129.904 "
stroke="black" stroke-width="1" fill="purple" />
<polygon points="15,129.904 0,155.885 30,155.885 "
stroke="black" stroke-width="1" fill="purple" />
<polygon points="45,129.904 30,155.885 60,155.885 "
stroke="black" stroke-width="1" fill="purple" />
<polygon points="75,129.904 60,155.885 90,155.885 "
stroke="black" stroke-width="1" fill="purple" />
<polygon points="105,129.904 90,155.885 120,155.885 "
stroke="black" stroke-width="1" fill="purple" />
<polygon points="135,129.904 120,155.885 150,155.885 "
stroke="black" stroke-width="1" fill="purple" />
<polygon points="165,129.904 150,155.885 180,155.885 "
stroke="black" stroke-width="1" fill="purple" />
<polygon points="195,129.904 180,155.885 210,155.885 "
stroke="black" stroke-width="1" fill="purple" />
<polygon points="15,155.885 0,181.865 30,181.865 "
stroke="black" stroke-width="1" fill="purple" />
<polygon points="45,155.885 30,181.865 60,181.865 "
stroke="black" stroke-width="1" fill="purple" />
<polygon points="75,155.885 60,181.865 90,181.865 "
stroke="black" stroke-width="1" fill="purple" />
<polygon points="105,155.885 90,181.865 120,181.865 "
stroke="black" stroke-width="1" fill="purple" />
<polygon points="135,155.885 120,181.865 150,181.865 "
stroke="black" stroke-width="1" fill="purple" />
<polygon points="165,155.885 150,181.865 180,181.865 "
stroke="black" stroke-width="1" fill="purple" />
<polygon points="195,155.885 180,181.865 210,181.865 "
stroke="black" stroke-width="1" fill="purple" />
<polygon points="30,25.9808 15,0 45,0 "
stroke="black" stroke-width="1" fill="purple" />
<polygon points="60,25.9808 45,0 75,0 "
stroke="black" stroke-width="1" fill="purple" />
<polygon points="90,25.9808 75,0 105,0 "
stroke="black" stroke-width="1" fill="purple" />
<polygon points="120,25.9808 105,0 135,0 "
stroke="black" stroke-width="1" fill="purple" />
<polygon points="150,25.9808 135,0 165,0 "
stroke="black" stroke-width="1" fill="purple" />
<polygon points="180,25.9808 165,0 195,0 "
stroke="black" stroke-width="1" fill="purple" />
<polygon points="30,51.9615 15,25.9808 45,25.9808 "
stroke="black" stroke-width="1" fill="purple" />
<polygon points="60,51.9615 45,25.9808 75,25.9808 "
stroke="black" stroke-width="1" fill="purple" />
<polygon points="90,51.9615 75,25.9808 105,25.9808 "
stroke="black" stroke-width="1" fill="purple" />
<polygon points="120,51.9615 105,25.9808 135,25.9808 "
stroke="black" stroke-width="1" fill="purple" />
<polygon points="150,51.9615 135,25.9808 165,25.9808 "
stroke="black" stroke-width="1" fill="purple" />
<polygon points="180,51.9615 165,25.9808 195,25.9808 "
stroke="black" stroke-width="1" fill="purple" />
<polygon points="30,77.9423 15,51.9615 45,51.9615 "
stroke="black" stroke-width="1" fill="purple" />
<polygon points="60,77.9423 45,51.9615 75,51.9615 "
stroke="black" stroke-width="1" fill="purple" />
<polygon points="90,77.9423 75,51.9615 105,51.9615 "
stroke="black" stroke-width="1" fill="purple" />
<polygon points="120,77.9423 105,51.9615 135,51.9615 "
stroke="black" stroke-width="1" fill="purple" />
<polygon points="150,77.9423 135,51.9615 165,51.9615 "
stroke="black" stroke-width="1" fill="purple" />
<polygon points="180,77.9423 165,51.9615 195,51.9615 "
stroke="black" stroke-width="1" fill="purple" />
<polygon points="30,103.923 15,77.9423 45,77.9423 "
stroke="black" stroke-width="1" fill="purple" />
<polygon points="60,103.923 45,77.9423 75,77.9423 "
stroke="black" stroke-width="1" fill="purple" />
<polygon points="90,103.923 75,77.9423 105,77.9423 "
stroke="black" stroke-width="1" fill="purple" />
<polygon points="120,103.923 105,77.9423 135,77.9423 "
stroke="black" stroke-width="1" fill="purple" />
<polygon points="150,103.923 135,77.9423 165,77.9423 "
stroke="black" stroke-width="1" fill="purple" />
<polygon points="180,103.923 165,77.9423 195,77.9423 "
stroke="black" stroke-width="1" fill="purple" />
<polygon points="30,129.904 15,103.923 45,103.923 "
stroke="black" stroke-width="1" fill="purple" />
<polygon points="60,129.904 45,103.923 75,103.923 "
stroke="black" stroke-width="1" fill="purple" />
<polygon points="90,129.904 75,103.923 105,103.923 "
stroke="black" stroke-width="1" fill="purple" />
<polygon points="120,129.904 105,103.923 135,103.923 "
stroke="black" stroke-width="1" fill="purple" />
<polygon points="150,129.904 135,103.923 165,103.923 "
stroke="black" stroke-width="1" fill="purple" />
<polygon points="180,129.904 165,103.923 195,103.923 "
stroke="black" stroke-width="1" fill="purple" />
<polygon points="30,155.885 15,129.904 45,129.904 "
stroke="black" stroke-width="1" fill="purple" />
<polygon points="60,155.885 45,129.904 75,129.904 "
stroke="black" stroke-width="1" fill="purple" />
<polygon points="90,155.885 75,129.904 105,129.904 "
stroke="black" stroke-width="1" fill="purple" />
<polygon points="120,155.885 105,129.904 135,129.904 "
stroke="black" stroke-width="1" fill="purple" />
<polygon points="150,155.885 135,129.904 165,129.904 "
stroke="black" stroke-width="1" fill="purple" />
<polygon points="180,155.885 165,129.904 195,129.904 "
stroke="black" stroke-width="1" fill="purple" />
<polygon points="30,181.865 15,155.885 45,155.885 "
stroke="black" stroke-width="1" fill="purple" />
<polygon points="60,181.865 45,155.885 75,155.885 "
stroke="black" stroke-width="1" fill="purple" />
<polygon points="90,181.865 75,155.885 105,155.885 "
stroke="black" stroke-width="1" fill="purple" />
<polygon points="120,181.865 105,155.885 135,155.885 "
stroke="black" stroke-width="1" fill="purple" />
<polygon points="150,181.865 135,155.885 165,155.885 "
stroke="black" stroke-width="1" fill="purple" />
<polygon points="180,181.865 165,155.885 195,155.885 "
stroke="black" stroke-width="1" fill="purple" />
<polygon points="5,0 0,8.66025 10,8.66025 "
stroke="black" stroke-width="1" fill="purple" />
</svg>
