<svg version="1.1" 
baseProfile="full"
width="235" height="455"
xmlns="http://www.w3.org/2000/svg">
<rect width="100%" height="100%" stroke="black" stroke-width="1" fill="blue" />
<rect x="0" y="0" width="21" height="12" stroke="black" stroke-width="1" fill="purple" />
<rect x="21" y="0" width="21" height="12" stroke="black" stroke-width="1" fill="purple" />
<rect x="42" y="0" width="21" height="12" stroke="black" stroke-width="1" fill="purple" />
<rect x="63" y="0" width="21" height="12" stroke="black" stroke-width="1" fill="purple" />
<rect x="84" y="0" width="21" height="12" stroke="black" stroke-width="1" fill="purple" />
<rect x="105" y="0" width="21" height="12" stroke="black" stroke-width="1" fill="purple" />
<rect x="126" y="0" width="21" height="12" stroke="black" stroke-width="1" fill="purple" />
<rect x="147" y="0" width="21" height="12" stroke="black" stroke-width="1" fill="purple" />
<rect x="168" y="0" width="21" height="12" stroke="black" stroke-width="1" fill="purple" />
<rect x="189" y="0" width="21" height="12" stroke="black" stroke-width="1" fill="purple" />
<rect x="210" y="0" width="21" height="12" stroke="black" stroke-width="1" fill="purple" />
<rect x="0" y="12" width="21" height="12" stroke="black" stroke-width="1" fill="purple" />
<rect x="21" y="12" width="21" height="12" stroke="black" stroke-width="1" fill="purple" />
<rect x="42" y="12" width="21" height="12" stroke="black" stroke-width="1" fill="purple" />
<rect x="63" y="12" width="21" height="12" stroke="black" stroke-width="1" fill="purple" />
<rect x="84" y="12" width="21" height="12" stroke="black" stroke-width="1" fill="purple" />
<rect x="105" y="12" width="21" height="12" stroke="black" stroke-width="1" fill="purple" />
<rect x="126" y="12" width="21" height="12" stroke="black" stroke-width="1" fill="purple" />
<rect x="147" y="12" width="21" height="12" stroke="black" stroke-width="1" fill="purple" />
<rect x="168" y="12" width="21" height="12" stroke="black" stroke-width="1" fill="purple" />
<rect x="189" y="12" width="21" height="12" stroke="black" stroke-width="1" fill="purple" />
<rect x="210" y="12" width="21" height="12" stroke="black" stroke-width="1" fill="purple" />
<rect x="0" y="24" width="21" height="12" stroke="black" stroke-width="1" fill="purple" />
<rect x="21" y="24" width="21" height="12" stroke="black" stroke-width="1" fill="purple" />
<rect x="42" y="24" width="21" height="12" stroke="black" stroke-width="1" fill="purple" />
<rect x="63" y="24" width="21" height="12" stroke="black" stroke-width="1" fill="purple" />
<rect x="84" y="24" width="21" height="12" stroke="black" stroke-width="1" fill="purple" />
<rect x="105" y="24" width="21" height="12" stroke="black" stroke-width="1" fill="purple" />
<rect x="126" y="24" width="21" height="12" stroke="black" stroke-width="1" fill="purple" />
<rect x="147" y="24" width="21" height="12" stroke="black" stroke-width="1" fill="purple" />
<rect x="168" y="24" width="21" height="12" stroke="black" stroke-width="1" fill="purple" />
<rect x="189" y="24" width="21" height="12" stroke="black" stroke-width="1" fill="purple" />
<rect x="210" y="24" width="21" height="12" stroke="black" stroke-width="1" fill="purple" />
<rect x="0" y="36" width="21" height="12" stroke="black" stroke-width="1" fill="purple" />
<rect x="21" y="36" width="21" height="12" stroke="black" stroke-width="1" fill="purple" />
<rect x="42" y="36" width="21" height="12" stroke="black" stroke-width="1" fill="purple" />
<rect x="63" y="36" width="21" height="12" stroke="black" stroke-width="1" fill="purple" />
<rect x="84" y="36" width="21" height="12" stroke="black" stroke-width="1" fill="purple" />
<rect x="105" y="36" width="21" height="12" stroke="black" stroke-width="1" fill="purple" />
<rect x="126" y="36" width="21" height="12" stroke="black" stroke-width="1" fill="purple" />
<rect x="147" y="36" width="21" height="12" stroke="black" stroke-width="1" fill="purple" />
<rect x="168" y="36" width="21" height="12" stroke="black" stroke-width="1" fill="purple" />
<rect x="189" y="36" width="21" height="12" stroke="black" stroke-width="1" fill="purple" />
<rect x="210" y="36" width="21" height="12" stroke="black" stroke-width="1" fill="purple" />
<rect x="0" y="48" width="21" height="12" stroke="black" stroke-width="1" fill="purple" />
<rect x="21" y="48" width="21" height="12" stroke="black" stroke-width="1" fill="purple" />
<rect x="42" y="48" width="21" height="12" stroke="black" stroke-width="1" fill="purple" />
<rect x="63" y="48" width="21" height="12" stroke="black" stroke-width="1" fill="purple" />
<rect x="84" y="48" width="21" height="12" stroke="black" stroke-width="1" fill="purple" />
<rect x="105" y="48" width="21" height="12" stroke="black" stroke-width="1" fill="purple" />
<rect x="126" y="48" width="21" height="12" stroke="black" stroke-width="1" fill="purple" />
<rect x="147" y="48" width="21" height="12" stroke="black" stroke-width="1" fill="purple" />
<rect x="168" y="48" width="21" height="12" stroke="black" stroke-width="1" fill="purple" />
<rect x="189" y="48" width="21" height="12" stroke="black" stroke-width="1" fill="purple" />
<rect x="210" y="48" width="21" height="12" stroke="black" stroke-width="1" fill="purple" />
<rect x="0" y="60" width="21" height="12" stroke="black" stroke-width="1" fill="purple" />
<rect x="21" y="60" width="21" height="12" stroke="black" stroke-width="1" fill="purple" />
<rect x="42" y="60" width="21" height="12" stroke="black" stroke-width="1" fill="purple" />
<rect x="63" y="60" width="21" height="12" stroke="black" stroke-width="1" fill="purple" />
<rect x="84" y="60" width="21" height="12" stroke="black" stroke-width="1" fill="purple" />
<rect x="105" y="60" width="21" height="12" stroke="black" stroke-width="1" fill="purple" />
<rect x="126" y="60" width="21" height="12" stroke="black" stroke-width="1" fill="purple" />
<rect x="147" y="60" width="21" height="12" stroke="black" stroke-width="1" fill="purple" />
<rect x="168" y="60" width="21" height="12" stroke="black" stroke-width="1" fill="purple" />
<rect x="189" y="60" width="21" height="12" stroke="black" stroke-width="1" fill="purple" />
<rect x="210" y="60" width="21" height="12" stroke="black" stroke-width="1" fill="purple" />
<rect x="0" y="72" width="21" height="12" stroke="black" stroke-width="1" fill="purple" />
<rect x="21" y="72" width="21" height="12" stroke="black" stroke-width="1" fill="purple" />
<rect x="42" y="72" width="21" height="12" stroke="black" stroke-width="1" fill="purple" />
<rect x="63" y="72" width="21" height="12" stroke="black" stroke-width="1" fill="purple" />
<rect x="84" y="72" width="21" height="12" stroke="black" stroke-width="1" fill="purple" />
<rect x="105" y="72" width="21" height="12" stroke="black" stroke-width="1" fill="purple" />
<rect x="126" y="72" width="21" height="12" stroke="black" stroke-width="1" fill="purple" />
<rect x="147" y="72" width="21" height="12" stroke="black" stroke-width="1" fill="purple" />
<rect x="168" y="72" width="21" height="12" stroke="black" stroke-width="1" fill="purple" />
<rect x="189" y="72" width="21" height="12" stroke="black" stroke-width="1" fill="purple" />
<rect x="210" y="72" width="21" height="12" stroke="black" stroke-width="1" fill="purple" />
<rect x="0" y="84" width="21" height="12" stroke="black" stroke-width="1" fill="purple" />
<rect x="21" y="84" width="21" height="12" stroke="black" stroke-width="1" fill="purple" />
<rect x="42" y="84" width="21" height="12" stroke="black" stroke-width="1" fill="purple" />
<rect x="63" y="84" width="21" height="12" stroke="black" stroke-width="1" fill="purple" />
<rect x="84" y="84" width="21" height="12" stroke="black" stroke-width="1" fill="purple" />
<rect x="105" y="84" width="21" height="12" stroke="black" stroke-width="1" fill="purple" />
<rect x="126" y="84" width="21" height="12" stroke="black" stroke-width="1" fill="purple" />
<rect x="147" y="84" width="21" height="12" stroke="black" stroke-width="1" fill="purple" />
<rect x="168" y="84" width="21" height="12" stroke="black" stroke-width="1" fill="purple" />
<rect x="189" y="84" width="21" height="12" stroke="black" stroke-width="1" fill="purple" />
<rect x="210" y="84" width="21" height="12" stroke="black" stroke-width="1" fill="purple" />
<rect x="0" y="96" width="21" height="12" stroke="black" stroke-width="1" fill="purple" />
<rect x="21" y="96" width="21" height="12" stroke="black" stroke-width="1" fill="purple" />
<rect x="42" y="96" width="21" height="12" stroke="black" stroke-width="1" fill="purple" />
<rect x="63" y="96" width="21" height="12" stroke="black" stroke-width="1" fill="purple" />
<rect x="84" y="96" width="21" height="12" stroke="black" stroke-width="1" fill="purple" />
<rect x="105" y="96" width="21" height="12" stroke="black" stroke-width="1" fill="purple" />
<rect x="126" y="96" width="21" height="12" stroke="black" stroke-width="1" fill="purple" />
<rect x="147" y="96" width="21" height="12" stroke="black" stroke-width="1" fill="purple" />
<rect x="168" y="96" width="21" height="12" stroke="black" stroke-width="1" fill="purple" />
<rect x="189" y="96" width="21" height="12" stroke="black" stroke-width="1" fill="purple" />
<rect x="210" y="96" width="21" height="12" stroke="black" stroke-width="1" fill="purple" />
<rect x="0" y="108" width="21" height="12" stroke="black" stroke-width="1" fill="purple" />
<rect x="21" y="108" width="21" height="12" stroke="black" stroke-width="1" fill="purple" />
<rect x="42" y="108" width="21" height="12" stroke="black" stroke-width="1" fill="purple" />
<rect x="63" y="108" width="21" height="12" stroke="black" stroke-width="1" fill="purple" />
<rect x="84" y="108" width="21" height="12" stroke="black" stroke-width="1" fill="purple" />
<rect x="105" y="108" width="21" height="12" stroke="black" stroke-width="1" fill="purple" />
<rect x="126" y="108" width="21" height="12" stroke="black" stroke-width="1" fill="purple" />
<rect x="147" y="108" width="21" height="12" stroke="black" stroke-width="1" fill="purple" />
<rect x="168" y="108" width="21" height="12" stroke="black" stroke-width="1" fill="purple" />
<rect x="189" y="108" width="21" height="12" stroke="black" stroke-width="1" fill="purple" />
<rect x="210" y="108" width="21" height="12" stroke="black" stroke-width="1" fill="purple" />
<rect x="0" y="120" width="21" height="12" stroke="black" stroke-width="1" fill="purple" />
<rect x="21" y="120" width="21" height="12" stroke="black" stroke-width="1" fill="purple" />
<rect x="42" y="120" width="21" height="12" stroke="black" stroke-width="1" fill="purple" />
<rect x="63" y="120" width="21" height="12" stroke="black" stroke-width="1" fill="purple" />
<rect x="84" y="120" width="21" height="12" stroke="black" stroke-width="1" fill="purple" />
<rect x="105" y="120" width="21" height="12" stroke="black" stroke-width="1" fill="purple" />
<rect x="126" y="120" width="21" height="12" stroke="black" stroke-width="1" fill="purple" />
<rect x="147" y="120" width="21" height="12" stroke="black" stroke-width="1" fill="purple" />
<rect x="168" y="120" width="21" height="12" stroke="black" stroke-width="1" fill="purple" />
<rect x="189" y="120" width="21" height="12" stroke="black" stroke-width="1" fill="purple" />
<rect x="210" y="120" width="21" height="12" stroke="black" stroke-width="1" fill="purple" />
<rect x="0" y="132" width="21" height="12" stroke="black" stroke-width="1" fill="purple" />
<rect x="21" y="132" width="21" height="12" stroke="black" stroke-width="1" fill="purple" />
<rect x="42" y="132" width="21" height="12" stroke="black" stroke-width="1" fill="purple" />
<rect x="63" y="132" width="21" height="12" stroke="black" stroke-width="1" fill="purple" />
<rect x="84" y="132" width="21" height="12" stroke="black" stroke-width="1" fill="purple" />
<rect x="105" y="132" width="21" height="12" stroke="black" stroke-width="1" fill="purple" />
<rect x="126" y="132" width="21" height="12" stroke="black" stroke-width="1" fill="purple" />
<rect x="147" y="132" width="21" height="12" stroke="black" stroke-width="1" fill="purple" />
<rect x="168" y="132" width="21" height="12" stroke="black" stroke-width="1" fill="purple" />
<rect x="189" y="132" width="21" height="12" stroke="black" stroke-width="1" fill="purple" />
<rect x="210" y="132" width="21" height="12" stroke="black" stroke-width="1" fill="purple" />
<rect x="0" y="144" width="21" height="12" stroke="black" stroke-width="1" fill="purple" />
<rect x="21" y="144" width="21" height="12" stroke="black" stroke-width="1" fill="purple" />
<rect x="42" y="144" width="21" height="12" stroke="black" stroke-width="1" fill="purple" />
<rect x="63" y="144" width="21" height="12" stroke="black" stroke-width="1" fill="purple" />
<rect x="84" y="144" width="21" height="12" stroke="black" stroke-width="1" fill="purple" />
<rect x="105" y="144" width="21" height="12" stroke="black" stroke-width="1" fill="purple" />
<rect x="126" y="144" width="21" height="12" stroke="black" stroke-width="1" fill="purple" />
<rect x="147" y="144" width="21" height="12" stroke="black" stroke-width="1" fill="purple" />
<rect x="168" y="144" width="21" height="12" stroke="black" stroke-width="1" fill="purple" />
<rect x="189" y="144" width="21" height="12" stroke="black" stroke-width="1" fill="purple" />
<rect x="210" y="144" width="21" height="12" stroke="black" stroke-width="1" fill="purple" />
<rect x="0" y="156" width="21" height="12" stroke="black" stroke-width="1" fill="purple" />
<rect x="21" y="156" width="21" height="12" stroke="black" stroke-width="1" fill="purple" />
<rect x="42" y="156" width="21" height="12" stroke="black" stroke-width="1" fill="purple" />
<rect x="63" y="156" width="21" height="12" stroke="black" stroke-width="1" fill="purple" />
<rect x="84" y="156" width="21" height="12" stroke="black" stroke-width="1" fill="purple" />
<rect x="105" y="156" width="21" height="12" stroke="black" stroke-width="1" fill="purple" />
<rect x="126" y="156" width="21" height="12" stroke="black" stroke-width="1" fill="purple" />
<rect x="147" y="156" width="21" height="12" stroke="black" stroke-width="1" fill="purple" />
<rect x="168" y="156" width="21" height="12" stroke="black" stroke-width="1" fill="purple" />
<rect x="189" y="156" width="21" height="12" stroke="black" stroke-width="1" fill="purple" />
<rect x="210" y="156" width="21" height="12" stroke="black" stroke-width="1" fill="purple" />
<rect x="0" y="168" width="21" height="12" stroke="black" stroke-width="1" fill="purple" />
<rect x="21" y="168" width="21" height="12" stroke="black" stroke-width="1" fill="purple" />
<rect x="42" y="168" width="21" height="12" stroke="black" stroke-width="1" fill="purple" />
<rect x="63" y="168" width="21" height="12" stroke="black" stroke-width="1" fill="purple" />
<rect x="84" y="168" width="21" height="12" stroke="black" stroke-width="1" fill="purple" />
<rect x="105" y="168" width="21" height="12" stroke="black" stroke-width="1" fill="purple" />
<rect x="126" y="168" width="21" height="12" stroke="black" stroke-width="1" fill="purple" />
<rect x="147" y="168" width="21" height="12" stroke="black" stroke-width="1" fill="purple" />
<rect x="168" y="168" width="21" height="12" stroke="black" stroke-width="1" fill="purple" />
<rect x="189" y="168" width="21" height="12" stroke="black" stroke-width="1" fill="purple" />
<rect x="210" y="168" width="21" height="12" stroke="black" stroke-width="1" fill="purple" />
<rect x="0" y="180" width="21" height="12" stroke="black" stroke-width="1" fill="purple" />
<rect x="21" y="180" width="21" height="12" stroke="black" stroke-width="1" fill="purple" />
<rect x="42" y="180" width="21" height="12" stroke="black" stroke-width="1" fill="purple" />
<rect x="63" y="180" width="21" height="12" stroke="black" stroke-width="1" fill="purple" />
<rect x="84" y="180" width="21" height="12" stroke="black" stroke-width="1" fill="purple" />
<rect x="105" y="180" width="21" height="12" stroke="black" stroke-width="1" fill="purple" />
<rect x="126" y="180" width="21" height="12" stroke="black" stroke-width="1" fill="purple" />
<rect x="147" y="180" width="21" height="12" stroke="black" stroke-width="1" fill="purple" />
<rect x="168" y="180" width="21" height="12" stroke="black" stroke-width="1" fill="purple" />
<rect x="189" y="180" width="21" height="12" stroke="black" stroke-width="1" fill="purple" />
<rect x="210" y="180" width="21" height="12" stroke="black" stroke-width="1" fill="purple" />
<rect x="0" y="192" width="21" height="12" stroke="black" stroke-width="1" fill="purple" />
<rect x="21" y="192" width="21" height="12" stroke="black" stroke-width="1" fill="purple" />
<rect x="42" y="192" width="21" height="12" stroke="black" stroke-width="1" fill="purple" />
<rect x="63" y="192" width="21" height="12" stroke="black" stroke-width="1" fill="purple" />
<rect x="84" y="192" width="21" height="12" stroke="black" stroke-width="1" fill="purple" />
<rect x="105" y="192" width="21" height="12" stroke="black" stroke-width="1" fill="purple" />
<rect x="126" y="192" width="21" height="12" stroke="black" stroke-width="1" fill="purple" />
<rect x="147" y="192" width="21" height="12" stroke="black" stroke-width="1" fill="purple" />
<rect x="168" y="192" width="21" height="12" stroke="black" stroke-width="1" fill="purple" />
<rect x="189" y="192" width="21" height="12" stroke="black" stroke-width="1" fill="purple" />
<rect x="210" y="192" width="21" height="12" stroke="black" stroke-width="1" fill="purple" />
<rect x="0" y="204" width="21" height="12" stroke="black" stroke-width="1" fill="purple" />
<rect x="21" y="204" width="21" height="12" stroke="black" stroke-width="1" fill="purple" />
<rect x="42" y="204" width="21" height="12" stroke="black" stroke-width="1" fill="purple" />
<rect x="63" y="204" width="21" height="12" stroke="black" stroke-width="1" fill="purple" />
<rect x="84" y="204" width="21" height="12" stroke="black" stroke-width="1" fill="purple" />
<rect x="105" y="204" width="21" height="12" stroke="black" stroke-width="1" fill="purple" />
<rect x="126" y="204" width="21" height="12" stroke="black" stroke-width="1" fill="purple" />
<rect x="147" y="204" width="21" height="12" stroke="black" stroke-width="1" fill="purple" />
<rect x="168" y="204" width="21" height="12" stroke="black" stroke-width="1" fill="purple" />
<rect x="189" y="204" width="21" height="12" stroke="black" stroke-width="1" fill="purple" />
<rect x="210" y="204" width="21" height="12" stroke="black" stroke-width="1" fill="purple" />
<rect x="0" y="216" width="21" height="12" stroke="black" stroke-width="1" fill="purple" />
<rect x="21" y="216" width="21" height="12" stroke="black" stroke-width="1" fill="purple" />
<rect x="42" y="216" width="21" height="12" stroke="black" stroke-width="1" fill="purple" />
<rect x="63" y="216" width="21" height="12" stroke="black" stroke-width="1" fill="purple" />
<rect x="84" y="216" width="21" height="12" stroke="black" stroke-width="1" fill="purple" />
<rect x="105" y="216" width="21" height="12" stroke="black" stroke-width="1" fill="purple" />
<rect x="126" y="216" width="21" height="12" stroke="black" stroke-width="1" fill="purple" />
<rect x="147" y="216" width="21" height="12" stroke="black" stroke-width="1" fill="purple" />
<rect x="168" y="216" width="21" height="12" stroke="black" stroke-width="1" fill="purple" />
<rect x="189" y="216" width="21" height="12" stroke="black" stroke-width="1" fill="purple" />
<rect x="210" y="216" width="21" height="12" stroke="black" stroke-width="1" fill="purple" />
<rect x="0" y="228" width="21" height="12" stroke="black" stroke-width="1" fill="purple" />
<rect x="21" y="228" width="21" height="12" stroke="black" stroke-width="1" fill="purple" />
<rect x="42" y="228" width="21" height="12" stroke="black" stroke-width="1" fill="purple" />
<rect x="63" y="228" width="21" height="12" stroke="black" stroke-width="1" fill="purple" />
<rect x="84" y="228" width="21" height="12" stroke="black" stroke-width="1" fill="purple" />
<rect x="105" y="228" width="21" height="12" stroke="black" stroke-width="1" fill="purple" />
<rect x="126" y="228" width="21" height="12" stroke="black" stroke-width="1" fill="purple" />
<rect x="147" y="228" width="21" height="12" stroke="black" stroke-width="1" fill="purple" />
<rect x="168" y="228" width="21" height="12" stroke="black" stroke-width="1" fill="purple" />
<rect x="189" y="228" width="21" height="12" stroke="black" stroke-width="1" fill="purple" />
<rect x="210" y="228" width="21" height="12" stroke="black" stroke-width="1" fill="purple" />
<rect x="0" y="240" width="21" height="12" stroke="black" stroke-width="1" fill="purple" />
<rect x="21" y="240" width="21" height="12" stroke="black" stroke-width="1" fill="purple" />
<rect x="42" y="240" width="21" height="12" stroke="black" stroke-width="1" fill="purple" />
<rect x="63" y="240" width="21" height="12" stroke="black" stroke-width="1" fill="purple" />
<rect x="84" y="240" width="21" height="12" stroke="black" stroke-width="1" fill="purple" />
<rect x="105" y="240" width="21" height="12" stroke="black" stroke-width="1" fill="purple" />
<rect x="126" y="240" width="21" height="12" stroke="black" stroke-width="1" fill="purple" />
<rect x="147" y="240" width="21" height="12" stroke="black" stroke-width="1" fill="purple" />
<rect x="168" y="240" width="21" height="12" stroke="black" stroke-width="1" fill="purple" />
<rect x="189" y="240" width="21" height="12" stroke="black" stroke-width="1" fill="purple" />
<rect x="210" y="240" width="21" height="12" stroke="black" stroke-width="1" fill="purple" />
<rect x="0" y="252" width="21" height="12" stroke="black" stroke-width="1" fill="purple" />
<rect x="21" y="252" width="21" height="12" stroke="black" stroke-width="1" fill="purple" />
<rect x="42" y="252" width="21" height="12" stroke="black" stroke-width="1" fill="purple" />
<rect x="63" y="252" width="21" height="12" stroke="black" stroke-width="1" fill="purple" />
<rect x="84" y="252" width="21" height="12" stroke="black" stroke-width="1" fill="purple" />
<rect x="105" y="252" width="21" height="12" stroke="black" stroke-width="1" fill="purple" />
<rect x="126" y="252" width="21" height="12" stroke="black" stroke-width="1" fill="purple" />
<rect x="147" y="252" width="21" height="12" stroke="black" stroke-width="1" fill="purple" />
<rect x="168" y="252" width="21" height="12" stroke="black" stroke-width="1" fill="purple" />
<rect x="189" y="252" width="21" height="12" stroke="black" stroke-width="1" fill="purple" />
<rect x="210" y="252" width="21" height="12" stroke="black" stroke-width="1" fill="purple" />
<rect x="0" y="264" width="21" height="12" stroke="black" stroke-width="1" fill="purple" />
<rect x="21" y="264" width="21" height="12" stroke="black" stroke-width="1" fill="purple" />
<rect x="42" y="264" width="21" height="12" stroke="black" stroke-width="1" fill="purple" />
<rect x="63" y="264" width="21" height="12" stroke="black" stroke-width="1" fill="purple" />
<rect x="84" y="264" width="21" height="12" stroke="black" stroke-width="1" fill="purple" />
<rect x="105" y="264" width="21" height="12" stroke="black" stroke-width="1" fill="purple" />
<rect x="126" y="264" width="21" height="12" stroke="black" stroke-width="1" fill="purple" />
<rect x="147" y="264" width="21" height="12" stroke="black" stroke-width="1" fill="purple" />
<rect x="168" y="264" width="21" height="12" stroke="black" stroke-width="1" fill="purple" />
<rect x="189" y="264" width="21" height="12" stroke="black" stroke-width="1" fill="purple" />
<rect x="210" y="264" width="21" height="12" stroke="black" stroke-width="1" fill="purple" />
<rect x="0" y="276" width="21" height="12" stroke="black" stroke-width="1" fill="purple" />
<rect x="21" y="276" width="21" height="12" stroke="black" stroke-width="1" fill="purple" />
<rect x="42" y="276" width="21" height="12" stroke="black" stroke-width="1" fill="purple" />
<rect x="63" y="276" width="21" height="12" stroke="black" stroke-width="1" fill="purple" />
<rect x="84" y="276" width="21" height="12" stroke="black" stroke-width="1" fill="purple" />
<rect x="105" y="276" width="21" height="12" stroke="black" stroke-width="1" fill="purple" />
<rect x="126" y="276" width="21" height="12" stroke="black" stroke-width="1" fill="purple" />
<rect x="147" y="276" width="21" height="12" stroke="black" stroke-width="1" fill="purple" />
<rect x="168" y="276" width="21" height="12" stroke="black" stroke-width="1" fill="purple" />
<rect x="189" y="276" width="21" height="12" stroke="black" stroke-width="1" fill="purple" />
<rect x="210" y="276" width="21" height="12" stroke="black" stroke-width="1" fill="purple" />
<rect x="0" y="288" width="21" height="12" stroke="black" stroke-width="1" fill="purple" />
<rect x="21" y="288" width="21" height="12" stroke="black" stroke-width="1" fill="purple" />
<rect x="42" y="288" width="21" height="12" stroke="black" stroke-width="1" fill="purple" />
<rect x="63" y="288" width="21" height="12" stroke="black" stroke-width="1" fill="purple" />
<rect x="84" y="288" width="21" height="12" stroke="black" stroke-width="1" fill="purple" />
<rect x="105" y="288" width="21" height="12" stroke="black" stroke-width="1" fill="purple" />
<rect x="126" y="288" width="21" height="12" stroke="black" stroke-width="1" fill="purple" />
<rect x="147" y="288" width="21" height="12" stroke="black" stroke-width="1" fill="purple" />
<rect x="168" y="288" width="21" height="12" stroke="black" stroke-width="1" fill="purple" />
<rect x="189" y="288" width="21" height="12" stroke="black" stroke-width="1" fill="purple" />
<rect x="210" y="288" width="21" height="12" stroke="black" stroke-width="1" fill="purple" />
<rect x="0" y="300" width="21" height="12" stroke="black" stroke-width="1" fill="purple" />
<rect x="21" y="300" width="21" height="12" stroke="black" stroke-width="1" fill="purple" />
<rect x="42" y="300" width="21" height="12" stroke="black" stroke-width="1" fill="purple" />
<rect x="63" y="300" width="21" height="12" stroke="black" stroke-width="1" fill="purple" />
<rect x="84" y="300" width="21" height="12" stroke="black" stroke-width="1" fill="purple" />
<rect x="105" y="300" width="21" height="12" stroke="black" stroke-width="1" fill="purple" />
<rect x="126" y="300" width="21" height="12" stroke="black" stroke-width="1" fill="purple" />
<rect x="147" y="300" width="21" height="12" stroke="black" stroke-width="1" fill="purple" />
<rect x="168" y="300" width="21" height="12" stroke="black" stroke-width="1" fill="purple" />
<rect x="189" y="300" width="21" height="12" stroke="black" stroke-width="1" fill="purple" />
<rect x="210" y="300" width="21" height="12" stroke="black" stroke-width="1" fill="purple" />
<rect x="0" y="312" width="21" height="12" stroke="black" stroke-width="1" fill="purple" />
<rect x="21" y="312" width="21" height="12" stroke="black" stroke-width="1" fill="purple" />
<rect x="42" y="312" width="21" height="12" stroke="black" stroke-width="1" fill="purple" />
<rect x="63" y="312" width="21" height="12" stroke="black" stroke-width="1" fill="purple" />
<rect x="84" y="312" width="21" height="12" stroke="black" stroke-width="1" fill="purple" />
<rect x="105" y="312" width="21" height="12" stroke="black" stroke-width="1" fill="purple" />
<rect x="126" y="312" width="21" height="12" stroke="black" stroke-width="1" fill="purple" />
<rect x="147" y="312" width="21" height="12" stroke="black" stroke-width="1" fill="purple" />
<rect x="168" y="312" width="21" height="12" stroke="black" stroke-width="1" fill="purple" />
<rect x="189" y="312" width="21" height="12" stroke="black" stroke-width="1" fill="purple" />
<rect x="210" y="312" width="21" height="12" stroke="black" stroke-width="1" fill="purple" />
<rect x="0" y="324" width="21" height="12" stroke="black" stroke-width="1" fill="purple" />
<rect x="21" y="324" width="21" height="12" stroke="black" stroke-width="1" fill="purple" />
<rect x="42" y="324" width="21" height="12" stroke="black" stroke-width="1" fill="purple" />
<rect x="63" y="324" width="21" height="12" stroke="black" stroke-width="1" fill="purple" />
<rect x="84" y="324" width="21" height="12" stroke="black" stroke-width="1" fill="purple" />
<rect x="105" y="324" width="21" height="12" stroke="black" stroke-width="1" fill="purple" />
<rect x="126" y="324" width="21" height="12" stroke="black" stroke-width="1" fill="purple" />
<rect x="147" y="324" width="21" height="12" stroke="black" stroke-width="1" fill="purple" />
<rect x="168" y="324" width="21" height="12" stroke="black" stroke-width="1" fill="purple" />
<rect x="189" y="324" width="21" height="12" stroke="black" stroke-width="1" fill="purple" />
<rect x="210" y="324" width="21" height="12" stroke="black" stroke-width="1" fill="purple" />
<rect x="0" y="336" width="21" height="12" stroke="black" stroke-width="1" fill="purple" />
<rect x="21" y="336" width="21" height="12" stroke="black" stroke-width="1" fill="purple" />
<rect x="42" y="336" width="21" height="12" stroke="black" stroke-width="1" fill="purple" />
<rect x="63" y="336" width="21" height="12" stroke="black" stroke-width="1" fill="purple" />
<rect x="84" y="336" width="21" height="12" stroke="black" stroke-width="1" fill="purple" />
<rect x="105" y="336" width="21" height="12" stroke="black" stroke-width="1" fill="purple" />
<rect x="126" y="336" width="21" height="12" stroke="black" stroke-width="1" fill="purple" />
<rect x="147" y="336" width="21" height="12" stroke="black" stroke-width="1" fill="purple" />
<rect x="168" y="336" width="21" height="12" stroke="black" stroke-width="1" fill="purple" />
<rect x="189" y="336" width="21" height="12" stroke="black" stroke-width="1" fill="purple" />
<rect x="210" y="336" width="21" height="12" stroke="black" stroke-width="1" fill="purple" />
<rect x="0" y="348" width="21" height="12" stroke="black" stroke-width="1" fill="purple" />
<rect x="21" y="348" width="21" height="12" stroke="black" stroke-width="1" fill="purple" />
<rect x="42" y="348" width="21" height="12" stroke="black" stroke-width="1" fill="purple" />
<rect x="63" y="348" width="21" height="12" stroke="black" stroke-width="1" fill="purple" />
<rect x="84" y="348" width="21" height="12" stroke="black" stroke-width="1" fill="purple" />
<rect x="105" y="348" width="21" height="12" stroke="black" stroke-width="1" fill="purple" />
<rect x="126" y="348" width="21" height="12" stroke="black" stroke-width="1" fill="purple" />
<rect x="147" y="348" width="21" height="12" stroke="black" stroke-width="1" fill="purple" />
<rect x="168" y="348" width="21" height="12" stroke="black" stroke-width="1" fill="purple" />
<rect x="189" y="348" width="21" height="12" stroke="black" stroke-width="1" fill="purple" />
<rect x="210" y="348" width="21" height="12" stroke="black" stroke-width="1" fill="purple" />
<rect x="0" y="360" width="21" height="12" stroke="black" stroke-width="1" fill="purple" />
<rect x="21" y="360" width="21" height="12" stroke="black" stroke-width="1" fill="purple" />
<rect x="42" y="360" width="21" height="12" stroke="black" stroke-width="1" fill="purple" />
<rect x="63" y="360" width="21" height="12" stroke="black" stroke-width="1" fill="purple" />
<rect x="84" y="360" width="21" height="12" stroke="black" stroke-width="1" fill="purple" />
<rect x="105" y="360" width="21" height="12" stroke="black" stroke-width="1" fill="purple" />
<rect x="126" y="360" width="21" height="12" stroke="black" stroke-width="1" fill="purple" />
<rect x="147" y="360" width="21" height="12" stroke="black" stroke-width="1" fill="purple" />
<rect x="168" y="360" width="21" height="12" stroke="black" stroke-width="1" fill="purple" />
<rect x="189" y="360" width="21" height="12" stroke="black" stroke-width="1" fill="purple" />
<rect x="210" y="360" width="21" height="12" stroke="black" stroke-width="1" fill="purple" />
<rect x="0" y="372" width="21" height="12" stroke="black" stroke-width="1" fill="purple" />
<rect x="21" y="372" width="21" height="12" stroke="black" stroke-width="1" fill="purple" />
<rect x="42" y="372" width="21" height="12" stroke="black" stroke-width="1" fill="purple" />
<rect x="63" y="372" width="21" height="12" stroke="black" stroke-width="1" fill="purple" />
<rect x="84" y="372" width="21" height="12" stroke="black" stroke-width="1" fill="purple" />
<rect x="105" y="372" width="21" height="12" stroke="black" stroke-width="1" fill="purple" />
<rect x="126" y="372" width="21" height="12" stroke="black" stroke-width="1" fill="purple" />
<rect x="147" y="372" width="21" height="12" stroke="black" stroke-width="1" fill="purple" />
<rect x="168" y="372" width="21" height="12" stroke="black" stroke-width="1" fill="purple" />
<rect x="189" y="372" width="21" height="12" stroke="black" stroke-width="1" fill="purple" />
<rect x="210" y="372" width="21" height="12" stroke="black" stroke-width="1" fill="purple" />
<rect x="0" y="384" width="21" height="12" stroke="black" stroke-width="1" fill="purple" />
<rect x="21" y="384" width="21" height="12" stroke="black" stroke-width="1" fill="purple" />
<rect x="42" y="384" width="21" height="12" stroke="black" stroke-width="1" fill="purple" />
<rect x="63" y="384" width="21" height="12" stroke="black" stroke-width="1" fill="purple" />
<rect x="84" y="384" width="21" height="12" stroke="black" stroke-width="1" fill="purple" />
<rect x="105" y="384" width="21" height="12" stroke="black" stroke-width="1" fill="purple" />
<rect x="126" y="384" width="21" height="12" stroke="black" stroke-width="1" fill="purple" />
<rect x="147" y="384" width="21" height="12" stroke="black" stroke-width="1" fill="purple" />
<rect x="168" y="384" width="21" height="12" stroke="black" stroke-width="1" fill="purple" />
<rect x="189" y="384" width="21" height="12" stroke="black" stroke-width="1" fill="purple" />
<rect x="210" y="384" width="21" height="12" stroke="black" stroke-width="1" fill="purple" />
<rect x="0" y="396" width="21" height="12" stroke="black" stroke-width="1" fill="purple" />
<rect x="21" y="396" width="21" height="12" stroke="black" stroke-width="1" fill="purple" />
<rect x="42" y="396" width="21" height="12" stroke="black" stroke-width="1" fill="purple" />
<rect x="63" y="396" width="21" height="12" stroke="black" stroke-width="1" fill="purple" />
<rect x="84" y="396" width="21" height="12" stroke="black" stroke-width="1" fill="purple" />
<rect x="105" y="396" width="21" height="12" stroke="black" stroke-width="1" fill="purple" />
<rect x="126" y="396" width="21" height="12" stroke="black" stroke-width="1" fill="purple" />
<rect x="147" y="396" width="21" height="12" stroke="black" stroke-width="1" fill="purple" />
<rect x="168" y="396" width="21" height="12" stroke="black" stroke-width="1" fill="purple" />
<rect x="189" y="396" width="21" height="12" stroke="black" stroke-width="1" fill="purple" />
<rect x="210" y="396" width="21" height="12" stroke="black" stroke-width="1" fill="purple" />
<rect x="0" y="408" width="21" height="12" stroke="black" stroke-width="1" fill="purple" />
<rect x="21" y="408" width="21" height="12" stroke="black" stroke-width="1" fill="purple" />
<rect x="42" y="408" width="21" height="12" stroke="black" stroke-width="1" fill="purple" />
<rect x="63" y="408" width="21" height="12" stroke="black" stroke-width="1" fill="purple" />
<rect x="84" y="408" width="21" height="12" stroke="black" stroke-width="1" fill="purple" />
<rect x="105" y="408" width="21" height="12" stroke="black" stroke-width="1" fill="purple" />
<rect x="126" y="408" width="21" height="12" stroke="black" stroke-width="1" fill="purple" />
<rect x="147" y="408" width="21" height="12" stroke="black" stroke-width="1" fill="purple" />
<rect x="168" y="408" width="21" height="12" stroke="black" stroke-width="1" fill="purple" />
<rect x="189" y="408" width="21" height="12" stroke="black" stroke-width="1" fill="purple" />
<rect x="210" y="408" width="21" height="12" stroke="black" stroke-width="1" fill="purple" />
<rect x="0" y="420" width="21" height="12" stroke="black" stroke-width="1" fill="purple" />
<rect x="21" y="420" width="21" height="12" stroke="black" stroke-width="1" fill="purple" />
<rect x="42" y="420" width="21" height="12" stroke="black" stroke-width="1" fill="purple" />
<rect x="63" y="420" width="21" height="12" stroke="black" stroke-width="1" fill="purple" />
<rect x="84" y="420" width="21" height="12" stroke="black" stroke-width="1" fill="purple" />
<rect x="105" y="420" width="21" height="12" stroke="black" stroke-width="1" fill="purple" />
<rect x="126" y="420" width="21" height="12" stroke="black" stroke-width="1" fill="purple" />
<rect x="147" y="420" width="21" height="12" stroke="black" stroke-width="1" fill="purple" />
<rect x="168" y="420" width="21" height="12" stroke="black" stroke-width="1" fill="purple" />
<rect x="189" y="420" width="21" height="12" stroke="black" stroke-width="1" fill="purple" />
<rect x="210" y="420" width="21" height="12" stroke="black" stroke-width="1" fill="purple" />
<rect x="0" y="432" width="21" height="12" stroke="black" stroke-width="1" fill="purple" />
<rect x="21" y="432" width="21" height="12" stroke="black" stroke-width="1" fill="purple" />
<rect x="42" y="432" width="21" height="12" stroke="black" stroke-width="1" fill="purple" />
<rect x="63" y="432" width="21" height="12" stroke="black" stroke-width="1" fill="purple" />
<rect x="84" y="432" width="21" height="12" stroke="black" stroke-width="1" fill="purple" />
<rect x="105" y="432" width="21" height="12" stroke="black" stroke-width="1" fill="purple" />
<rect x="126" y="432" width="21" height="12" stroke="black" stroke-width="1" fill="purple" />
<rect x="147" y="432" width="21" height="12" stroke="black" stroke-width="1" fill="purple" />
<rect x="168" y="432" width="21" height="12" stroke="black" stroke-width="1" fill="purple" />
<rect x="189" y="432" width="21" height="12" stroke="black" stroke-width="1" fill="purple" />
<rect x="210" y="432" width="21" height="12" stroke="black" stroke-width="1" fill="purple" />
</svg>
