<svg version="1.1" 
baseProfile="full"
width="844" height="844"
xmlns="http://www.w3.org/2000/svg">
<circle cx="422" cy="422" r="422" stroke="black" stroke-width="1" fill="blue" />
<circle cx="244" cy="90" r="45" stroke="black" stroke-width="1" fill="purple" />
<circle cx="334" cy="90" r="45" stroke="black" stroke-width="1" fill="purple" />
<circle cx="424" cy="90" r="45" stroke="black" stroke-width="1" fill="purple" />
<circle cx="514" cy="90" r="45" stroke="black" stroke-width="1" fill="purple" />
<circle cx="133" cy="180" r="45" stroke="black" stroke-width="1" fill="purple" />
<circle cx="223" cy="180" r="45" stroke="black" stroke-width="1" fill="purple" />
<circle cx="313" cy="180" r="45" stroke="black" stroke-width="1" fill="purple" />
<circle cx="403" cy="180" r="45" stroke="black" stroke-width="1" fill="purple" />
<circle cx="493" cy="180" r="45" stroke="black" stroke-width="1" fill="purple" />
<circle cx="583" cy="180" r="45" stroke="black" stroke-width="1" fill="purple" />
<circle cx="673" cy="180" r="45" stroke="black" stroke-width="1" fill="purple" />
<circle cx="77" cy="270" r="45" stroke="black" stroke-width="1" fill="purple" />
<circle cx="167" cy="270" r="45" stroke="black" stroke-width="1" fill="purple" />
<circle cx="257" cy="270" r="45" stroke="black" stroke-width="1" fill="purple" />
<circle cx="347" cy="270" r="45" stroke="black" stroke-width="1" fill="purple" />
<circle cx="437" cy="270" r="45" stroke="black" stroke-width="1" fill="purple" />
<circle cx="527" cy="270" r="45" stroke="black" stroke-width="1" fill="purple" />
<circle cx="617" cy="270" r="45" stroke="black" stroke-width="1" fill="purple" />
<circle cx="707" cy="270" r="45" stroke="black" stroke-width="1" fill="purple" />
<circle cx="51" cy="360" r="45" stroke="black" stroke-width="1" fill="purple" />
<circle cx="141" cy="360" r="45" stroke="black" stroke-width="1" fill="purple" />
<circle cx="231" cy="360" r="45" stroke="black" stroke-width="1" fill="purple" />
<circle cx="321" cy="360" r="45" stroke="black" stroke-width="1" fill="purple" />
<circle cx="411" cy="360" r="45" stroke="black" stroke-width="1" fill="purple" />
<circle cx="501" cy="360" r="45" stroke="black" stroke-width="1" fill="purple" />
<circle cx="591" cy="360" r="45" stroke="black" stroke-width="1" fill="purple" />
<circle cx="681" cy="360" r="45" stroke="black" stroke-width="1" fill="purple" />
<circle cx="771" cy="360" r="45" stroke="black" stroke-width="1" fill="purple" />
<circle cx="47" cy="450" r="45" stroke="black" stroke-width="1" fill="purple" />
<circle cx="137" cy="450" r="45" stroke="black" stroke-width="1" fill="purple" />
<circle cx="227" cy="450" r="45" stroke="black" stroke-width="1" fill="purple" />
<circle cx="317" cy="450" r="45" stroke="black" stroke-width="1" fill="purple" />
<circle cx="407" cy="450" r="45" stroke="black" stroke-width="1" fill="purple" />
<circle cx="497" cy="450" r="45" stroke="black" stroke-width="1" fill="purple" />
<circle cx="587" cy="450" r="45" stroke="black" stroke-width="1" fill="purple" />
<circle cx="677" cy="450" r="45" stroke="black" stroke-width="1" fill="purple" />
<circle cx="767" cy="450" r="45" stroke="black" stroke-width="1" fill="purple" />
<circle cx="64" cy="540" r="45" stroke="black" stroke-width="1" fill="purple" />
<circle cx="154" cy="540" r="45" stroke="black" stroke-width="1" fill="purple" />
<circle cx="244" cy="540" r="45" stroke="black" stroke-width="1" fill="purple" />
<circle cx="334" cy="540" r="45" stroke="black" stroke-width="1" fill="purple" />
<circle cx="424" cy="540" r="45" stroke="black" stroke-width="1" fill="purple" />
<circle cx="514" cy="540" r="45" stroke="black" stroke-width="1" fill="purple" />
<circle cx="604" cy="540" r="45" stroke="black" stroke-width="1" fill="purple" />
<circle cx="694" cy="540" r="45" stroke="black" stroke-width="1" fill="purple" />
<circle cx="108" cy="630" r="45" stroke="black" stroke-width="1" fill="purple" />
<circle cx="198" cy="630" r="45" stroke="black" stroke-width="1" fill="purple" />
<circle cx="288" cy="630" r="45" stroke="black" stroke-width="1" fill="purple" />
<circle cx="378" cy="630" r="45" stroke="black" stroke-width="1" fill="purple" />
<circle cx="468" cy="630" r="45" stroke="black" stroke-width="1" fill="purple" />
<circle cx="558" cy="630" r="45" stroke="black" stroke-width="1" fill="purple" />
<circle cx="648" cy="630" r="45" stroke="black" stroke-width="1" fill="purple" />
<circle cx="192" cy="720" r="45" stroke="black" stroke-width="1" fill="purple" />
<circle cx="282" cy="720" r="45" stroke="black" stroke-width="1" fill="purple" />
<circle cx="372" cy="720" r="45" stroke="black" stroke-width="1" fill="purple" />
<circle cx="462" cy="720" r="45" stroke="black" stroke-width="1" fill="purple" />
<circle cx="552" cy="720" r="45" stroke="black" stroke-width="1" fill="purple" />
<circle cx="642" cy="720" r="45" stroke="black" stroke-width="1" fill="purple" />
</svg>
