<svg version="1.1" 
baseProfile="full"
width="568" height="456"
xmlns="http://www.w3.org/2000/svg">
<rect width="100%" height="100%" stroke="black" stroke-width="1" fill="blue" />
<polygon points="28,0 0,48.4974 56,48.4974"
stroke="black" stroke-width="1" fill="purple" />
<polygon points="84,0 56,48.4974 112,48.4974"
stroke="black" stroke-width="1" fill="purple" />
<polygon points="140,0 112,48.4974 168,48.4974"
stroke="black" stroke-width="1" fill="purple" />
<polygon points="196,0 168,48.4974 224,48.4974"
stroke="black" stroke-width="1" fill="purple" />
<polygon points="252,0 224,48.4974 280,48.4974"
stroke="black" stroke-width="1" fill="purple" />
<polygon points="308,0 280,48.4974 336,48.4974"
stroke="black" stroke-width="1" fill="purple" />
<polygon points="364,0 336,48.4974 392,48.4974"
stroke="black" stroke-width="1" fill="purple" />
<polygon points="420,0 392,48.4974 448,48.4974"
stroke="black" stroke-width="1" fill="purple" />
<polygon points="476,0 448,48.4974 504,48.4974"
stroke="black" stroke-width="1" fill="purple" />
<polygon points="532,0 504,48.4974 560,48.4974"
stroke="black" stroke-width="1" fill="purple" />
<polygon points="28,48.4974 0,96.9948 56,96.9948"
stroke="black" stroke-width="1" fill="purple" />
<polygon points="84,48.4974 56,96.9948 112,96.9948"
stroke="black" stroke-width="1" fill="purple" />
<polygon points="140,48.4974 112,96.9948 168,96.9948"
stroke="black" stroke-width="1" fill="purple" />
<polygon points="196,48.4974 168,96.9948 224,96.9948"
stroke="black" stroke-width="1" fill="purple" />
<polygon points="252,48.4974 224,96.9948 280,96.9948"
stroke="black" stroke-width="1" fill="purple" />
<polygon points="308,48.4974 280,96.9948 336,96.9948"
stroke="black" stroke-width="1" fill="purple" />
<polygon points="364,48.4974 336,96.9948 392,96.9948"
stroke="black" stroke-width="1" fill="purple" />
<polygon points="420,48.4974 392,96.9948 448,96.9948"
stroke="black" stroke-width="1" fill="purple" />
<polygon points="476,48.4974 448,96.9948 504,96.9948"
stroke="black" stroke-width="1" fill="purple" />
<polygon points="532,48.4974 504,96.9948 560,96.9948"
stroke="black" stroke-width="1" fill="purple" />
<polygon points="28,96.9948 0,145.492 56,145.492"
stroke="black" stroke-width="1" fill="purple" />
<polygon points="84,96.9948 56,145.492 112,145.492"
stroke="black" stroke-width="1" fill="purple" />
<polygon points="140,96.9948 112,145.492 168,145.492"
stroke="black" stroke-width="1" fill="purple" />
<polygon points="196,96.9948 168,145.492 224,145.492"
stroke="black" stroke-width="1" fill="purple" />
<polygon points="252,96.9948 224,145.492 280,145.492"
stroke="black" stroke-width="1" fill="purple" />
<polygon points="308,96.9948 280,145.492 336,145.492"
stroke="black" stroke-width="1" fill="purple" />
<polygon points="364,96.9948 336,145.492 392,145.492"
stroke="black" stroke-width="1" fill="purple" />
<polygon points="420,96.9948 392,145.492 448,145.492"
stroke="black" stroke-width="1" fill="purple" />
<polygon points="476,96.9948 448,145.492 504,145.492"
stroke="black" stroke-width="1" fill="purple" />
<polygon points="532,96.9948 504,145.492 560,145.492"
stroke="black" stroke-width="1" fill="purple" />
<polygon points="28,145.492 0,193.99 56,193.99"
stroke="black" stroke-width="1" fill="purple" />
<polygon points="84,145.492 56,193.99 112,193.99"
stroke="black" stroke-width="1" fill="purple" />
<polygon points="140,145.492 112,193.99 168,193.99"
stroke="black" stroke-width="1" fill="purple" />
<polygon points="196,145.492 168,193.99 224,193.99"
stroke="black" stroke-width="1" fill="purple" />
<polygon points="252,145.492 224,193.99 280,193.99"
stroke="black" stroke-width="1" fill="purple" />
<polygon points="308,145.492 280,193.99 336,193.99"
stroke="black" stroke-width="1" fill="purple" />
<polygon points="364,145.492 336,193.99 392,193.99"
stroke="black" stroke-width="1" fill="purple" />
<polygon points="420,145.492 392,193.99 448,193.99"
stroke="black" stroke-width="1" fill="purple" />
<polygon points="476,145.492 448,193.99 504,193.99"
stroke="black" stroke-width="1" fill="purple" />
<polygon points="532,145.492 504,193.99 560,193.99"
stroke="black" stroke-width="1" fill="purple" />
<polygon points="28,193.99 0,242.487 56,242.487"
stroke="black" stroke-width="1" fill="purple" />
<polygon points="84,193.99 56,242.487 112,242.487"
stroke="black" stroke-width="1" fill="purple" />
<polygon points="140,193.99 112,242.487 168,242.487"
stroke="black" stroke-width="1" fill="purple" />
<polygon points="196,193.99 168,242.487 224,242.487"
stroke="black" stroke-width="1" fill="purple" />
<polygon points="252,193.99 224,242.487 280,242.487"
stroke="black" stroke-width="1" fill="purple" />
<polygon points="308,193.99 280,242.487 336,242.487"
stroke="black" stroke-width="1" fill="purple" />
<polygon points="364,193.99 336,242.487 392,242.487"
stroke="black" stroke-width="1" fill="purple" />
<polygon points="420,193.99 392,242.487 448,242.487"
stroke="black" stroke-width="1" fill="purple" />
<polygon points="476,193.99 448,242.487 504,242.487"
stroke="black" stroke-width="1" fill="purple" />
<polygon points="532,193.99 504,242.487 560,242.487"
stroke="black" stroke-width="1" fill="purple" />
<polygon points="28,242.487 0,290.985 56,290.985"
stroke="black" stroke-width="1" fill="purple" />
<polygon points="84,242.487 56,290.985 112,290.985"
stroke="black" stroke-width="1" fill="purple" />
<polygon points="140,242.487 112,290.985 168,290.985"
stroke="black" stroke-width="1" fill="purple" />
<polygon points="196,242.487 168,290.985 224,290.985"
stroke="black" stroke-width="1" fill="purple" />
<polygon points="252,242.487 224,290.985 280,290.985"
stroke="black" stroke-width="1" fill="purple" />
<polygon points="308,242.487 280,290.985 336,290.985"
stroke="black" stroke-width="1" fill="purple" />
<polygon points="364,242.487 336,290.985 392,290.985"
stroke="black" stroke-width="1" fill="purple" />
<polygon points="420,242.487 392,290.985 448,290.985"
stroke="black" stroke-width="1" fill="purple" />
<polygon points="476,242.487 448,290.985 504,290.985"
stroke="black" stroke-width="1" fill="purple" />
<polygon points="532,242.487 504,290.985 560,290.985"
stroke="black" stroke-width="1" fill="purple" />
<polygon points="28,290.985 0,339.482 56,339.482"
stroke="black" stroke-width="1" fill="purple" />
<polygon points="84,290.985 56,339.482 112,339.482"
stroke="black" stroke-width="1" fill="purple" />
<polygon points="140,290.985 112,339.482 168,339.482"
stroke="black" stroke-width="1" fill="purple" />
<polygon points="196,290.985 168,339.482 224,339.482"
stroke="black" stroke-width="1" fill="purple" />
<polygon points="252,290.985 224,339.482 280,339.482"
stroke="black" stroke-width="1" fill="purple" />
<polygon points="308,290.985 280,339.482 336,339.482"
stroke="black" stroke-width="1" fill="purple" />
<polygon points="364,290.985 336,339.482 392,339.482"
stroke="black" stroke-width="1" fill="purple" />
<polygon points="420,290.985 392,339.482 448,339.482"
stroke="black" stroke-width="1" fill="purple" />
<polygon points="476,290.985 448,339.482 504,339.482"
stroke="black" stroke-width="1" fill="purple" />
<polygon points="532,290.985 504,339.482 560,339.482"
stroke="black" stroke-width="1" fill="purple" />
<polygon points="28,339.482 0,387.979 56,387.979"
stroke="black" stroke-width="1" fill="purple" />
<polygon points="84,339.482 56,387.979 112,387.979"
stroke="black" stroke-width="1" fill="purple" />
<polygon points="140,339.482 112,387.979 168,387.979"
stroke="black" stroke-width="1" fill="purple" />
<polygon points="196,339.482 168,387.979 224,387.979"
stroke="black" stroke-width="1" fill="purple" />
<polygon points="252,339.482 224,387.979 280,387.979"
stroke="black" stroke-width="1" fill="purple" />
<polygon points="308,339.482 280,387.979 336,387.979"
stroke="black" stroke-width="1" fill="purple" />
<polygon points="364,339.482 336,387.979 392,387.979"
stroke="black" stroke-width="1" fill="purple" />
<polygon points="420,339.482 392,387.979 448,387.979"
stroke="black" stroke-width="1" fill="purple" />
<polygon points="476,339.482 448,387.979 504,387.979"
stroke="black" stroke-width="1" fill="purple" />
<polygon points="532,339.482 504,387.979 560,387.979"
stroke="black" stroke-width="1" fill="purple" />
<polygon points="28,387.979 0,436.477 56,436.477"
stroke="black" stroke-width="1" fill="purple" />
<polygon points="84,387.979 56,436.477 112,436.477"
stroke="black" stroke-width="1" fill="purple" />
<polygon points="140,387.979 112,436.477 168,436.477"
stroke="black" stroke-width="1" fill="purple" />
<polygon points="196,387.979 168,436.477 224,436.477"
stroke="black" stroke-width="1" fill="purple" />
<polygon points="252,387.979 224,436.477 280,436.477"
stroke="black" stroke-width="1" fill="purple" />
<polygon points="308,387.979 280,436.477 336,436.477"
stroke="black" stroke-width="1" fill="purple" />
<polygon points="364,387.979 336,436.477 392,436.477"
stroke="black" stroke-width="1" fill="purple" />
<polygon points="420,387.979 392,436.477 448,436.477"
stroke="black" stroke-width="1" fill="purple" />
<polygon points="476,387.979 448,436.477 504,436.477"
stroke="black" stroke-width="1" fill="purple" />
<polygon points="532,387.979 504,436.477 560,436.477"
stroke="black" stroke-width="1" fill="purple" />
<polygon points="56,48.4974 28,0 84,0"
stroke="black" stroke-width="1" fill="purple" />
<polygon points="112,48.4974 84,0 140,0"
stroke="black" stroke-width="1" fill="purple" />
<polygon points="168,48.4974 140,0 196,0"
stroke="black" stroke-width="1" fill="purple" />
<polygon points="224,48.4974 196,0 252,0"
stroke="black" stroke-width="1" fill="purple" />
<polygon points="280,48.4974 252,0 308,0"
stroke="black" stroke-width="1" fill="purple" />
<polygon points="336,48.4974 308,0 364,0"
stroke="black" stroke-width="1" fill="purple" />
<polygon points="392,48.4974 364,0 420,0"
stroke="black" stroke-width="1" fill="purple" />
<polygon points="448,48.4974 420,0 476,0"
stroke="black" stroke-width="1" fill="purple" />
<polygon points="504,48.4974 476,0 532,0"
stroke="black" stroke-width="1" fill="purple" />
<polygon points="56,96.9948 28,48.4974 84,48.4974"
stroke="black" stroke-width="1" fill="purple" />
<polygon points="112,96.9948 84,48.4974 140,48.4974"
stroke="black" stroke-width="1" fill="purple" />
<polygon points="168,96.9948 140,48.4974 196,48.4974"
stroke="black" stroke-width="1" fill="purple" />
<polygon points="224,96.9948 196,48.4974 252,48.4974"
stroke="black" stroke-width="1" fill="purple" />
<polygon points="280,96.9948 252,48.4974 308,48.4974"
stroke="black" stroke-width="1" fill="purple" />
<polygon points="336,96.9948 308,48.4974 364,48.4974"
stroke="black" stroke-width="1" fill="purple" />
<polygon points="392,96.9948 364,48.4974 420,48.4974"
stroke="black" stroke-width="1" fill="purple" />
<polygon points="448,96.9948 420,48.4974 476,48.4974"
stroke="black" stroke-width="1" fill="purple" />
<polygon points="504,96.9948 476,48.4974 532,48.4974"
stroke="black" stroke-width="1" fill="purple" />
<polygon points="56,145.492 28,96.9948 84,96.9948"
stroke="black" stroke-width="1" fill="purple" />
<polygon points="112,145.492 84,96.9948 140,96.9948"
stroke="black" stroke-width="1" fill="purple" />
<polygon points="168,145.492 140,96.9948 196,96.9948"
stroke="black" stroke-width="1" fill="purple" />
<polygon points="224,145.492 196,96.9948 252,96.9948"
stroke="black" stroke-width="1" fill="purple" />
<polygon points="280,145.492 252,96.9948 308,96.9948"
stroke="black" stroke-width="1" fill="purple" />
<polygon points="336,145.492 308,96.9948 364,96.9948"
stroke="black" stroke-width="1" fill="purple" />
<polygon points="392,145.492 364,96.9948 420,96.9948"
stroke="black" stroke-width="1" fill="purple" />
<polygon points="448,145.492 420,96.9948 476,96.9948"
stroke="black" stroke-width="1" fill="purple" />
<polygon points="504,145.492 476,96.9948 532,96.9948"
stroke="black" stroke-width="1" fill="purple" />
<polygon points="56,193.99 28,145.492 84,145.492"
stroke="black" stroke-width="1" fill="purple" />
<polygon points="112,193.99 84,145.492 140,145.492"
stroke="black" stroke-width="1" fill="purple" />
<polygon points="168,193.99 140,145.492 196,145.492"
stroke="black" stroke-width="1" fill="purple" />
<polygon points="224,193.99 196,145.492 252,145.492"
stroke="black" stroke-width="1" fill="purple" />
<polygon points="280,193.99 252,145.492 308,145.492"
stroke="black" stroke-width="1" fill="purple" />
<polygon points="336,193.99 308,145.492 364,145.492"
stroke="black" stroke-width="1" fill="purple" />
<polygon points="392,193.99 364,145.492 420,145.492"
stroke="black" stroke-width="1" fill="purple" />
<polygon points="448,193.99 420,145.492 476,145.492"
stroke="black" stroke-width="1" fill="purple" />
<polygon points="504,193.99 476,145.492 532,145.492"
stroke="black" stroke-width="1" fill="purple" />
<polygon points="56,242.487 28,193.99 84,193.99"
stroke="black" stroke-width="1" fill="purple" />
<polygon points="112,242.487 84,193.99 140,193.99"
stroke="black" stroke-width="1" fill="purple" />
<polygon points="168,242.487 140,193.99 196,193.99"
stroke="black" stroke-width="1" fill="purple" />
<polygon points="224,242.487 196,193.99 252,193.99"
stroke="black" stroke-width="1" fill="purple" />
<polygon points="280,242.487 252,193.99 308,193.99"
stroke="black" stroke-width="1" fill="purple" />
<polygon points="336,242.487 308,193.99 364,193.99"
stroke="black" stroke-width="1" fill="purple" />
<polygon points="392,242.487 364,193.99 420,193.99"
stroke="black" stroke-width="1" fill="purple" />
<polygon points="448,242.487 420,193.99 476,193.99"
stroke="black" stroke-width="1" fill="purple" />
<polygon points="504,242.487 476,193.99 532,193.99"
stroke="black" stroke-width="1" fill="purple" />
<polygon points="56,290.985 28,242.487 84,242.487"
stroke="black" stroke-width="1" fill="purple" />
<polygon points="112,290.985 84,242.487 140,242.487"
stroke="black" stroke-width="1" fill="purple" />
<polygon points="168,290.985 140,242.487 196,242.487"
stroke="black" stroke-width="1" fill="purple" />
<polygon points="224,290.985 196,242.487 252,242.487"
stroke="black" stroke-width="1" fill="purple" />
<polygon points="280,290.985 252,242.487 308,242.487"
stroke="black" stroke-width="1" fill="purple" />
<polygon points="336,290.985 308,242.487 364,242.487"
stroke="black" stroke-width="1" fill="purple" />
<polygon points="392,290.985 364,242.487 420,242.487"
stroke="black" stroke-width="1" fill="purple" />
<polygon points="448,290.985 420,242.487 476,242.487"
stroke="black" stroke-width="1" fill="purple" />
<polygon points="504,290.985 476,242.487 532,242.487"
stroke="black" stroke-width="1" fill="purple" />
<polygon points="56,339.482 28,290.985 84,290.985"
stroke="black" stroke-width="1" fill="purple" />
<polygon points="112,339.482 84,290.985 140,290.985"
stroke="black" stroke-width="1" fill="purple" />
<polygon points="168,339.482 140,290.985 196,290.985"
stroke="black" stroke-width="1" fill="purple" />
<polygon points="224,339.482 196,290.985 252,290.985"
stroke="black" stroke-width="1" fill="purple" />
<polygon points="280,339.482 252,290.985 308,290.985"
stroke="black" stroke-width="1" fill="purple" />
<polygon points="336,339.482 308,290.985 364,290.985"
stroke="black" stroke-width="1" fill="purple" />
<polygon points="392,339.482 364,290.985 420,290.985"
stroke="black" stroke-width="1" fill="purple" />
<polygon points="448,339.482 420,290.985 476,290.985"
stroke="black" stroke-width="1" fill="purple" />
<polygon points="504,339.482 476,290.985 532,290.985"
stroke="black" stroke-width="1" fill="purple" />
<polygon points="56,387.979 28,339.482 84,339.482"
stroke="black" stroke-width="1" fill="purple" />
<polygon points="112,387.979 84,339.482 140,339.482"
stroke="black" stroke-width="1" fill="purple" />
<polygon points="168,387.979 140,339.482 196,339.482"
stroke="black" stroke-width="1" fill="purple" />
<polygon points="224,387.979 196,339.482 252,339.482"
stroke="black" stroke-width="1" fill="purple" />
<polygon points="280,387.979 252,339.482 308,339.482"
stroke="black" stroke-width="1" fill="purple" />
<polygon points="336,387.979 308,339.482 364,339.482"
stroke="black" stroke-width="1" fill="purple" />
<polygon points="392,387.979 364,339.482 420,339.482"
stroke="black" stroke-width="1" fill="purple" />
<polygon points="448,387.979 420,339.482 476,339.482"
stroke="black" stroke-width="1" fill="purple" />
<polygon points="504,387.979 476,339.482 532,339.482"
stroke="black" stroke-width="1" fill="purple" />
<polygon points="56,436.477 28,387.979 84,387.979"
stroke="black" stroke-width="1" fill="purple" />
<polygon points="112,436.477 84,387.979 140,387.979"
stroke="black" stroke-width="1" fill="purple" />
<polygon points="168,436.477 140,387.979 196,387.979"
stroke="black" stroke-width="1" fill="purple" />
<polygon points="224,436.477 196,387.979 252,387.979"
stroke="black" stroke-width="1" fill="purple" />
<polygon points="280,436.477 252,387.979 308,387.979"
stroke="black" stroke-width="1" fill="purple" />
<polygon points="336,436.477 308,387.979 364,387.979"
stroke="black" stroke-width="1" fill="purple" />
<polygon points="392,436.477 364,387.979 420,387.979"
stroke="black" stroke-width="1" fill="purple" />
<polygon points="448,436.477 420,387.979 476,387.979"
stroke="black" stroke-width="1" fill="purple" />
<polygon points="504,436.477 476,387.979 532,387.979"
stroke="black" stroke-width="1" fill="purple" />
</svg>
