<svg version="1.1" 
baseProfile="full"
width="650" height="650"
xmlns="http://www.w3.org/2000/svg">
<circle cx="325" cy="325" r="325" stroke="black" stroke-width="1" fill="blue" />
<rect x="225" y="25" width="45" height="25" stroke="black" stroke-width="1" fill="purple" />
<rect x="270" y="25" width="45" height="25" stroke="black" stroke-width="1" fill="purple" />
<rect x="315" y="25" width="45" height="25" stroke="black" stroke-width="1" fill="purple" />
<rect x="360" y="25" width="45" height="25" stroke="black" stroke-width="1" fill="purple" />
<rect x="405" y="25" width="45" height="25" stroke="black" stroke-width="1" fill="purple" />
<rect x="180" y="50" width="45" height="25" stroke="black" stroke-width="1" fill="purple" />
<rect x="225" y="50" width="45" height="25" stroke="black" stroke-width="1" fill="purple" />
<rect x="270" y="50" width="45" height="25" stroke="black" stroke-width="1" fill="purple" />
<rect x="315" y="50" width="45" height="25" stroke="black" stroke-width="1" fill="purple" />
<rect x="360" y="50" width="45" height="25" stroke="black" stroke-width="1" fill="purple" />
<rect x="405" y="50" width="45" height="25" stroke="black" stroke-width="1" fill="purple" />
<rect x="450" y="50" width="45" height="25" stroke="black" stroke-width="1" fill="purple" />
<rect x="135" y="75" width="45" height="25" stroke="black" stroke-width="1" fill="purple" />
<rect x="180" y="75" width="45" height="25" stroke="black" stroke-width="1" fill="purple" />
<rect x="225" y="75" width="45" height="25" stroke="black" stroke-width="1" fill="purple" />
<rect x="270" y="75" width="45" height="25" stroke="black" stroke-width="1" fill="purple" />
<rect x="315" y="75" width="45" height="25" stroke="black" stroke-width="1" fill="purple" />
<rect x="360" y="75" width="45" height="25" stroke="black" stroke-width="1" fill="purple" />
<rect x="405" y="75" width="45" height="25" stroke="black" stroke-width="1" fill="purple" />
<rect x="450" y="75" width="45" height="25" stroke="black" stroke-width="1" fill="purple" />
<rect x="135" y="100" width="45" height="25" stroke="black" stroke-width="1" fill="purple" />
<rect x="180" y="100" width="45" height="25" stroke="black" stroke-width="1" fill="purple" />
<rect x="225" y="100" width="45" height="25" stroke="black" stroke-width="1" fill="purple" />
<rect x="270" y="100" width="45" height="25" stroke="black" stroke-width="1" fill="purple" />
<rect x="315" y="100" width="45" height="25" stroke="black" stroke-width="1" fill="purple" />
<rect x="360" y="100" width="45" height="25" stroke="black" stroke-width="1" fill="purple" />
<rect x="405" y="100" width="45" height="25" stroke="black" stroke-width="1" fill="purple" />
<rect x="450" y="100" width="45" height="25" stroke="black" stroke-width="1" fill="purple" />
<rect x="495" y="100" width="45" height="25" stroke="black" stroke-width="1" fill="purple" />
<rect x="90" y="125" width="45" height="25" stroke="black" stroke-width="1" fill="purple" />
<rect x="135" y="125" width="45" height="25" stroke="black" stroke-width="1" fill="purple" />
<rect x="180" y="125" width="45" height="25" stroke="black" stroke-width="1" fill="purple" />
<rect x="225" y="125" width="45" height="25" stroke="black" stroke-width="1" fill="purple" />
<rect x="270" y="125" width="45" height="25" stroke="black" stroke-width="1" fill="purple" />
<rect x="315" y="125" width="45" height="25" stroke="black" stroke-width="1" fill="purple" />
<rect x="360" y="125" width="45" height="25" stroke="black" stroke-width="1" fill="purple" />
<rect x="405" y="125" width="45" height="25" stroke="black" stroke-width="1" fill="purple" />
<rect x="450" y="125" width="45" height="25" stroke="black" stroke-width="1" fill="purple" />
<rect x="495" y="125" width="45" height="25" stroke="black" stroke-width="1" fill="purple" />
<rect x="90" y="150" width="45" height="25" stroke="black" stroke-width="1" fill="purple" />
<rect x="135" y="150" width="45" height="25" stroke="black" stroke-width="1" fill="purple" />
<rect x="180" y="150" width="45" height="25" stroke="black" stroke-width="1" fill="purple" />
<rect x="225" y="150" width="45" height="25" stroke="black" stroke-width="1" fill="purple" />
<rect x="270" y="150" width="45" height="25" stroke="black" stroke-width="1" fill="purple" />
<rect x="315" y="150" width="45" height="25" stroke="black" stroke-width="1" fill="purple" />
<rect x="360" y="150" width="45" height="25" stroke="black" stroke-width="1" fill="purple" />
<rect x="405" y="150" width="45" height="25" stroke="black" stroke-width="1" fill="purple" />
<rect x="450" y="150" width="45" height="25" stroke="black" stroke-width="1" fill="purple" />
<rect x="495" y="150" width="45" height="25" stroke="black" stroke-width="1" fill="purple" />
<rect x="540" y="150" width="45" height="25" stroke="black" stroke-width="1" fill="purple" />
<rect x="45" y="175" width="45" height="25" stroke="black" stroke-width="1" fill="purple" />
<rect x="90" y="175" width="45" height="25" stroke="black" stroke-width="1" fill="purple" />
<rect x="135" y="175" width="45" height="25" stroke="black" stroke-width="1" fill="purple" />
<rect x="180" y="175" width="45" height="25" stroke="black" stroke-width="1" fill="purple" />
<rect x="225" y="175" width="45" height="25" stroke="black" stroke-width="1" fill="purple" />
<rect x="270" y="175" width="45" height="25" stroke="black" stroke-width="1" fill="purple" />
<rect x="315" y="175" width="45" height="25" stroke="black" stroke-width="1" fill="purple" />
<rect x="360" y="175" width="45" height="25" stroke="black" stroke-width="1" fill="purple" />
<rect x="405" y="175" width="45" height="25" stroke="black" stroke-width="1" fill="purple" />
<rect x="450" y="175" width="45" height="25" stroke="black" stroke-width="1" fill="purple" />
<rect x="495" y="175" width="45" height="25" stroke="black" stroke-width="1" fill="purple" />
<rect x="540" y="175" width="45" height="25" stroke="black" stroke-width="1" fill="purple" />
<rect x="45" y="200" width="45" height="25" stroke="black" stroke-width="1" fill="purple" />
<rect x="90" y="200" width="45" height="25" stroke="black" stroke-width="1" fill="purple" />
<rect x="135" y="200" width="45" height="25" stroke="black" stroke-width="1" fill="purple" />
<rect x="180" y="200" width="45" height="25" stroke="black" stroke-width="1" fill="purple" />
<rect x="225" y="200" width="45" height="25" stroke="black" stroke-width="1" fill="purple" />
<rect x="270" y="200" width="45" height="25" stroke="black" stroke-width="1" fill="purple" />
<rect x="315" y="200" width="45" height="25" stroke="black" stroke-width="1" fill="purple" />
<rect x="360" y="200" width="45" height="25" stroke="black" stroke-width="1" fill="purple" />
<rect x="405" y="200" width="45" height="25" stroke="black" stroke-width="1" fill="purple" />
<rect x="450" y="200" width="45" height="25" stroke="black" stroke-width="1" fill="purple" />
<rect x="495" y="200" width="45" height="25" stroke="black" stroke-width="1" fill="purple" />
<rect x="540" y="200" width="45" height="25" stroke="black" stroke-width="1" fill="purple" />
<rect x="45" y="225" width="45" height="25" stroke="black" stroke-width="1" fill="purple" />
<rect x="90" y="225" width="45" height="25" stroke="black" stroke-width="1" fill="purple" />
<rect x="135" y="225" width="45" height="25" stroke="black" stroke-width="1" fill="purple" />
<rect x="180" y="225" width="45" height="25" stroke="black" stroke-width="1" fill="purple" />
<rect x="225" y="225" width="45" height="25" stroke="black" stroke-width="1" fill="purple" />
<rect x="270" y="225" width="45" height="25" stroke="black" stroke-width="1" fill="purple" />
<rect x="315" y="225" width="45" height="25" stroke="black" stroke-width="1" fill="purple" />
<rect x="360" y="225" width="45" height="25" stroke="black" stroke-width="1" fill="purple" />
<rect x="405" y="225" width="45" height="25" stroke="black" stroke-width="1" fill="purple" />
<rect x="450" y="225" width="45" height="25" stroke="black" stroke-width="1" fill="purple" />
<rect x="495" y="225" width="45" height="25" stroke="black" stroke-width="1" fill="purple" />
<rect x="540" y="225" width="45" height="25" stroke="black" stroke-width="1" fill="purple" />
<rect x="585" y="225" width="45" height="25" stroke="black" stroke-width="1" fill="purple" />
<rect x="45" y="250" width="45" height="25" stroke="black" stroke-width="1" fill="purple" />
<rect x="90" y="250" width="45" height="25" stroke="black" stroke-width="1" fill="purple" />
<rect x="135" y="250" width="45" height="25" stroke="black" stroke-width="1" fill="purple" />
<rect x="180" y="250" width="45" height="25" stroke="black" stroke-width="1" fill="purple" />
<rect x="225" y="250" width="45" height="25" stroke="black" stroke-width="1" fill="purple" />
<rect x="270" y="250" width="45" height="25" stroke="black" stroke-width="1" fill="purple" />
<rect x="315" y="250" width="45" height="25" stroke="black" stroke-width="1" fill="purple" />
<rect x="360" y="250" width="45" height="25" stroke="black" stroke-width="1" fill="purple" />
<rect x="405" y="250" width="45" height="25" stroke="black" stroke-width="1" fill="purple" />
<rect x="450" y="250" width="45" height="25" stroke="black" stroke-width="1" fill="purple" />
<rect x="495" y="250" width="45" height="25" stroke="black" stroke-width="1" fill="purple" />
<rect x="540" y="250" width="45" height="25" stroke="black" stroke-width="1" fill="purple" />
<rect x="585" y="250" width="45" height="25" stroke="black" stroke-width="1" fill="purple" />
<rect x="45" y="275" width="45" height="25" stroke="black" stroke-width="1" fill="purple" />
<rect x="90" y="275" width="45" height="25" stroke="black" stroke-width="1" fill="purple" />
<rect x="135" y="275" width="45" height="25" stroke="black" stroke-width="1" fill="purple" />
<rect x="180" y="275" width="45" height="25" stroke="black" stroke-width="1" fill="purple" />
<rect x="225" y="275" width="45" height="25" stroke="black" stroke-width="1" fill="purple" />
<rect x="270" y="275" width="45" height="25" stroke="black" stroke-width="1" fill="purple" />
<rect x="315" y="275" width="45" height="25" stroke="black" stroke-width="1" fill="purple" />
<rect x="360" y="275" width="45" height="25" stroke="black" stroke-width="1" fill="purple" />
<rect x="405" y="275" width="45" height="25" stroke="black" stroke-width="1" fill="purple" />
<rect x="450" y="275" width="45" height="25" stroke="black" stroke-width="1" fill="purple" />
<rect x="495" y="275" width="45" height="25" stroke="black" stroke-width="1" fill="purple" />
<rect x="540" y="275" width="45" height="25" stroke="black" stroke-width="1" fill="purple" />
<rect x="585" y="275" width="45" height="25" stroke="black" stroke-width="1" fill="purple" />
<rect x="45" y="300" width="45" height="25" stroke="black" stroke-width="1" fill="purple" />
<rect x="90" y="300" width="45" height="25" stroke="black" stroke-width="1" fill="purple" />
<rect x="135" y="300" width="45" height="25" stroke="black" stroke-width="1" fill="purple" />
<rect x="180" y="300" width="45" height="25" stroke="black" stroke-width="1" fill="purple" />
<rect x="225" y="300" width="45" height="25" stroke="black" stroke-width="1" fill="purple" />
<rect x="270" y="300" width="45" height="25" stroke="black" stroke-width="1" fill="purple" />
<rect x="315" y="300" width="45" height="25" stroke="black" stroke-width="1" fill="purple" />
<rect x="360" y="300" width="45" height="25" stroke="black" stroke-width="1" fill="purple" />
<rect x="405" y="300" width="45" height="25" stroke="black" stroke-width="1" fill="purple" />
<rect x="450" y="300" width="45" height="25" stroke="black" stroke-width="1" fill="purple" />
<rect x="495" y="300" width="45" height="25" stroke="black" stroke-width="1" fill="purple" />
<rect x="540" y="300" width="45" height="25" stroke="black" stroke-width="1" fill="purple" />
<rect x="585" y="300" width="45" height="25" stroke="black" stroke-width="1" fill="purple" />
<rect x="45" y="325" width="45" height="25" stroke="black" stroke-width="1" fill="purple" />
<rect x="90" y="325" width="45" height="25" stroke="black" stroke-width="1" fill="purple" />
<rect x="135" y="325" width="45" height="25" stroke="black" stroke-width="1" fill="purple" />
<rect x="180" y="325" width="45" height="25" stroke="black" stroke-width="1" fill="purple" />
<rect x="225" y="325" width="45" height="25" stroke="black" stroke-width="1" fill="purple" />
<rect x="270" y="325" width="45" height="25" stroke="black" stroke-width="1" fill="purple" />
<rect x="315" y="325" width="45" height="25" stroke="black" stroke-width="1" fill="purple" />
<rect x="360" y="325" width="45" height="25" stroke="black" stroke-width="1" fill="purple" />
<rect x="405" y="325" width="45" height="25" stroke="black" stroke-width="1" fill="purple" />
<rect x="450" y="325" width="45" height="25" stroke="black" stroke-width="1" fill="purple" />
<rect x="495" y="325" width="45" height="25" stroke="black" stroke-width="1" fill="purple" />
<rect x="540" y="325" width="45" height="25" stroke="black" stroke-width="1" fill="purple" />
<rect x="585" y="325" width="45" height="25" stroke="black" stroke-width="1" fill="purple" />
<rect x="45" y="350" width="45" height="25" stroke="black" stroke-width="1" fill="purple" />
<rect x="90" y="350" width="45" height="25" stroke="black" stroke-width="1" fill="purple" />
<rect x="135" y="350" width="45" height="25" stroke="black" stroke-width="1" fill="purple" />
<rect x="180" y="350" width="45" height="25" stroke="black" stroke-width="1" fill="purple" />
<rect x="225" y="350" width="45" height="25" stroke="black" stroke-width="1" fill="purple" />
<rect x="270" y="350" width="45" height="25" stroke="black" stroke-width="1" fill="purple" />
<rect x="315" y="350" width="45" height="25" stroke="black" stroke-width="1" fill="purple" />
<rect x="360" y="350" width="45" height="25" stroke="black" stroke-width="1" fill="purple" />
<rect x="405" y="350" width="45" height="25" stroke="black" stroke-width="1" fill="purple" />
<rect x="450" y="350" width="45" height="25" stroke="black" stroke-width="1" fill="purple" />
<rect x="495" y="350" width="45" height="25" stroke="black" stroke-width="1" fill="purple" />
<rect x="540" y="350" width="45" height="25" stroke="black" stroke-width="1" fill="purple" />
<rect x="585" y="350" width="45" height="25" stroke="black" stroke-width="1" fill="purple" />
<rect x="45" y="375" width="45" height="25" stroke="black" stroke-width="1" fill="purple" />
<rect x="90" y="375" width="45" height="25" stroke="black" stroke-width="1" fill="purple" />
<rect x="135" y="375" width="45" height="25" stroke="black" stroke-width="1" fill="purple" />
<rect x="180" y="375" width="45" height="25" stroke="black" stroke-width="1" fill="purple" />
<rect x="225" y="375" width="45" height="25" stroke="black" stroke-width="1" fill="purple" />
<rect x="270" y="375" width="45" height="25" stroke="black" stroke-width="1" fill="purple" />
<rect x="315" y="375" width="45" height="25" stroke="black" stroke-width="1" fill="purple" />
<rect x="360" y="375" width="45" height="25" stroke="black" stroke-width="1" fill="purple" />
<rect x="405" y="375" width="45" height="25" stroke="black" stroke-width="1" fill="purple" />
<rect x="450" y="375" width="45" height="25" stroke="black" stroke-width="1" fill="purple" />
<rect x="495" y="375" width="45" height="25" stroke="black" stroke-width="1" fill="purple" />
<rect x="540" y="375" width="45" height="25" stroke="black" stroke-width="1" fill="purple" />
<rect x="585" y="375" width="45" height="25" stroke="black" stroke-width="1" fill="purple" />
<rect x="45" y="400" width="45" height="25" stroke="black" stroke-width="1" fill="purple" />
<rect x="90" y="400" width="45" height="25" stroke="black" stroke-width="1" fill="purple" />
<rect x="135" y="400" width="45" height="25" stroke="black" stroke-width="1" fill="purple" />
<rect x="180" y="400" width="45" height="25" stroke="black" stroke-width="1" fill="purple" />
<rect x="225" y="400" width="45" height="25" stroke="black" stroke-width="1" fill="purple" />
<rect x="270" y="400" width="45" height="25" stroke="black" stroke-width="1" fill="purple" />
<rect x="315" y="400" width="45" height="25" stroke="black" stroke-width="1" fill="purple" />
<rect x="360" y="400" width="45" height="25" stroke="black" stroke-width="1" fill="purple" />
<rect x="405" y="400" width="45" height="25" stroke="black" stroke-width="1" fill="purple" />
<rect x="450" y="400" width="45" height="25" stroke="black" stroke-width="1" fill="purple" />
<rect x="495" y="400" width="45" height="25" stroke="black" stroke-width="1" fill="purple" />
<rect x="540" y="400" width="45" height="25" stroke="black" stroke-width="1" fill="purple" />
<rect x="585" y="400" width="45" height="25" stroke="black" stroke-width="1" fill="purple" />
<rect x="45" y="425" width="45" height="25" stroke="black" stroke-width="1" fill="purple" />
<rect x="90" y="425" width="45" height="25" stroke="black" stroke-width="1" fill="purple" />
<rect x="135" y="425" width="45" height="25" stroke="black" stroke-width="1" fill="purple" />
<rect x="180" y="425" width="45" height="25" stroke="black" stroke-width="1" fill="purple" />
<rect x="225" y="425" width="45" height="25" stroke="black" stroke-width="1" fill="purple" />
<rect x="270" y="425" width="45" height="25" stroke="black" stroke-width="1" fill="purple" />
<rect x="315" y="425" width="45" height="25" stroke="black" stroke-width="1" fill="purple" />
<rect x="360" y="425" width="45" height="25" stroke="black" stroke-width="1" fill="purple" />
<rect x="405" y="425" width="45" height="25" stroke="black" stroke-width="1" fill="purple" />
<rect x="450" y="425" width="45" height="25" stroke="black" stroke-width="1" fill="purple" />
<rect x="495" y="425" width="45" height="25" stroke="black" stroke-width="1" fill="purple" />
<rect x="540" y="425" width="45" height="25" stroke="black" stroke-width="1" fill="purple" />
<rect x="45" y="450" width="45" height="25" stroke="black" stroke-width="1" fill="purple" />
<rect x="90" y="450" width="45" height="25" stroke="black" stroke-width="1" fill="purple" />
<rect x="135" y="450" width="45" height="25" stroke="black" stroke-width="1" fill="purple" />
<rect x="180" y="450" width="45" height="25" stroke="black" stroke-width="1" fill="purple" />
<rect x="225" y="450" width="45" height="25" stroke="black" stroke-width="1" fill="purple" />
<rect x="270" y="450" width="45" height="25" stroke="black" stroke-width="1" fill="purple" />
<rect x="315" y="450" width="45" height="25" stroke="black" stroke-width="1" fill="purple" />
<rect x="360" y="450" width="45" height="25" stroke="black" stroke-width="1" fill="purple" />
<rect x="405" y="450" width="45" height="25" stroke="black" stroke-width="1" fill="purple" />
<rect x="450" y="450" width="45" height="25" stroke="black" stroke-width="1" fill="purple" />
<rect x="495" y="450" width="45" height="25" stroke="black" stroke-width="1" fill="purple" />
<rect x="540" y="450" width="45" height="25" stroke="black" stroke-width="1" fill="purple" />
<rect x="90" y="475" width="45" height="25" stroke="black" stroke-width="1" fill="purple" />
<rect x="135" y="475" width="45" height="25" stroke="black" stroke-width="1" fill="purple" />
<rect x="180" y="475" width="45" height="25" stroke="black" stroke-width="1" fill="purple" />
<rect x="225" y="475" width="45" height="25" stroke="black" stroke-width="1" fill="purple" />
<rect x="270" y="475" width="45" height="25" stroke="black" stroke-width="1" fill="purple" />
<rect x="315" y="475" width="45" height="25" stroke="black" stroke-width="1" fill="purple" />
<rect x="360" y="475" width="45" height="25" stroke="black" stroke-width="1" fill="purple" />
<rect x="405" y="475" width="45" height="25" stroke="black" stroke-width="1" fill="purple" />
<rect x="450" y="475" width="45" height="25" stroke="black" stroke-width="1" fill="purple" />
<rect x="495" y="475" width="45" height="25" stroke="black" stroke-width="1" fill="purple" />
<rect x="540" y="475" width="45" height="25" stroke="black" stroke-width="1" fill="purple" />
<rect x="90" y="500" width="45" height="25" stroke="black" stroke-width="1" fill="purple" />
<rect x="135" y="500" width="45" height="25" stroke="black" stroke-width="1" fill="purple" />
<rect x="180" y="500" width="45" height="25" stroke="black" stroke-width="1" fill="purple" />
<rect x="225" y="500" width="45" height="25" stroke="black" stroke-width="1" fill="purple" />
<rect x="270" y="500" width="45" height="25" stroke="black" stroke-width="1" fill="purple" />
<rect x="315" y="500" width="45" height="25" stroke="black" stroke-width="1" fill="purple" />
<rect x="360" y="500" width="45" height="25" stroke="black" stroke-width="1" fill="purple" />
<rect x="405" y="500" width="45" height="25" stroke="black" stroke-width="1" fill="purple" />
<rect x="450" y="500" width="45" height="25" stroke="black" stroke-width="1" fill="purple" />
<rect x="495" y="500" width="45" height="25" stroke="black" stroke-width="1" fill="purple" />
<rect x="135" y="525" width="45" height="25" stroke="black" stroke-width="1" fill="purple" />
<rect x="180" y="525" width="45" height="25" stroke="black" stroke-width="1" fill="purple" />
<rect x="225" y="525" width="45" height="25" stroke="black" stroke-width="1" fill="purple" />
<rect x="270" y="525" width="45" height="25" stroke="black" stroke-width="1" fill="purple" />
<rect x="315" y="525" width="45" height="25" stroke="black" stroke-width="1" fill="purple" />
<rect x="360" y="525" width="45" height="25" stroke="black" stroke-width="1" fill="purple" />
<rect x="405" y="525" width="45" height="25" stroke="black" stroke-width="1" fill="purple" />
<rect x="450" y="525" width="45" height="25" stroke="black" stroke-width="1" fill="purple" />
<rect x="495" y="525" width="45" height="25" stroke="black" stroke-width="1" fill="purple" />
<rect x="135" y="550" width="45" height="25" stroke="black" stroke-width="1" fill="purple" />
<rect x="180" y="550" width="45" height="25" stroke="black" stroke-width="1" fill="purple" />
<rect x="225" y="550" width="45" height="25" stroke="black" stroke-width="1" fill="purple" />
<rect x="270" y="550" width="45" height="25" stroke="black" stroke-width="1" fill="purple" />
<rect x="315" y="550" width="45" height="25" stroke="black" stroke-width="1" fill="purple" />
<rect x="360" y="550" width="45" height="25" stroke="black" stroke-width="1" fill="purple" />
<rect x="405" y="550" width="45" height="25" stroke="black" stroke-width="1" fill="purple" />
<rect x="450" y="550" width="45" height="25" stroke="black" stroke-width="1" fill="purple" />
<rect x="180" y="575" width="45" height="25" stroke="black" stroke-width="1" fill="purple" />
<rect x="225" y="575" width="45" height="25" stroke="black" stroke-width="1" fill="purple" />
<rect x="270" y="575" width="45" height="25" stroke="black" stroke-width="1" fill="purple" />
<rect x="315" y="575" width="45" height="25" stroke="black" stroke-width="1" fill="purple" />
<rect x="360" y="575" width="45" height="25" stroke="black" stroke-width="1" fill="purple" />
<rect x="405" y="575" width="45" height="25" stroke="black" stroke-width="1" fill="purple" />
<rect x="450" y="575" width="45" height="25" stroke="black" stroke-width="1" fill="purple" />
<rect x="225" y="600" width="45" height="25" stroke="black" stroke-width="1" fill="purple" />
<rect x="270" y="600" width="45" height="25" stroke="black" stroke-width="1" fill="purple" />
<rect x="315" y="600" width="45" height="25" stroke="black" stroke-width="1" fill="purple" />
<rect x="360" y="600" width="45" height="25" stroke="black" stroke-width="1" fill="purple" />
<rect x="405" y="600" width="45" height="25" stroke="black" stroke-width="1" fill="purple" />
</svg>
