<svg version="1.1" 
baseProfile="full"
width="910" height="910"
xmlns="http://www.w3.org/2000/svg">
<circle cx="455" cy="455" r="455" stroke="black" stroke-width="1" fill="blue" />
<polygon points="252,48.4974 224,96.9948 280,96.9948"
stroke="black" stroke-width="1" fill="purple" />
<polygon points="308,48.4974 280,96.9948 336,96.9948"
stroke="black" stroke-width="1" fill="purple" />
<polygon points="364,48.4974 336,96.9948 392,96.9948"
stroke="black" stroke-width="1" fill="purple" />
<polygon points="420,48.4974 392,96.9948 448,96.9948"
stroke="black" stroke-width="1" fill="purple" />
<polygon points="476,48.4974 448,96.9948 504,96.9948"
stroke="black" stroke-width="1" fill="purple" />
<polygon points="532,48.4974 504,96.9948 560,96.9948"
stroke="black" stroke-width="1" fill="purple" />
<polygon points="588,48.4974 560,96.9948 616,96.9948"
stroke="black" stroke-width="1" fill="purple" />
<polygon points="644,48.4974 616,96.9948 672,96.9948"
stroke="black" stroke-width="1" fill="purple" />
<polygon points="196,96.9948 168,145.492 224,145.492"
stroke="black" stroke-width="1" fill="purple" />
<polygon points="252,96.9948 224,145.492 280,145.492"
stroke="black" stroke-width="1" fill="purple" />
<polygon points="308,96.9948 280,145.492 336,145.492"
stroke="black" stroke-width="1" fill="purple" />
<polygon points="364,96.9948 336,145.492 392,145.492"
stroke="black" stroke-width="1" fill="purple" />
<polygon points="420,96.9948 392,145.492 448,145.492"
stroke="black" stroke-width="1" fill="purple" />
<polygon points="476,96.9948 448,145.492 504,145.492"
stroke="black" stroke-width="1" fill="purple" />
<polygon points="532,96.9948 504,145.492 560,145.492"
stroke="black" stroke-width="1" fill="purple" />
<polygon points="588,96.9948 560,145.492 616,145.492"
stroke="black" stroke-width="1" fill="purple" />
<polygon points="644,96.9948 616,145.492 672,145.492"
stroke="black" stroke-width="1" fill="purple" />
<polygon points="700,96.9948 672,145.492 728,145.492"
stroke="black" stroke-width="1" fill="purple" />
<polygon points="140,145.492 112,193.99 168,193.99"
stroke="black" stroke-width="1" fill="purple" />
<polygon points="196,145.492 168,193.99 224,193.99"
stroke="black" stroke-width="1" fill="purple" />
<polygon points="252,145.492 224,193.99 280,193.99"
stroke="black" stroke-width="1" fill="purple" />
<polygon points="308,145.492 280,193.99 336,193.99"
stroke="black" stroke-width="1" fill="purple" />
<polygon points="364,145.492 336,193.99 392,193.99"
stroke="black" stroke-width="1" fill="purple" />
<polygon points="420,145.492 392,193.99 448,193.99"
stroke="black" stroke-width="1" fill="purple" />
<polygon points="476,145.492 448,193.99 504,193.99"
stroke="black" stroke-width="1" fill="purple" />
<polygon points="532,145.492 504,193.99 560,193.99"
stroke="black" stroke-width="1" fill="purple" />
<polygon points="588,145.492 560,193.99 616,193.99"
stroke="black" stroke-width="1" fill="purple" />
<polygon points="644,145.492 616,193.99 672,193.99"
stroke="black" stroke-width="1" fill="purple" />
<polygon points="700,145.492 672,193.99 728,193.99"
stroke="black" stroke-width="1" fill="purple" />
<polygon points="756,145.492 728,193.99 784,193.99"
stroke="black" stroke-width="1" fill="purple" />
<polygon points="84,193.99 56,242.487 112,242.487"
stroke="black" stroke-width="1" fill="purple" />
<polygon points="140,193.99 112,242.487 168,242.487"
stroke="black" stroke-width="1" fill="purple" />
<polygon points="196,193.99 168,242.487 224,242.487"
stroke="black" stroke-width="1" fill="purple" />
<polygon points="252,193.99 224,242.487 280,242.487"
stroke="black" stroke-width="1" fill="purple" />
<polygon points="308,193.99 280,242.487 336,242.487"
stroke="black" stroke-width="1" fill="purple" />
<polygon points="364,193.99 336,242.487 392,242.487"
stroke="black" stroke-width="1" fill="purple" />
<polygon points="420,193.99 392,242.487 448,242.487"
stroke="black" stroke-width="1" fill="purple" />
<polygon points="476,193.99 448,242.487 504,242.487"
stroke="black" stroke-width="1" fill="purple" />
<polygon points="532,193.99 504,242.487 560,242.487"
stroke="black" stroke-width="1" fill="purple" />
<polygon points="588,193.99 560,242.487 616,242.487"
stroke="black" stroke-width="1" fill="purple" />
<polygon points="644,193.99 616,242.487 672,242.487"
stroke="black" stroke-width="1" fill="purple" />
<polygon points="700,193.99 672,242.487 728,242.487"
stroke="black" stroke-width="1" fill="purple" />
<polygon points="756,193.99 728,242.487 784,242.487"
stroke="black" stroke-width="1" fill="purple" />
<polygon points="812,193.99 784,242.487 840,242.487"
stroke="black" stroke-width="1" fill="purple" />
<polygon points="84,242.487 56,290.985 112,290.985"
stroke="black" stroke-width="1" fill="purple" />
<polygon points="140,242.487 112,290.985 168,290.985"
stroke="black" stroke-width="1" fill="purple" />
<polygon points="196,242.487 168,290.985 224,290.985"
stroke="black" stroke-width="1" fill="purple" />
<polygon points="252,242.487 224,290.985 280,290.985"
stroke="black" stroke-width="1" fill="purple" />
<polygon points="308,242.487 280,290.985 336,290.985"
stroke="black" stroke-width="1" fill="purple" />
<polygon points="364,242.487 336,290.985 392,290.985"
stroke="black" stroke-width="1" fill="purple" />
<polygon points="420,242.487 392,290.985 448,290.985"
stroke="black" stroke-width="1" fill="purple" />
<polygon points="476,242.487 448,290.985 504,290.985"
stroke="black" stroke-width="1" fill="purple" />
<polygon points="532,242.487 504,290.985 560,290.985"
stroke="black" stroke-width="1" fill="purple" />
<polygon points="588,242.487 560,290.985 616,290.985"
stroke="black" stroke-width="1" fill="purple" />
<polygon points="644,242.487 616,290.985 672,290.985"
stroke="black" stroke-width="1" fill="purple" />
<polygon points="700,242.487 672,290.985 728,290.985"
stroke="black" stroke-width="1" fill="purple" />
<polygon points="756,242.487 728,290.985 784,290.985"
stroke="black" stroke-width="1" fill="purple" />
<polygon points="812,242.487 784,290.985 840,290.985"
stroke="black" stroke-width="1" fill="purple" />
<polygon points="84,290.985 56,339.482 112,339.482"
stroke="black" stroke-width="1" fill="purple" />
<polygon points="140,290.985 112,339.482 168,339.482"
stroke="black" stroke-width="1" fill="purple" />
<polygon points="196,290.985 168,339.482 224,339.482"
stroke="black" stroke-width="1" fill="purple" />
<polygon points="252,290.985 224,339.482 280,339.482"
stroke="black" stroke-width="1" fill="purple" />
<polygon points="308,290.985 280,339.482 336,339.482"
stroke="black" stroke-width="1" fill="purple" />
<polygon points="364,290.985 336,339.482 392,339.482"
stroke="black" stroke-width="1" fill="purple" />
<polygon points="420,290.985 392,339.482 448,339.482"
stroke="black" stroke-width="1" fill="purple" />
<polygon points="476,290.985 448,339.482 504,339.482"
stroke="black" stroke-width="1" fill="purple" />
<polygon points="532,290.985 504,339.482 560,339.482"
stroke="black" stroke-width="1" fill="purple" />
<polygon points="588,290.985 560,339.482 616,339.482"
stroke="black" stroke-width="1" fill="purple" />
<polygon points="644,290.985 616,339.482 672,339.482"
stroke="black" stroke-width="1" fill="purple" />
<polygon points="700,290.985 672,339.482 728,339.482"
stroke="black" stroke-width="1" fill="purple" />
<polygon points="756,290.985 728,339.482 784,339.482"
stroke="black" stroke-width="1" fill="purple" />
<polygon points="812,290.985 784,339.482 840,339.482"
stroke="black" stroke-width="1" fill="purple" />
<polygon points="84,339.482 56,387.979 112,387.979"
stroke="black" stroke-width="1" fill="purple" />
<polygon points="140,339.482 112,387.979 168,387.979"
stroke="black" stroke-width="1" fill="purple" />
<polygon points="196,339.482 168,387.979 224,387.979"
stroke="black" stroke-width="1" fill="purple" />
<polygon points="252,339.482 224,387.979 280,387.979"
stroke="black" stroke-width="1" fill="purple" />
<polygon points="308,339.482 280,387.979 336,387.979"
stroke="black" stroke-width="1" fill="purple" />
<polygon points="364,339.482 336,387.979 392,387.979"
stroke="black" stroke-width="1" fill="purple" />
<polygon points="420,339.482 392,387.979 448,387.979"
stroke="black" stroke-width="1" fill="purple" />
<polygon points="476,339.482 448,387.979 504,387.979"
stroke="black" stroke-width="1" fill="purple" />
<polygon points="532,339.482 504,387.979 560,387.979"
stroke="black" stroke-width="1" fill="purple" />
<polygon points="588,339.482 560,387.979 616,387.979"
stroke="black" stroke-width="1" fill="purple" />
<polygon points="644,339.482 616,387.979 672,387.979"
stroke="black" stroke-width="1" fill="purple" />
<polygon points="700,339.482 672,387.979 728,387.979"
stroke="black" stroke-width="1" fill="purple" />
<polygon points="756,339.482 728,387.979 784,387.979"
stroke="black" stroke-width="1" fill="purple" />
<polygon points="812,339.482 784,387.979 840,387.979"
stroke="black" stroke-width="1" fill="purple" />
<polygon points="868,339.482 840,387.979 896,387.979"
stroke="black" stroke-width="1" fill="purple" />
<polygon points="84,387.979 56,436.477 112,436.477"
stroke="black" stroke-width="1" fill="purple" />
<polygon points="140,387.979 112,436.477 168,436.477"
stroke="black" stroke-width="1" fill="purple" />
<polygon points="196,387.979 168,436.477 224,436.477"
stroke="black" stroke-width="1" fill="purple" />
<polygon points="252,387.979 224,436.477 280,436.477"
stroke="black" stroke-width="1" fill="purple" />
<polygon points="308,387.979 280,436.477 336,436.477"
stroke="black" stroke-width="1" fill="purple" />
<polygon points="364,387.979 336,436.477 392,436.477"
stroke="black" stroke-width="1" fill="purple" />
<polygon points="420,387.979 392,436.477 448,436.477"
stroke="black" stroke-width="1" fill="purple" />
<polygon points="476,387.979 448,436.477 504,436.477"
stroke="black" stroke-width="1" fill="purple" />
<polygon points="532,387.979 504,436.477 560,436.477"
stroke="black" stroke-width="1" fill="purple" />
<polygon points="588,387.979 560,436.477 616,436.477"
stroke="black" stroke-width="1" fill="purple" />
<polygon points="644,387.979 616,436.477 672,436.477"
stroke="black" stroke-width="1" fill="purple" />
<polygon points="700,387.979 672,436.477 728,436.477"
stroke="black" stroke-width="1" fill="purple" />
<polygon points="756,387.979 728,436.477 784,436.477"
stroke="black" stroke-width="1" fill="purple" />
<polygon points="812,387.979 784,436.477 840,436.477"
stroke="black" stroke-width="1" fill="purple" />
<polygon points="868,387.979 840,436.477 896,436.477"
stroke="black" stroke-width="1" fill="purple" />
<polygon points="84,436.477 56,484.974 112,484.974"
stroke="black" stroke-width="1" fill="purple" />
<polygon points="140,436.477 112,484.974 168,484.974"
stroke="black" stroke-width="1" fill="purple" />
<polygon points="196,436.477 168,484.974 224,484.974"
stroke="black" stroke-width="1" fill="purple" />
<polygon points="252,436.477 224,484.974 280,484.974"
stroke="black" stroke-width="1" fill="purple" />
<polygon points="308,436.477 280,484.974 336,484.974"
stroke="black" stroke-width="1" fill="purple" />
<polygon points="364,436.477 336,484.974 392,484.974"
stroke="black" stroke-width="1" fill="purple" />
<polygon points="420,436.477 392,484.974 448,484.974"
stroke="black" stroke-width="1" fill="purple" />
<polygon points="476,436.477 448,484.974 504,484.974"
stroke="black" stroke-width="1" fill="purple" />
<polygon points="532,436.477 504,484.974 560,484.974"
stroke="black" stroke-width="1" fill="purple" />
<polygon points="588,436.477 560,484.974 616,484.974"
stroke="black" stroke-width="1" fill="purple" />
<polygon points="644,436.477 616,484.974 672,484.974"
stroke="black" stroke-width="1" fill="purple" />
<polygon points="700,436.477 672,484.974 728,484.974"
stroke="black" stroke-width="1" fill="purple" />
<polygon points="756,436.477 728,484.974 784,484.974"
stroke="black" stroke-width="1" fill="purple" />
<polygon points="812,436.477 784,484.974 840,484.974"
stroke="black" stroke-width="1" fill="purple" />
<polygon points="868,436.477 840,484.974 896,484.974"
stroke="black" stroke-width="1" fill="purple" />
<polygon points="84,484.974 56,533.472 112,533.472"
stroke="black" stroke-width="1" fill="purple" />
<polygon points="140,484.974 112,533.472 168,533.472"
stroke="black" stroke-width="1" fill="purple" />
<polygon points="196,484.974 168,533.472 224,533.472"
stroke="black" stroke-width="1" fill="purple" />
<polygon points="252,484.974 224,533.472 280,533.472"
stroke="black" stroke-width="1" fill="purple" />
<polygon points="308,484.974 280,533.472 336,533.472"
stroke="black" stroke-width="1" fill="purple" />
<polygon points="364,484.974 336,533.472 392,533.472"
stroke="black" stroke-width="1" fill="purple" />
<polygon points="420,484.974 392,533.472 448,533.472"
stroke="black" stroke-width="1" fill="purple" />
<polygon points="476,484.974 448,533.472 504,533.472"
stroke="black" stroke-width="1" fill="purple" />
<polygon points="532,484.974 504,533.472 560,533.472"
stroke="black" stroke-width="1" fill="purple" />
<polygon points="588,484.974 560,533.472 616,533.472"
stroke="black" stroke-width="1" fill="purple" />
<polygon points="644,484.974 616,533.472 672,533.472"
stroke="black" stroke-width="1" fill="purple" />
<polygon points="700,484.974 672,533.472 728,533.472"
stroke="black" stroke-width="1" fill="purple" />
<polygon points="756,484.974 728,533.472 784,533.472"
stroke="black" stroke-width="1" fill="purple" />
<polygon points="812,484.974 784,533.472 840,533.472"
stroke="black" stroke-width="1" fill="purple" />
<polygon points="868,484.974 840,533.472 896,533.472"
stroke="black" stroke-width="1" fill="purple" />
<polygon points="84,533.472 56,581.969 112,581.969"
stroke="black" stroke-width="1" fill="purple" />
<polygon points="140,533.472 112,581.969 168,581.969"
stroke="black" stroke-width="1" fill="purple" />
<polygon points="196,533.472 168,581.969 224,581.969"
stroke="black" stroke-width="1" fill="purple" />
<polygon points="252,533.472 224,581.969 280,581.969"
stroke="black" stroke-width="1" fill="purple" />
<polygon points="308,533.472 280,581.969 336,581.969"
stroke="black" stroke-width="1" fill="purple" />
<polygon points="364,533.472 336,581.969 392,581.969"
stroke="black" stroke-width="1" fill="purple" />
<polygon points="420,533.472 392,581.969 448,581.969"
stroke="black" stroke-width="1" fill="purple" />
<polygon points="476,533.472 448,581.969 504,581.969"
stroke="black" stroke-width="1" fill="purple" />
<polygon points="532,533.472 504,581.969 560,581.969"
stroke="black" stroke-width="1" fill="purple" />
<polygon points="588,533.472 560,581.969 616,581.969"
stroke="black" stroke-width="1" fill="purple" />
<polygon points="644,533.472 616,581.969 672,581.969"
stroke="black" stroke-width="1" fill="purple" />
<polygon points="700,533.472 672,581.969 728,581.969"
stroke="black" stroke-width="1" fill="purple" />
<polygon points="756,533.472 728,581.969 784,581.969"
stroke="black" stroke-width="1" fill="purple" />
<polygon points="812,533.472 784,581.969 840,581.969"
stroke="black" stroke-width="1" fill="purple" />
<polygon points="84,581.969 56,630.466 112,630.466"
stroke="black" stroke-width="1" fill="purple" />
<polygon points="140,581.969 112,630.466 168,630.466"
stroke="black" stroke-width="1" fill="purple" />
<polygon points="196,581.969 168,630.466 224,630.466"
stroke="black" stroke-width="1" fill="purple" />
<polygon points="252,581.969 224,630.466 280,630.466"
stroke="black" stroke-width="1" fill="purple" />
<polygon points="308,581.969 280,630.466 336,630.466"
stroke="black" stroke-width="1" fill="purple" />
<polygon points="364,581.969 336,630.466 392,630.466"
stroke="black" stroke-width="1" fill="purple" />
<polygon points="420,581.969 392,630.466 448,630.466"
stroke="black" stroke-width="1" fill="purple" />
<polygon points="476,581.969 448,630.466 504,630.466"
stroke="black" stroke-width="1" fill="purple" />
<polygon points="532,581.969 504,630.466 560,630.466"
stroke="black" stroke-width="1" fill="purple" />
<polygon points="588,581.969 560,630.466 616,630.466"
stroke="black" stroke-width="1" fill="purple" />
<polygon points="644,581.969 616,630.466 672,630.466"
stroke="black" stroke-width="1" fill="purple" />
<polygon points="700,581.969 672,630.466 728,630.466"
stroke="black" stroke-width="1" fill="purple" />
<polygon points="756,581.969 728,630.466 784,630.466"
stroke="black" stroke-width="1" fill="purple" />
<polygon points="812,581.969 784,630.466 840,630.466"
stroke="black" stroke-width="1" fill="purple" />
<polygon points="140,630.466 112,678.964 168,678.964"
stroke="black" stroke-width="1" fill="purple" />
<polygon points="196,630.466 168,678.964 224,678.964"
stroke="black" stroke-width="1" fill="purple" />
<polygon points="252,630.466 224,678.964 280,678.964"
stroke="black" stroke-width="1" fill="purple" />
<polygon points="308,630.466 280,678.964 336,678.964"
stroke="black" stroke-width="1" fill="purple" />
<polygon points="364,630.466 336,678.964 392,678.964"
stroke="black" stroke-width="1" fill="purple" />
<polygon points="420,630.466 392,678.964 448,678.964"
stroke="black" stroke-width="1" fill="purple" />
<polygon points="476,630.466 448,678.964 504,678.964"
stroke="black" stroke-width="1" fill="purple" />
<polygon points="532,630.466 504,678.964 560,678.964"
stroke="black" stroke-width="1" fill="purple" />
<polygon points="588,630.466 560,678.964 616,678.964"
stroke="black" stroke-width="1" fill="purple" />
<polygon points="644,630.466 616,678.964 672,678.964"
stroke="black" stroke-width="1" fill="purple" />
<polygon points="700,630.466 672,678.964 728,678.964"
stroke="black" stroke-width="1" fill="purple" />
<polygon points="756,630.466 728,678.964 784,678.964"
stroke="black" stroke-width="1" fill="purple" />
<polygon points="812,630.466 784,678.964 840,678.964"
stroke="black" stroke-width="1" fill="purple" />
<polygon points="140,678.964 112,727.461 168,727.461"
stroke="black" stroke-width="1" fill="purple" />
<polygon points="196,678.964 168,727.461 224,727.461"
stroke="black" stroke-width="1" fill="purple" />
<polygon points="252,678.964 224,727.461 280,727.461"
stroke="black" stroke-width="1" fill="purple" />
<polygon points="308,678.964 280,727.461 336,727.461"
stroke="black" stroke-width="1" fill="purple" />
<polygon points="364,678.964 336,727.461 392,727.461"
stroke="black" stroke-width="1" fill="purple" />
<polygon points="420,678.964 392,727.461 448,727.461"
stroke="black" stroke-width="1" fill="purple" />
<polygon points="476,678.964 448,727.461 504,727.461"
stroke="black" stroke-width="1" fill="purple" />
<polygon points="532,678.964 504,727.461 560,727.461"
stroke="black" stroke-width="1" fill="purple" />
<polygon points="588,678.964 560,727.461 616,727.461"
stroke="black" stroke-width="1" fill="purple" />
<polygon points="644,678.964 616,727.461 672,727.461"
stroke="black" stroke-width="1" fill="purple" />
<polygon points="700,678.964 672,727.461 728,727.461"
stroke="black" stroke-width="1" fill="purple" />
<polygon points="756,678.964 728,727.461 784,727.461"
stroke="black" stroke-width="1" fill="purple" />
<polygon points="196,727.461 168,775.959 224,775.959"
stroke="black" stroke-width="1" fill="purple" />
<polygon points="252,727.461 224,775.959 280,775.959"
stroke="black" stroke-width="1" fill="purple" />
<polygon points="308,727.461 280,775.959 336,775.959"
stroke="black" stroke-width="1" fill="purple" />
<polygon points="364,727.461 336,775.959 392,775.959"
stroke="black" stroke-width="1" fill="purple" />
<polygon points="420,727.461 392,775.959 448,775.959"
stroke="black" stroke-width="1" fill="purple" />
<polygon points="476,727.461 448,775.959 504,775.959"
stroke="black" stroke-width="1" fill="purple" />
<polygon points="532,727.461 504,775.959 560,775.959"
stroke="black" stroke-width="1" fill="purple" />
<polygon points="588,727.461 560,775.959 616,775.959"
stroke="black" stroke-width="1" fill="purple" />
<polygon points="644,727.461 616,775.959 672,775.959"
stroke="black" stroke-width="1" fill="purple" />
<polygon points="700,727.461 672,775.959 728,775.959"
stroke="black" stroke-width="1" fill="purple" />
<polygon points="252,775.959 224,824.456 280,824.456"
stroke="black" stroke-width="1" fill="purple" />
<polygon points="308,775.959 280,824.456 336,824.456"
stroke="black" stroke-width="1" fill="purple" />
<polygon points="364,775.959 336,824.456 392,824.456"
stroke="black" stroke-width="1" fill="purple" />
<polygon points="420,775.959 392,824.456 448,824.456"
stroke="black" stroke-width="1" fill="purple" />
<polygon points="476,775.959 448,824.456 504,824.456"
stroke="black" stroke-width="1" fill="purple" />
<polygon points="532,775.959 504,824.456 560,824.456"
stroke="black" stroke-width="1" fill="purple" />
<polygon points="588,775.959 560,824.456 616,824.456"
stroke="black" stroke-width="1" fill="purple" />
<polygon points="644,775.959 616,824.456 672,824.456"
stroke="black" stroke-width="1" fill="purple" />
<polygon points="308,824.456 280,872.954 336,872.954"
stroke="black" stroke-width="1" fill="purple" />
<polygon points="364,824.456 336,872.954 392,872.954"
stroke="black" stroke-width="1" fill="purple" />
<polygon points="420,824.456 392,872.954 448,872.954"
stroke="black" stroke-width="1" fill="purple" />
<polygon points="476,824.456 448,872.954 504,872.954"
stroke="black" stroke-width="1" fill="purple" />
<polygon points="532,824.456 504,872.954 560,872.954"
stroke="black" stroke-width="1" fill="purple" />
<polygon points="588,824.456 560,872.954 616,872.954"
stroke="black" stroke-width="1" fill="purple" />
<polygon points="280,96.9948 252,48.4974 308,48.4974"
stroke="black" stroke-width="1" fill="purple" />
<polygon points="336,96.9948 308,48.4974 364,48.4974"
stroke="black" stroke-width="1" fill="purple" />
<polygon points="392,96.9948 364,48.4974 420,48.4974"
stroke="black" stroke-width="1" fill="purple" />
<polygon points="448,96.9948 420,48.4974 476,48.4974"
stroke="black" stroke-width="1" fill="purple" />
<polygon points="504,96.9948 476,48.4974 532,48.4974"
stroke="black" stroke-width="1" fill="purple" />
<polygon points="560,96.9948 532,48.4974 588,48.4974"
stroke="black" stroke-width="1" fill="purple" />
<polygon points="616,96.9948 588,48.4974 644,48.4974"
stroke="black" stroke-width="1" fill="purple" />
<polygon points="224,145.492 196,96.9948 252,96.9948"
stroke="black" stroke-width="1" fill="purple" />
<polygon points="280,145.492 252,96.9948 308,96.9948"
stroke="black" stroke-width="1" fill="purple" />
<polygon points="336,145.492 308,96.9948 364,96.9948"
stroke="black" stroke-width="1" fill="purple" />
<polygon points="392,145.492 364,96.9948 420,96.9948"
stroke="black" stroke-width="1" fill="purple" />
<polygon points="448,145.492 420,96.9948 476,96.9948"
stroke="black" stroke-width="1" fill="purple" />
<polygon points="504,145.492 476,96.9948 532,96.9948"
stroke="black" stroke-width="1" fill="purple" />
<polygon points="560,145.492 532,96.9948 588,96.9948"
stroke="black" stroke-width="1" fill="purple" />
<polygon points="616,145.492 588,96.9948 644,96.9948"
stroke="black" stroke-width="1" fill="purple" />
<polygon points="672,145.492 644,96.9948 700,96.9948"
stroke="black" stroke-width="1" fill="purple" />
<polygon points="168,193.99 140,145.492 196,145.492"
stroke="black" stroke-width="1" fill="purple" />
<polygon points="224,193.99 196,145.492 252,145.492"
stroke="black" stroke-width="1" fill="purple" />
<polygon points="280,193.99 252,145.492 308,145.492"
stroke="black" stroke-width="1" fill="purple" />
<polygon points="336,193.99 308,145.492 364,145.492"
stroke="black" stroke-width="1" fill="purple" />
<polygon points="392,193.99 364,145.492 420,145.492"
stroke="black" stroke-width="1" fill="purple" />
<polygon points="448,193.99 420,145.492 476,145.492"
stroke="black" stroke-width="1" fill="purple" />
<polygon points="504,193.99 476,145.492 532,145.492"
stroke="black" stroke-width="1" fill="purple" />
<polygon points="560,193.99 532,145.492 588,145.492"
stroke="black" stroke-width="1" fill="purple" />
<polygon points="616,193.99 588,145.492 644,145.492"
stroke="black" stroke-width="1" fill="purple" />
<polygon points="672,193.99 644,145.492 700,145.492"
stroke="black" stroke-width="1" fill="purple" />
<polygon points="728,193.99 700,145.492 756,145.492"
stroke="black" stroke-width="1" fill="purple" />
<polygon points="112,242.487 84,193.99 140,193.99"
stroke="black" stroke-width="1" fill="purple" />
<polygon points="168,242.487 140,193.99 196,193.99"
stroke="black" stroke-width="1" fill="purple" />
<polygon points="224,242.487 196,193.99 252,193.99"
stroke="black" stroke-width="1" fill="purple" />
<polygon points="280,242.487 252,193.99 308,193.99"
stroke="black" stroke-width="1" fill="purple" />
<polygon points="336,242.487 308,193.99 364,193.99"
stroke="black" stroke-width="1" fill="purple" />
<polygon points="392,242.487 364,193.99 420,193.99"
stroke="black" stroke-width="1" fill="purple" />
<polygon points="448,242.487 420,193.99 476,193.99"
stroke="black" stroke-width="1" fill="purple" />
<polygon points="504,242.487 476,193.99 532,193.99"
stroke="black" stroke-width="1" fill="purple" />
<polygon points="560,242.487 532,193.99 588,193.99"
stroke="black" stroke-width="1" fill="purple" />
<polygon points="616,242.487 588,193.99 644,193.99"
stroke="black" stroke-width="1" fill="purple" />
<polygon points="672,242.487 644,193.99 700,193.99"
stroke="black" stroke-width="1" fill="purple" />
<polygon points="728,242.487 700,193.99 756,193.99"
stroke="black" stroke-width="1" fill="purple" />
<polygon points="784,242.487 756,193.99 812,193.99"
stroke="black" stroke-width="1" fill="purple" />
<polygon points="112,290.985 84,242.487 140,242.487"
stroke="black" stroke-width="1" fill="purple" />
<polygon points="168,290.985 140,242.487 196,242.487"
stroke="black" stroke-width="1" fill="purple" />
<polygon points="224,290.985 196,242.487 252,242.487"
stroke="black" stroke-width="1" fill="purple" />
<polygon points="280,290.985 252,242.487 308,242.487"
stroke="black" stroke-width="1" fill="purple" />
<polygon points="336,290.985 308,242.487 364,242.487"
stroke="black" stroke-width="1" fill="purple" />
<polygon points="392,290.985 364,242.487 420,242.487"
stroke="black" stroke-width="1" fill="purple" />
<polygon points="448,290.985 420,242.487 476,242.487"
stroke="black" stroke-width="1" fill="purple" />
<polygon points="504,290.985 476,242.487 532,242.487"
stroke="black" stroke-width="1" fill="purple" />
<polygon points="560,290.985 532,242.487 588,242.487"
stroke="black" stroke-width="1" fill="purple" />
<polygon points="616,290.985 588,242.487 644,242.487"
stroke="black" stroke-width="1" fill="purple" />
<polygon points="672,290.985 644,242.487 700,242.487"
stroke="black" stroke-width="1" fill="purple" />
<polygon points="728,290.985 700,242.487 756,242.487"
stroke="black" stroke-width="1" fill="purple" />
<polygon points="784,290.985 756,242.487 812,242.487"
stroke="black" stroke-width="1" fill="purple" />
<polygon points="112,339.482 84,290.985 140,290.985"
stroke="black" stroke-width="1" fill="purple" />
<polygon points="168,339.482 140,290.985 196,290.985"
stroke="black" stroke-width="1" fill="purple" />
<polygon points="224,339.482 196,290.985 252,290.985"
stroke="black" stroke-width="1" fill="purple" />
<polygon points="280,339.482 252,290.985 308,290.985"
stroke="black" stroke-width="1" fill="purple" />
<polygon points="336,339.482 308,290.985 364,290.985"
stroke="black" stroke-width="1" fill="purple" />
<polygon points="392,339.482 364,290.985 420,290.985"
stroke="black" stroke-width="1" fill="purple" />
<polygon points="448,339.482 420,290.985 476,290.985"
stroke="black" stroke-width="1" fill="purple" />
<polygon points="504,339.482 476,290.985 532,290.985"
stroke="black" stroke-width="1" fill="purple" />
<polygon points="560,339.482 532,290.985 588,290.985"
stroke="black" stroke-width="1" fill="purple" />
<polygon points="616,339.482 588,290.985 644,290.985"
stroke="black" stroke-width="1" fill="purple" />
<polygon points="672,339.482 644,290.985 700,290.985"
stroke="black" stroke-width="1" fill="purple" />
<polygon points="728,339.482 700,290.985 756,290.985"
stroke="black" stroke-width="1" fill="purple" />
<polygon points="784,339.482 756,290.985 812,290.985"
stroke="black" stroke-width="1" fill="purple" />
<polygon points="840,339.482 812,290.985 868,290.985"
stroke="black" stroke-width="1" fill="purple" />
<polygon points="56,387.979 28,339.482 84,339.482"
stroke="black" stroke-width="1" fill="purple" />
<polygon points="112,387.979 84,339.482 140,339.482"
stroke="black" stroke-width="1" fill="purple" />
<polygon points="168,387.979 140,339.482 196,339.482"
stroke="black" stroke-width="1" fill="purple" />
<polygon points="224,387.979 196,339.482 252,339.482"
stroke="black" stroke-width="1" fill="purple" />
<polygon points="280,387.979 252,339.482 308,339.482"
stroke="black" stroke-width="1" fill="purple" />
<polygon points="336,387.979 308,339.482 364,339.482"
stroke="black" stroke-width="1" fill="purple" />
<polygon points="392,387.979 364,339.482 420,339.482"
stroke="black" stroke-width="1" fill="purple" />
<polygon points="448,387.979 420,339.482 476,339.482"
stroke="black" stroke-width="1" fill="purple" />
<polygon points="504,387.979 476,339.482 532,339.482"
stroke="black" stroke-width="1" fill="purple" />
<polygon points="560,387.979 532,339.482 588,339.482"
stroke="black" stroke-width="1" fill="purple" />
<polygon points="616,387.979 588,339.482 644,339.482"
stroke="black" stroke-width="1" fill="purple" />
<polygon points="672,387.979 644,339.482 700,339.482"
stroke="black" stroke-width="1" fill="purple" />
<polygon points="728,387.979 700,339.482 756,339.482"
stroke="black" stroke-width="1" fill="purple" />
<polygon points="784,387.979 756,339.482 812,339.482"
stroke="black" stroke-width="1" fill="purple" />
<polygon points="840,387.979 812,339.482 868,339.482"
stroke="black" stroke-width="1" fill="purple" />
<polygon points="56,436.477 28,387.979 84,387.979"
stroke="black" stroke-width="1" fill="purple" />
<polygon points="112,436.477 84,387.979 140,387.979"
stroke="black" stroke-width="1" fill="purple" />
<polygon points="168,436.477 140,387.979 196,387.979"
stroke="black" stroke-width="1" fill="purple" />
<polygon points="224,436.477 196,387.979 252,387.979"
stroke="black" stroke-width="1" fill="purple" />
<polygon points="280,436.477 252,387.979 308,387.979"
stroke="black" stroke-width="1" fill="purple" />
<polygon points="336,436.477 308,387.979 364,387.979"
stroke="black" stroke-width="1" fill="purple" />
<polygon points="392,436.477 364,387.979 420,387.979"
stroke="black" stroke-width="1" fill="purple" />
<polygon points="448,436.477 420,387.979 476,387.979"
stroke="black" stroke-width="1" fill="purple" />
<polygon points="504,436.477 476,387.979 532,387.979"
stroke="black" stroke-width="1" fill="purple" />
<polygon points="560,436.477 532,387.979 588,387.979"
stroke="black" stroke-width="1" fill="purple" />
<polygon points="616,436.477 588,387.979 644,387.979"
stroke="black" stroke-width="1" fill="purple" />
<polygon points="672,436.477 644,387.979 700,387.979"
stroke="black" stroke-width="1" fill="purple" />
<polygon points="728,436.477 700,387.979 756,387.979"
stroke="black" stroke-width="1" fill="purple" />
<polygon points="784,436.477 756,387.979 812,387.979"
stroke="black" stroke-width="1" fill="purple" />
<polygon points="840,436.477 812,387.979 868,387.979"
stroke="black" stroke-width="1" fill="purple" />
<polygon points="56,484.974 28,436.477 84,436.477"
stroke="black" stroke-width="1" fill="purple" />
<polygon points="112,484.974 84,436.477 140,436.477"
stroke="black" stroke-width="1" fill="purple" />
<polygon points="168,484.974 140,436.477 196,436.477"
stroke="black" stroke-width="1" fill="purple" />
<polygon points="224,484.974 196,436.477 252,436.477"
stroke="black" stroke-width="1" fill="purple" />
<polygon points="280,484.974 252,436.477 308,436.477"
stroke="black" stroke-width="1" fill="purple" />
<polygon points="336,484.974 308,436.477 364,436.477"
stroke="black" stroke-width="1" fill="purple" />
<polygon points="392,484.974 364,436.477 420,436.477"
stroke="black" stroke-width="1" fill="purple" />
<polygon points="448,484.974 420,436.477 476,436.477"
stroke="black" stroke-width="1" fill="purple" />
<polygon points="504,484.974 476,436.477 532,436.477"
stroke="black" stroke-width="1" fill="purple" />
<polygon points="560,484.974 532,436.477 588,436.477"
stroke="black" stroke-width="1" fill="purple" />
<polygon points="616,484.974 588,436.477 644,436.477"
stroke="black" stroke-width="1" fill="purple" />
<polygon points="672,484.974 644,436.477 700,436.477"
stroke="black" stroke-width="1" fill="purple" />
<polygon points="728,484.974 700,436.477 756,436.477"
stroke="black" stroke-width="1" fill="purple" />
<polygon points="784,484.974 756,436.477 812,436.477"
stroke="black" stroke-width="1" fill="purple" />
<polygon points="840,484.974 812,436.477 868,436.477"
stroke="black" stroke-width="1" fill="purple" />
<polygon points="56,533.472 28,484.974 84,484.974"
stroke="black" stroke-width="1" fill="purple" />
<polygon points="112,533.472 84,484.974 140,484.974"
stroke="black" stroke-width="1" fill="purple" />
<polygon points="168,533.472 140,484.974 196,484.974"
stroke="black" stroke-width="1" fill="purple" />
<polygon points="224,533.472 196,484.974 252,484.974"
stroke="black" stroke-width="1" fill="purple" />
<polygon points="280,533.472 252,484.974 308,484.974"
stroke="black" stroke-width="1" fill="purple" />
<polygon points="336,533.472 308,484.974 364,484.974"
stroke="black" stroke-width="1" fill="purple" />
<polygon points="392,533.472 364,484.974 420,484.974"
stroke="black" stroke-width="1" fill="purple" />
<polygon points="448,533.472 420,484.974 476,484.974"
stroke="black" stroke-width="1" fill="purple" />
<polygon points="504,533.472 476,484.974 532,484.974"
stroke="black" stroke-width="1" fill="purple" />
<polygon points="560,533.472 532,484.974 588,484.974"
stroke="black" stroke-width="1" fill="purple" />
<polygon points="616,533.472 588,484.974 644,484.974"
stroke="black" stroke-width="1" fill="purple" />
<polygon points="672,533.472 644,484.974 700,484.974"
stroke="black" stroke-width="1" fill="purple" />
<polygon points="728,533.472 700,484.974 756,484.974"
stroke="black" stroke-width="1" fill="purple" />
<polygon points="784,533.472 756,484.974 812,484.974"
stroke="black" stroke-width="1" fill="purple" />
<polygon points="840,533.472 812,484.974 868,484.974"
stroke="black" stroke-width="1" fill="purple" />
<polygon points="56,581.969 28,533.472 84,533.472"
stroke="black" stroke-width="1" fill="purple" />
<polygon points="112,581.969 84,533.472 140,533.472"
stroke="black" stroke-width="1" fill="purple" />
<polygon points="168,581.969 140,533.472 196,533.472"
stroke="black" stroke-width="1" fill="purple" />
<polygon points="224,581.969 196,533.472 252,533.472"
stroke="black" stroke-width="1" fill="purple" />
<polygon points="280,581.969 252,533.472 308,533.472"
stroke="black" stroke-width="1" fill="purple" />
<polygon points="336,581.969 308,533.472 364,533.472"
stroke="black" stroke-width="1" fill="purple" />
<polygon points="392,581.969 364,533.472 420,533.472"
stroke="black" stroke-width="1" fill="purple" />
<polygon points="448,581.969 420,533.472 476,533.472"
stroke="black" stroke-width="1" fill="purple" />
<polygon points="504,581.969 476,533.472 532,533.472"
stroke="black" stroke-width="1" fill="purple" />
<polygon points="560,581.969 532,533.472 588,533.472"
stroke="black" stroke-width="1" fill="purple" />
<polygon points="616,581.969 588,533.472 644,533.472"
stroke="black" stroke-width="1" fill="purple" />
<polygon points="672,581.969 644,533.472 700,533.472"
stroke="black" stroke-width="1" fill="purple" />
<polygon points="728,581.969 700,533.472 756,533.472"
stroke="black" stroke-width="1" fill="purple" />
<polygon points="784,581.969 756,533.472 812,533.472"
stroke="black" stroke-width="1" fill="purple" />
<polygon points="840,581.969 812,533.472 868,533.472"
stroke="black" stroke-width="1" fill="purple" />
<polygon points="56,630.466 28,581.969 84,581.969"
stroke="black" stroke-width="1" fill="purple" />
<polygon points="112,630.466 84,581.969 140,581.969"
stroke="black" stroke-width="1" fill="purple" />
<polygon points="168,630.466 140,581.969 196,581.969"
stroke="black" stroke-width="1" fill="purple" />
<polygon points="224,630.466 196,581.969 252,581.969"
stroke="black" stroke-width="1" fill="purple" />
<polygon points="280,630.466 252,581.969 308,581.969"
stroke="black" stroke-width="1" fill="purple" />
<polygon points="336,630.466 308,581.969 364,581.969"
stroke="black" stroke-width="1" fill="purple" />
<polygon points="392,630.466 364,581.969 420,581.969"
stroke="black" stroke-width="1" fill="purple" />
<polygon points="448,630.466 420,581.969 476,581.969"
stroke="black" stroke-width="1" fill="purple" />
<polygon points="504,630.466 476,581.969 532,581.969"
stroke="black" stroke-width="1" fill="purple" />
<polygon points="560,630.466 532,581.969 588,581.969"
stroke="black" stroke-width="1" fill="purple" />
<polygon points="616,630.466 588,581.969 644,581.969"
stroke="black" stroke-width="1" fill="purple" />
<polygon points="672,630.466 644,581.969 700,581.969"
stroke="black" stroke-width="1" fill="purple" />
<polygon points="728,630.466 700,581.969 756,581.969"
stroke="black" stroke-width="1" fill="purple" />
<polygon points="784,630.466 756,581.969 812,581.969"
stroke="black" stroke-width="1" fill="purple" />
<polygon points="840,630.466 812,581.969 868,581.969"
stroke="black" stroke-width="1" fill="purple" />
<polygon points="112,678.964 84,630.466 140,630.466"
stroke="black" stroke-width="1" fill="purple" />
<polygon points="168,678.964 140,630.466 196,630.466"
stroke="black" stroke-width="1" fill="purple" />
<polygon points="224,678.964 196,630.466 252,630.466"
stroke="black" stroke-width="1" fill="purple" />
<polygon points="280,678.964 252,630.466 308,630.466"
stroke="black" stroke-width="1" fill="purple" />
<polygon points="336,678.964 308,630.466 364,630.466"
stroke="black" stroke-width="1" fill="purple" />
<polygon points="392,678.964 364,630.466 420,630.466"
stroke="black" stroke-width="1" fill="purple" />
<polygon points="448,678.964 420,630.466 476,630.466"
stroke="black" stroke-width="1" fill="purple" />
<polygon points="504,678.964 476,630.466 532,630.466"
stroke="black" stroke-width="1" fill="purple" />
<polygon points="560,678.964 532,630.466 588,630.466"
stroke="black" stroke-width="1" fill="purple" />
<polygon points="616,678.964 588,630.466 644,630.466"
stroke="black" stroke-width="1" fill="purple" />
<polygon points="672,678.964 644,630.466 700,630.466"
stroke="black" stroke-width="1" fill="purple" />
<polygon points="728,678.964 700,630.466 756,630.466"
stroke="black" stroke-width="1" fill="purple" />
<polygon points="784,678.964 756,630.466 812,630.466"
stroke="black" stroke-width="1" fill="purple" />
<polygon points="840,678.964 812,630.466 868,630.466"
stroke="black" stroke-width="1" fill="purple" />
<polygon points="112,727.461 84,678.964 140,678.964"
stroke="black" stroke-width="1" fill="purple" />
<polygon points="168,727.461 140,678.964 196,678.964"
stroke="black" stroke-width="1" fill="purple" />
<polygon points="224,727.461 196,678.964 252,678.964"
stroke="black" stroke-width="1" fill="purple" />
<polygon points="280,727.461 252,678.964 308,678.964"
stroke="black" stroke-width="1" fill="purple" />
<polygon points="336,727.461 308,678.964 364,678.964"
stroke="black" stroke-width="1" fill="purple" />
<polygon points="392,727.461 364,678.964 420,678.964"
stroke="black" stroke-width="1" fill="purple" />
<polygon points="448,727.461 420,678.964 476,678.964"
stroke="black" stroke-width="1" fill="purple" />
<polygon points="504,727.461 476,678.964 532,678.964"
stroke="black" stroke-width="1" fill="purple" />
<polygon points="560,727.461 532,678.964 588,678.964"
stroke="black" stroke-width="1" fill="purple" />
<polygon points="616,727.461 588,678.964 644,678.964"
stroke="black" stroke-width="1" fill="purple" />
<polygon points="672,727.461 644,678.964 700,678.964"
stroke="black" stroke-width="1" fill="purple" />
<polygon points="728,727.461 700,678.964 756,678.964"
stroke="black" stroke-width="1" fill="purple" />
<polygon points="784,727.461 756,678.964 812,678.964"
stroke="black" stroke-width="1" fill="purple" />
<polygon points="168,775.959 140,727.461 196,727.461"
stroke="black" stroke-width="1" fill="purple" />
<polygon points="224,775.959 196,727.461 252,727.461"
stroke="black" stroke-width="1" fill="purple" />
<polygon points="280,775.959 252,727.461 308,727.461"
stroke="black" stroke-width="1" fill="purple" />
<polygon points="336,775.959 308,727.461 364,727.461"
stroke="black" stroke-width="1" fill="purple" />
<polygon points="392,775.959 364,727.461 420,727.461"
stroke="black" stroke-width="1" fill="purple" />
<polygon points="448,775.959 420,727.461 476,727.461"
stroke="black" stroke-width="1" fill="purple" />
<polygon points="504,775.959 476,727.461 532,727.461"
stroke="black" stroke-width="1" fill="purple" />
<polygon points="560,775.959 532,727.461 588,727.461"
stroke="black" stroke-width="1" fill="purple" />
<polygon points="616,775.959 588,727.461 644,727.461"
stroke="black" stroke-width="1" fill="purple" />
<polygon points="672,775.959 644,727.461 700,727.461"
stroke="black" stroke-width="1" fill="purple" />
<polygon points="728,775.959 700,727.461 756,727.461"
stroke="black" stroke-width="1" fill="purple" />
<polygon points="224,824.456 196,775.959 252,775.959"
stroke="black" stroke-width="1" fill="purple" />
<polygon points="280,824.456 252,775.959 308,775.959"
stroke="black" stroke-width="1" fill="purple" />
<polygon points="336,824.456 308,775.959 364,775.959"
stroke="black" stroke-width="1" fill="purple" />
<polygon points="392,824.456 364,775.959 420,775.959"
stroke="black" stroke-width="1" fill="purple" />
<polygon points="448,824.456 420,775.959 476,775.959"
stroke="black" stroke-width="1" fill="purple" />
<polygon points="504,824.456 476,775.959 532,775.959"
stroke="black" stroke-width="1" fill="purple" />
<polygon points="560,824.456 532,775.959 588,775.959"
stroke="black" stroke-width="1" fill="purple" />
<polygon points="616,824.456 588,775.959 644,775.959"
stroke="black" stroke-width="1" fill="purple" />
<polygon points="672,824.456 644,775.959 700,775.959"
stroke="black" stroke-width="1" fill="purple" />
<polygon points="280,872.954 252,824.456 308,824.456"
stroke="black" stroke-width="1" fill="purple" />
<polygon points="336,872.954 308,824.456 364,824.456"
stroke="black" stroke-width="1" fill="purple" />
<polygon points="392,872.954 364,824.456 420,824.456"
stroke="black" stroke-width="1" fill="purple" />
<polygon points="448,872.954 420,824.456 476,824.456"
stroke="black" stroke-width="1" fill="purple" />
<polygon points="504,872.954 476,824.456 532,824.456"
stroke="black" stroke-width="1" fill="purple" />
<polygon points="560,872.954 532,824.456 588,824.456"
stroke="black" stroke-width="1" fill="purple" />
<polygon points="616,872.954 588,824.456 644,824.456"
stroke="black" stroke-width="1" fill="purple" />
</svg>
