<svg version="1.1" 
baseProfile="full"
width="354" height="354"
xmlns="http://www.w3.org/2000/svg">
<polygon points="177,0 0,306.573 354,306.573"
stroke="black" stroke-width="1" fill="blue" />
<rect x="12.1244" y="285.573" width="23" height="21" stroke="black" stroke-width="1" fill="purple" />
<rect x="35.1244" y="285.573" width="23" height="21" stroke="black" stroke-width="1" fill="purple" />
<rect x="58.1244" y="285.573" width="23" height="21" stroke="black" stroke-width="1" fill="purple" />
<rect x="81.1244" y="285.573" width="23" height="21" stroke="black" stroke-width="1" fill="purple" />
<rect x="104.124" y="285.573" width="23" height="21" stroke="black" stroke-width="1" fill="purple" />
<rect x="127.124" y="285.573" width="23" height="21" stroke="black" stroke-width="1" fill="purple" />
<rect x="150.124" y="285.573" width="23" height="21" stroke="black" stroke-width="1" fill="purple" />
<rect x="173.124" y="285.573" width="23" height="21" stroke="black" stroke-width="1" fill="purple" />
<rect x="196.124" y="285.573" width="23" height="21" stroke="black" stroke-width="1" fill="purple" />
<rect x="219.124" y="285.573" width="23" height="21" stroke="black" stroke-width="1" fill="purple" />
<rect x="242.124" y="285.573" width="23" height="21" stroke="black" stroke-width="1" fill="purple" />
<rect x="265.124" y="285.573" width="23" height="21" stroke="black" stroke-width="1" fill="purple" />
<rect x="288.124" y="285.573" width="23" height="21" stroke="black" stroke-width="1" fill="purple" />
<rect x="311.124" y="285.573" width="23" height="21" stroke="black" stroke-width="1" fill="purple" />
<rect x="24.2487" y="264.573" width="23" height="21" stroke="black" stroke-width="1" fill="purple" />
<rect x="47.2487" y="264.573" width="23" height="21" stroke="black" stroke-width="1" fill="purple" />
<rect x="70.2487" y="264.573" width="23" height="21" stroke="black" stroke-width="1" fill="purple" />
<rect x="93.2487" y="264.573" width="23" height="21" stroke="black" stroke-width="1" fill="purple" />
<rect x="116.249" y="264.573" width="23" height="21" stroke="black" stroke-width="1" fill="purple" />
<rect x="139.249" y="264.573" width="23" height="21" stroke="black" stroke-width="1" fill="purple" />
<rect x="162.249" y="264.573" width="23" height="21" stroke="black" stroke-width="1" fill="purple" />
<rect x="185.249" y="264.573" width="23" height="21" stroke="black" stroke-width="1" fill="purple" />
<rect x="208.249" y="264.573" width="23" height="21" stroke="black" stroke-width="1" fill="purple" />
<rect x="231.249" y="264.573" width="23" height="21" stroke="black" stroke-width="1" fill="purple" />
<rect x="254.249" y="264.573" width="23" height="21" stroke="black" stroke-width="1" fill="purple" />
<rect x="277.249" y="264.573" width="23" height="21" stroke="black" stroke-width="1" fill="purple" />
<rect x="300.249" y="264.573" width="23" height="21" stroke="black" stroke-width="1" fill="purple" />
<rect x="36.3731" y="243.573" width="23" height="21" stroke="black" stroke-width="1" fill="purple" />
<rect x="59.3731" y="243.573" width="23" height="21" stroke="black" stroke-width="1" fill="purple" />
<rect x="82.3731" y="243.573" width="23" height="21" stroke="black" stroke-width="1" fill="purple" />
<rect x="105.373" y="243.573" width="23" height="21" stroke="black" stroke-width="1" fill="purple" />
<rect x="128.373" y="243.573" width="23" height="21" stroke="black" stroke-width="1" fill="purple" />
<rect x="151.373" y="243.573" width="23" height="21" stroke="black" stroke-width="1" fill="purple" />
<rect x="174.373" y="243.573" width="23" height="21" stroke="black" stroke-width="1" fill="purple" />
<rect x="197.373" y="243.573" width="23" height="21" stroke="black" stroke-width="1" fill="purple" />
<rect x="220.373" y="243.573" width="23" height="21" stroke="black" stroke-width="1" fill="purple" />
<rect x="243.373" y="243.573" width="23" height="21" stroke="black" stroke-width="1" fill="purple" />
<rect x="266.373" y="243.573" width="23" height="21" stroke="black" stroke-width="1" fill="purple" />
<rect x="289.373" y="243.573" width="23" height="21" stroke="black" stroke-width="1" fill="purple" />
<rect x="48.4974" y="222.573" width="23" height="21" stroke="black" stroke-width="1" fill="purple" />
<rect x="71.4974" y="222.573" width="23" height="21" stroke="black" stroke-width="1" fill="purple" />
<rect x="94.4974" y="222.573" width="23" height="21" stroke="black" stroke-width="1" fill="purple" />
<rect x="117.497" y="222.573" width="23" height="21" stroke="black" stroke-width="1" fill="purple" />
<rect x="140.497" y="222.573" width="23" height="21" stroke="black" stroke-width="1" fill="purple" />
<rect x="163.497" y="222.573" width="23" height="21" stroke="black" stroke-width="1" fill="purple" />
<rect x="186.497" y="222.573" width="23" height="21" stroke="black" stroke-width="1" fill="purple" />
<rect x="209.497" y="222.573" width="23" height="21" stroke="black" stroke-width="1" fill="purple" />
<rect x="232.497" y="222.573" width="23" height="21" stroke="black" stroke-width="1" fill="purple" />
<rect x="255.497" y="222.573" width="23" height="21" stroke="black" stroke-width="1" fill="purple" />
<rect x="278.497" y="222.573" width="23" height="21" stroke="black" stroke-width="1" fill="purple" />
<rect x="60.6218" y="201.573" width="23" height="21" stroke="black" stroke-width="1" fill="purple" />
<rect x="83.6218" y="201.573" width="23" height="21" stroke="black" stroke-width="1" fill="purple" />
<rect x="106.622" y="201.573" width="23" height="21" stroke="black" stroke-width="1" fill="purple" />
<rect x="129.622" y="201.573" width="23" height="21" stroke="black" stroke-width="1" fill="purple" />
<rect x="152.622" y="201.573" width="23" height="21" stroke="black" stroke-width="1" fill="purple" />
<rect x="175.622" y="201.573" width="23" height="21" stroke="black" stroke-width="1" fill="purple" />
<rect x="198.622" y="201.573" width="23" height="21" stroke="black" stroke-width="1" fill="purple" />
<rect x="221.622" y="201.573" width="23" height="21" stroke="black" stroke-width="1" fill="purple" />
<rect x="244.622" y="201.573" width="23" height="21" stroke="black" stroke-width="1" fill="purple" />
<rect x="267.622" y="201.573" width="23" height="21" stroke="black" stroke-width="1" fill="purple" />
<rect x="72.7461" y="180.573" width="23" height="21" stroke="black" stroke-width="1" fill="purple" />
<rect x="95.7461" y="180.573" width="23" height="21" stroke="black" stroke-width="1" fill="purple" />
<rect x="118.746" y="180.573" width="23" height="21" stroke="black" stroke-width="1" fill="purple" />
<rect x="141.746" y="180.573" width="23" height="21" stroke="black" stroke-width="1" fill="purple" />
<rect x="164.746" y="180.573" width="23" height="21" stroke="black" stroke-width="1" fill="purple" />
<rect x="187.746" y="180.573" width="23" height="21" stroke="black" stroke-width="1" fill="purple" />
<rect x="210.746" y="180.573" width="23" height="21" stroke="black" stroke-width="1" fill="purple" />
<rect x="233.746" y="180.573" width="23" height="21" stroke="black" stroke-width="1" fill="purple" />
<rect x="256.746" y="180.573" width="23" height="21" stroke="black" stroke-width="1" fill="purple" />
<rect x="84.8705" y="159.573" width="23" height="21" stroke="black" stroke-width="1" fill="purple" />
<rect x="107.87" y="159.573" width="23" height="21" stroke="black" stroke-width="1" fill="purple" />
<rect x="130.87" y="159.573" width="23" height="21" stroke="black" stroke-width="1" fill="purple" />
<rect x="153.87" y="159.573" width="23" height="21" stroke="black" stroke-width="1" fill="purple" />
<rect x="176.87" y="159.573" width="23" height="21" stroke="black" stroke-width="1" fill="purple" />
<rect x="199.87" y="159.573" width="23" height="21" stroke="black" stroke-width="1" fill="purple" />
<rect x="222.87" y="159.573" width="23" height="21" stroke="black" stroke-width="1" fill="purple" />
<rect x="245.87" y="159.573" width="23" height="21" stroke="black" stroke-width="1" fill="purple" />
<rect x="96.9948" y="138.573" width="23" height="21" stroke="black" stroke-width="1" fill="purple" />
<rect x="119.995" y="138.573" width="23" height="21" stroke="black" stroke-width="1" fill="purple" />
<rect x="142.995" y="138.573" width="23" height="21" stroke="black" stroke-width="1" fill="purple" />
<rect x="165.995" y="138.573" width="23" height="21" stroke="black" stroke-width="1" fill="purple" />
<rect x="188.995" y="138.573" width="23" height="21" stroke="black" stroke-width="1" fill="purple" />
<rect x="211.995" y="138.573" width="23" height="21" stroke="black" stroke-width="1" fill="purple" />
<rect x="109.119" y="117.573" width="23" height="21" stroke="black" stroke-width="1" fill="purple" />
<rect x="132.119" y="117.573" width="23" height="21" stroke="black" stroke-width="1" fill="purple" />
<rect x="155.119" y="117.573" width="23" height="21" stroke="black" stroke-width="1" fill="purple" />
<rect x="178.119" y="117.573" width="23" height="21" stroke="black" stroke-width="1" fill="purple" />
<rect x="201.119" y="117.573" width="23" height="21" stroke="black" stroke-width="1" fill="purple" />
<rect x="121.244" y="96.573" width="23" height="21" stroke="black" stroke-width="1" fill="purple" />
<rect x="144.244" y="96.573" width="23" height="21" stroke="black" stroke-width="1" fill="purple" />
<rect x="167.244" y="96.573" width="23" height="21" stroke="black" stroke-width="1" fill="purple" />
<rect x="190.244" y="96.573" width="23" height="21" stroke="black" stroke-width="1" fill="purple" />
<rect x="133.368" y="75.573" width="23" height="21" stroke="black" stroke-width="1" fill="purple" />
<rect x="156.368" y="75.573" width="23" height="21" stroke="black" stroke-width="1" fill="purple" />
<rect x="179.368" y="75.573" width="23" height="21" stroke="black" stroke-width="1" fill="purple" />
<rect x="145.492" y="54.573" width="23" height="21" stroke="black" stroke-width="1" fill="purple" />
<rect x="168.492" y="54.573" width="23" height="21" stroke="black" stroke-width="1" fill="purple" />
<rect x="157.617" y="33.573" width="23" height="21" stroke="black" stroke-width="1" fill="purple" />
</svg>
