<svg version="1.1" 
baseProfile="full"
width="564" height="564"
xmlns="http://www.w3.org/2000/svg">
<polygon points="282,0 0,488.438 564,488.438"
stroke="black" stroke-width="1" fill="blue" />
<polygon points="282,0 266,27.7128 298,27.7128"
stroke="black" stroke-width="1" fill="purple" />
<polygon points="266,27.7128 250,55.4256 282,55.4256"
stroke="black" stroke-width="1" fill="purple" />
<polygon points="298,27.7128 282,55.4256 314,55.4256"
stroke="black" stroke-width="1" fill="purple" />
<polygon points="250,55.4256 234,83.1384 266,83.1384"
stroke="black" stroke-width="1" fill="purple" />
<polygon points="282,55.4256 266,83.1384 298,83.1384"
stroke="black" stroke-width="1" fill="purple" />
<polygon points="314,55.4256 298,83.1384 330,83.1384"
stroke="black" stroke-width="1" fill="purple" />
<polygon points="234,83.1384 218,110.851 250,110.851"
stroke="black" stroke-width="1" fill="purple" />
<polygon points="266,83.1384 250,110.851 282,110.851"
stroke="black" stroke-width="1" fill="purple" />
<polygon points="298,83.1384 282,110.851 314,110.851"
stroke="black" stroke-width="1" fill="purple" />
<polygon points="330,83.1384 314,110.851 346,110.851"
stroke="black" stroke-width="1" fill="purple" />
<polygon points="218,110.851 202,138.564 234,138.564"
stroke="black" stroke-width="1" fill="purple" />
<polygon points="250,110.851 234,138.564 266,138.564"
stroke="black" stroke-width="1" fill="purple" />
<polygon points="282,110.851 266,138.564 298,138.564"
stroke="black" stroke-width="1" fill="purple" />
<polygon points="314,110.851 298,138.564 330,138.564"
stroke="black" stroke-width="1" fill="purple" />
<polygon points="346,110.851 330,138.564 362,138.564"
stroke="black" stroke-width="1" fill="purple" />
<polygon points="202,138.564 186,166.277 218,166.277"
stroke="black" stroke-width="1" fill="purple" />
<polygon points="234,138.564 218,166.277 250,166.277"
stroke="black" stroke-width="1" fill="purple" />
<polygon points="266,138.564 250,166.277 282,166.277"
stroke="black" stroke-width="1" fill="purple" />
<polygon points="298,138.564 282,166.277 314,166.277"
stroke="black" stroke-width="1" fill="purple" />
<polygon points="330,138.564 314,166.277 346,166.277"
stroke="black" stroke-width="1" fill="purple" />
<polygon points="362,138.564 346,166.277 378,166.277"
stroke="black" stroke-width="1" fill="purple" />
<polygon points="186,166.277 170,193.99 202,193.99"
stroke="black" stroke-width="1" fill="purple" />
<polygon points="218,166.277 202,193.99 234,193.99"
stroke="black" stroke-width="1" fill="purple" />
<polygon points="250,166.277 234,193.99 266,193.99"
stroke="black" stroke-width="1" fill="purple" />
<polygon points="282,166.277 266,193.99 298,193.99"
stroke="black" stroke-width="1" fill="purple" />
<polygon points="314,166.277 298,193.99 330,193.99"
stroke="black" stroke-width="1" fill="purple" />
<polygon points="346,166.277 330,193.99 362,193.99"
stroke="black" stroke-width="1" fill="purple" />
<polygon points="378,166.277 362,193.99 394,193.99"
stroke="black" stroke-width="1" fill="purple" />
<polygon points="170,193.99 154,221.703 186,221.703"
stroke="black" stroke-width="1" fill="purple" />
<polygon points="202,193.99 186,221.703 218,221.703"
stroke="black" stroke-width="1" fill="purple" />
<polygon points="234,193.99 218,221.703 250,221.703"
stroke="black" stroke-width="1" fill="purple" />
<polygon points="266,193.99 250,221.703 282,221.703"
stroke="black" stroke-width="1" fill="purple" />
<polygon points="298,193.99 282,221.703 314,221.703"
stroke="black" stroke-width="1" fill="purple" />
<polygon points="330,193.99 314,221.703 346,221.703"
stroke="black" stroke-width="1" fill="purple" />
<polygon points="362,193.99 346,221.703 378,221.703"
stroke="black" stroke-width="1" fill="purple" />
<polygon points="394,193.99 378,221.703 410,221.703"
stroke="black" stroke-width="1" fill="purple" />
<polygon points="154,221.703 138,249.415 170,249.415"
stroke="black" stroke-width="1" fill="purple" />
<polygon points="186,221.703 170,249.415 202,249.415"
stroke="black" stroke-width="1" fill="purple" />
<polygon points="218,221.703 202,249.415 234,249.415"
stroke="black" stroke-width="1" fill="purple" />
<polygon points="250,221.703 234,249.415 266,249.415"
stroke="black" stroke-width="1" fill="purple" />
<polygon points="282,221.703 266,249.415 298,249.415"
stroke="black" stroke-width="1" fill="purple" />
<polygon points="314,221.703 298,249.415 330,249.415"
stroke="black" stroke-width="1" fill="purple" />
<polygon points="346,221.703 330,249.415 362,249.415"
stroke="black" stroke-width="1" fill="purple" />
<polygon points="378,221.703 362,249.415 394,249.415"
stroke="black" stroke-width="1" fill="purple" />
<polygon points="410,221.703 394,249.415 426,249.415"
stroke="black" stroke-width="1" fill="purple" />
<polygon points="138,249.415 122,277.128 154,277.128"
stroke="black" stroke-width="1" fill="purple" />
<polygon points="170,249.415 154,277.128 186,277.128"
stroke="black" stroke-width="1" fill="purple" />
<polygon points="202,249.415 186,277.128 218,277.128"
stroke="black" stroke-width="1" fill="purple" />
<polygon points="234,249.415 218,277.128 250,277.128"
stroke="black" stroke-width="1" fill="purple" />
<polygon points="266,249.415 250,277.128 282,277.128"
stroke="black" stroke-width="1" fill="purple" />
<polygon points="298,249.415 282,277.128 314,277.128"
stroke="black" stroke-width="1" fill="purple" />
<polygon points="330,249.415 314,277.128 346,277.128"
stroke="black" stroke-width="1" fill="purple" />
<polygon points="362,249.415 346,277.128 378,277.128"
stroke="black" stroke-width="1" fill="purple" />
<polygon points="394,249.415 378,277.128 410,277.128"
stroke="black" stroke-width="1" fill="purple" />
<polygon points="426,249.415 410,277.128 442,277.128"
stroke="black" stroke-width="1" fill="purple" />
<polygon points="122,277.128 106,304.841 138,304.841"
stroke="black" stroke-width="1" fill="purple" />
<polygon points="154,277.128 138,304.841 170,304.841"
stroke="black" stroke-width="1" fill="purple" />
<polygon points="186,277.128 170,304.841 202,304.841"
stroke="black" stroke-width="1" fill="purple" />
<polygon points="218,277.128 202,304.841 234,304.841"
stroke="black" stroke-width="1" fill="purple" />
<polygon points="250,277.128 234,304.841 266,304.841"
stroke="black" stroke-width="1" fill="purple" />
<polygon points="282,277.128 266,304.841 298,304.841"
stroke="black" stroke-width="1" fill="purple" />
<polygon points="314,277.128 298,304.841 330,304.841"
stroke="black" stroke-width="1" fill="purple" />
<polygon points="346,277.128 330,304.841 362,304.841"
stroke="black" stroke-width="1" fill="purple" />
<polygon points="378,277.128 362,304.841 394,304.841"
stroke="black" stroke-width="1" fill="purple" />
<polygon points="410,277.128 394,304.841 426,304.841"
stroke="black" stroke-width="1" fill="purple" />
<polygon points="442,277.128 426,304.841 458,304.841"
stroke="black" stroke-width="1" fill="purple" />
<polygon points="106,304.841 90,332.554 122,332.554"
stroke="black" stroke-width="1" fill="purple" />
<polygon points="138,304.841 122,332.554 154,332.554"
stroke="black" stroke-width="1" fill="purple" />
<polygon points="170,304.841 154,332.554 186,332.554"
stroke="black" stroke-width="1" fill="purple" />
<polygon points="202,304.841 186,332.554 218,332.554"
stroke="black" stroke-width="1" fill="purple" />
<polygon points="234,304.841 218,332.554 250,332.554"
stroke="black" stroke-width="1" fill="purple" />
<polygon points="266,304.841 250,332.554 282,332.554"
stroke="black" stroke-width="1" fill="purple" />
<polygon points="298,304.841 282,332.554 314,332.554"
stroke="black" stroke-width="1" fill="purple" />
<polygon points="330,304.841 314,332.554 346,332.554"
stroke="black" stroke-width="1" fill="purple" />
<polygon points="362,304.841 346,332.554 378,332.554"
stroke="black" stroke-width="1" fill="purple" />
<polygon points="394,304.841 378,332.554 410,332.554"
stroke="black" stroke-width="1" fill="purple" />
<polygon points="426,304.841 410,332.554 442,332.554"
stroke="black" stroke-width="1" fill="purple" />
<polygon points="458,304.841 442,332.554 474,332.554"
stroke="black" stroke-width="1" fill="purple" />
<polygon points="90,332.554 74,360.267 106,360.267"
stroke="black" stroke-width="1" fill="purple" />
<polygon points="122,332.554 106,360.267 138,360.267"
stroke="black" stroke-width="1" fill="purple" />
<polygon points="154,332.554 138,360.267 170,360.267"
stroke="black" stroke-width="1" fill="purple" />
<polygon points="186,332.554 170,360.267 202,360.267"
stroke="black" stroke-width="1" fill="purple" />
<polygon points="218,332.554 202,360.267 234,360.267"
stroke="black" stroke-width="1" fill="purple" />
<polygon points="250,332.554 234,360.267 266,360.267"
stroke="black" stroke-width="1" fill="purple" />
<polygon points="282,332.554 266,360.267 298,360.267"
stroke="black" stroke-width="1" fill="purple" />
<polygon points="314,332.554 298,360.267 330,360.267"
stroke="black" stroke-width="1" fill="purple" />
<polygon points="346,332.554 330,360.267 362,360.267"
stroke="black" stroke-width="1" fill="purple" />
<polygon points="378,332.554 362,360.267 394,360.267"
stroke="black" stroke-width="1" fill="purple" />
<polygon points="410,332.554 394,360.267 426,360.267"
stroke="black" stroke-width="1" fill="purple" />
<polygon points="442,332.554 426,360.267 458,360.267"
stroke="black" stroke-width="1" fill="purple" />
<polygon points="474,332.554 458,360.267 490,360.267"
stroke="black" stroke-width="1" fill="purple" />
<polygon points="74,360.267 58,387.979 90,387.979"
stroke="black" stroke-width="1" fill="purple" />
<polygon points="106,360.267 90,387.979 122,387.979"
stroke="black" stroke-width="1" fill="purple" />
<polygon points="138,360.267 122,387.979 154,387.979"
stroke="black" stroke-width="1" fill="purple" />
<polygon points="170,360.267 154,387.979 186,387.979"
stroke="black" stroke-width="1" fill="purple" />
<polygon points="202,360.267 186,387.979 218,387.979"
stroke="black" stroke-width="1" fill="purple" />
<polygon points="234,360.267 218,387.979 250,387.979"
stroke="black" stroke-width="1" fill="purple" />
<polygon points="266,360.267 250,387.979 282,387.979"
stroke="black" stroke-width="1" fill="purple" />
<polygon points="298,360.267 282,387.979 314,387.979"
stroke="black" stroke-width="1" fill="purple" />
<polygon points="330,360.267 314,387.979 346,387.979"
stroke="black" stroke-width="1" fill="purple" />
<polygon points="362,360.267 346,387.979 378,387.979"
stroke="black" stroke-width="1" fill="purple" />
<polygon points="394,360.267 378,387.979 410,387.979"
stroke="black" stroke-width="1" fill="purple" />
<polygon points="426,360.267 410,387.979 442,387.979"
stroke="black" stroke-width="1" fill="purple" />
<polygon points="458,360.267 442,387.979 474,387.979"
stroke="black" stroke-width="1" fill="purple" />
<polygon points="490,360.267 474,387.979 506,387.979"
stroke="black" stroke-width="1" fill="purple" />
<polygon points="58,387.979 42,415.692 74,415.692"
stroke="black" stroke-width="1" fill="purple" />
<polygon points="90,387.979 74,415.692 106,415.692"
stroke="black" stroke-width="1" fill="purple" />
<polygon points="122,387.979 106,415.692 138,415.692"
stroke="black" stroke-width="1" fill="purple" />
<polygon points="154,387.979 138,415.692 170,415.692"
stroke="black" stroke-width="1" fill="purple" />
<polygon points="186,387.979 170,415.692 202,415.692"
stroke="black" stroke-width="1" fill="purple" />
<polygon points="218,387.979 202,415.692 234,415.692"
stroke="black" stroke-width="1" fill="purple" />
<polygon points="250,387.979 234,415.692 266,415.692"
stroke="black" stroke-width="1" fill="purple" />
<polygon points="282,387.979 266,415.692 298,415.692"
stroke="black" stroke-width="1" fill="purple" />
<polygon points="314,387.979 298,415.692 330,415.692"
stroke="black" stroke-width="1" fill="purple" />
<polygon points="346,387.979 330,415.692 362,415.692"
stroke="black" stroke-width="1" fill="purple" />
<polygon points="378,387.979 362,415.692 394,415.692"
stroke="black" stroke-width="1" fill="purple" />
<polygon points="410,387.979 394,415.692 426,415.692"
stroke="black" stroke-width="1" fill="purple" />
<polygon points="442,387.979 426,415.692 458,415.692"
stroke="black" stroke-width="1" fill="purple" />
<polygon points="474,387.979 458,415.692 490,415.692"
stroke="black" stroke-width="1" fill="purple" />
<polygon points="506,387.979 490,415.692 522,415.692"
stroke="black" stroke-width="1" fill="purple" />
<polygon points="42,415.692 26,443.405 58,443.405"
stroke="black" stroke-width="1" fill="purple" />
<polygon points="74,415.692 58,443.405 90,443.405"
stroke="black" stroke-width="1" fill="purple" />
<polygon points="106,415.692 90,443.405 122,443.405"
stroke="black" stroke-width="1" fill="purple" />
<polygon points="138,415.692 122,443.405 154,443.405"
stroke="black" stroke-width="1" fill="purple" />
<polygon points="170,415.692 154,443.405 186,443.405"
stroke="black" stroke-width="1" fill="purple" />
<polygon points="202,415.692 186,443.405 218,443.405"
stroke="black" stroke-width="1" fill="purple" />
<polygon points="234,415.692 218,443.405 250,443.405"
stroke="black" stroke-width="1" fill="purple" />
<polygon points="266,415.692 250,443.405 282,443.405"
stroke="black" stroke-width="1" fill="purple" />
<polygon points="298,415.692 282,443.405 314,443.405"
stroke="black" stroke-width="1" fill="purple" />
<polygon points="330,415.692 314,443.405 346,443.405"
stroke="black" stroke-width="1" fill="purple" />
<polygon points="362,415.692 346,443.405 378,443.405"
stroke="black" stroke-width="1" fill="purple" />
<polygon points="394,415.692 378,443.405 410,443.405"
stroke="black" stroke-width="1" fill="purple" />
<polygon points="426,415.692 410,443.405 442,443.405"
stroke="black" stroke-width="1" fill="purple" />
<polygon points="458,415.692 442,443.405 474,443.405"
stroke="black" stroke-width="1" fill="purple" />
<polygon points="490,415.692 474,443.405 506,443.405"
stroke="black" stroke-width="1" fill="purple" />
<polygon points="522,415.692 506,443.405 538,443.405"
stroke="black" stroke-width="1" fill="purple" />
<polygon points="26,443.405 10,471.118 42,471.118"
stroke="black" stroke-width="1" fill="purple" />
<polygon points="58,443.405 42,471.118 74,471.118"
stroke="black" stroke-width="1" fill="purple" />
<polygon points="90,443.405 74,471.118 106,471.118"
stroke="black" stroke-width="1" fill="purple" />
<polygon points="122,443.405 106,471.118 138,471.118"
stroke="black" stroke-width="1" fill="purple" />
<polygon points="154,443.405 138,471.118 170,471.118"
stroke="black" stroke-width="1" fill="purple" />
<polygon points="186,443.405 170,471.118 202,471.118"
stroke="black" stroke-width="1" fill="purple" />
<polygon points="218,443.405 202,471.118 234,471.118"
stroke="black" stroke-width="1" fill="purple" />
<polygon points="250,443.405 234,471.118 266,471.118"
stroke="black" stroke-width="1" fill="purple" />
<polygon points="282,443.405 266,471.118 298,471.118"
stroke="black" stroke-width="1" fill="purple" />
<polygon points="314,443.405 298,471.118 330,471.118"
stroke="black" stroke-width="1" fill="purple" />
<polygon points="346,443.405 330,471.118 362,471.118"
stroke="black" stroke-width="1" fill="purple" />
<polygon points="378,443.405 362,471.118 394,471.118"
stroke="black" stroke-width="1" fill="purple" />
<polygon points="410,443.405 394,471.118 426,471.118"
stroke="black" stroke-width="1" fill="purple" />
<polygon points="442,443.405 426,471.118 458,471.118"
stroke="black" stroke-width="1" fill="purple" />
<polygon points="474,443.405 458,471.118 490,471.118"
stroke="black" stroke-width="1" fill="purple" />
<polygon points="506,443.405 490,471.118 522,471.118"
stroke="black" stroke-width="1" fill="purple" />
<polygon points="538,443.405 522,471.118 554,471.118"
stroke="black" stroke-width="1" fill="purple" />
<polygon points="282,55.4256 266,27.7128 298,27.7128"
stroke="black" stroke-width="1" fill="purple" />
<polygon points="266,83.1384 250,55.4256 282,55.4256"
stroke="black" stroke-width="1" fill="purple" />
<polygon points="298,83.1384 282,55.4256 314,55.4256"
stroke="black" stroke-width="1" fill="purple" />
<polygon points="250,110.851 234,83.1384 266,83.1384"
stroke="black" stroke-width="1" fill="purple" />
<polygon points="282,110.851 266,83.1384 298,83.1384"
stroke="black" stroke-width="1" fill="purple" />
<polygon points="314,110.851 298,83.1384 330,83.1384"
stroke="black" stroke-width="1" fill="purple" />
<polygon points="234,138.564 218,110.851 250,110.851"
stroke="black" stroke-width="1" fill="purple" />
<polygon points="266,138.564 250,110.851 282,110.851"
stroke="black" stroke-width="1" fill="purple" />
<polygon points="298,138.564 282,110.851 314,110.851"
stroke="black" stroke-width="1" fill="purple" />
<polygon points="330,138.564 314,110.851 346,110.851"
stroke="black" stroke-width="1" fill="purple" />
<polygon points="218,166.277 202,138.564 234,138.564"
stroke="black" stroke-width="1" fill="purple" />
<polygon points="250,166.277 234,138.564 266,138.564"
stroke="black" stroke-width="1" fill="purple" />
<polygon points="282,166.277 266,138.564 298,138.564"
stroke="black" stroke-width="1" fill="purple" />
<polygon points="314,166.277 298,138.564 330,138.564"
stroke="black" stroke-width="1" fill="purple" />
<polygon points="346,166.277 330,138.564 362,138.564"
stroke="black" stroke-width="1" fill="purple" />
<polygon points="202,193.99 186,166.277 218,166.277"
stroke="black" stroke-width="1" fill="purple" />
<polygon points="234,193.99 218,166.277 250,166.277"
stroke="black" stroke-width="1" fill="purple" />
<polygon points="266,193.99 250,166.277 282,166.277"
stroke="black" stroke-width="1" fill="purple" />
<polygon points="298,193.99 282,166.277 314,166.277"
stroke="black" stroke-width="1" fill="purple" />
<polygon points="330,193.99 314,166.277 346,166.277"
stroke="black" stroke-width="1" fill="purple" />
<polygon points="362,193.99 346,166.277 378,166.277"
stroke="black" stroke-width="1" fill="purple" />
<polygon points="186,221.703 170,193.99 202,193.99"
stroke="black" stroke-width="1" fill="purple" />
<polygon points="218,221.703 202,193.99 234,193.99"
stroke="black" stroke-width="1" fill="purple" />
<polygon points="250,221.703 234,193.99 266,193.99"
stroke="black" stroke-width="1" fill="purple" />
<polygon points="282,221.703 266,193.99 298,193.99"
stroke="black" stroke-width="1" fill="purple" />
<polygon points="314,221.703 298,193.99 330,193.99"
stroke="black" stroke-width="1" fill="purple" />
<polygon points="346,221.703 330,193.99 362,193.99"
stroke="black" stroke-width="1" fill="purple" />
<polygon points="378,221.703 362,193.99 394,193.99"
stroke="black" stroke-width="1" fill="purple" />
<polygon points="170,249.415 154,221.703 186,221.703"
stroke="black" stroke-width="1" fill="purple" />
<polygon points="202,249.415 186,221.703 218,221.703"
stroke="black" stroke-width="1" fill="purple" />
<polygon points="234,249.415 218,221.703 250,221.703"
stroke="black" stroke-width="1" fill="purple" />
<polygon points="266,249.415 250,221.703 282,221.703"
stroke="black" stroke-width="1" fill="purple" />
<polygon points="298,249.415 282,221.703 314,221.703"
stroke="black" stroke-width="1" fill="purple" />
<polygon points="330,249.415 314,221.703 346,221.703"
stroke="black" stroke-width="1" fill="purple" />
<polygon points="362,249.415 346,221.703 378,221.703"
stroke="black" stroke-width="1" fill="purple" />
<polygon points="394,249.415 378,221.703 410,221.703"
stroke="black" stroke-width="1" fill="purple" />
<polygon points="154,277.128 138,249.415 170,249.415"
stroke="black" stroke-width="1" fill="purple" />
<polygon points="186,277.128 170,249.415 202,249.415"
stroke="black" stroke-width="1" fill="purple" />
<polygon points="218,277.128 202,249.415 234,249.415"
stroke="black" stroke-width="1" fill="purple" />
<polygon points="250,277.128 234,249.415 266,249.415"
stroke="black" stroke-width="1" fill="purple" />
<polygon points="282,277.128 266,249.415 298,249.415"
stroke="black" stroke-width="1" fill="purple" />
<polygon points="314,277.128 298,249.415 330,249.415"
stroke="black" stroke-width="1" fill="purple" />
<polygon points="346,277.128 330,249.415 362,249.415"
stroke="black" stroke-width="1" fill="purple" />
<polygon points="378,277.128 362,249.415 394,249.415"
stroke="black" stroke-width="1" fill="purple" />
<polygon points="410,277.128 394,249.415 426,249.415"
stroke="black" stroke-width="1" fill="purple" />
<polygon points="138,304.841 122,277.128 154,277.128"
stroke="black" stroke-width="1" fill="purple" />
<polygon points="170,304.841 154,277.128 186,277.128"
stroke="black" stroke-width="1" fill="purple" />
<polygon points="202,304.841 186,277.128 218,277.128"
stroke="black" stroke-width="1" fill="purple" />
<polygon points="234,304.841 218,277.128 250,277.128"
stroke="black" stroke-width="1" fill="purple" />
<polygon points="266,304.841 250,277.128 282,277.128"
stroke="black" stroke-width="1" fill="purple" />
<polygon points="298,304.841 282,277.128 314,277.128"
stroke="black" stroke-width="1" fill="purple" />
<polygon points="330,304.841 314,277.128 346,277.128"
stroke="black" stroke-width="1" fill="purple" />
<polygon points="362,304.841 346,277.128 378,277.128"
stroke="black" stroke-width="1" fill="purple" />
<polygon points="394,304.841 378,277.128 410,277.128"
stroke="black" stroke-width="1" fill="purple" />
<polygon points="426,304.841 410,277.128 442,277.128"
stroke="black" stroke-width="1" fill="purple" />
<polygon points="122,332.554 106,304.841 138,304.841"
stroke="black" stroke-width="1" fill="purple" />
<polygon points="154,332.554 138,304.841 170,304.841"
stroke="black" stroke-width="1" fill="purple" />
<polygon points="186,332.554 170,304.841 202,304.841"
stroke="black" stroke-width="1" fill="purple" />
<polygon points="218,332.554 202,304.841 234,304.841"
stroke="black" stroke-width="1" fill="purple" />
<polygon points="250,332.554 234,304.841 266,304.841"
stroke="black" stroke-width="1" fill="purple" />
<polygon points="282,332.554 266,304.841 298,304.841"
stroke="black" stroke-width="1" fill="purple" />
<polygon points="314,332.554 298,304.841 330,304.841"
stroke="black" stroke-width="1" fill="purple" />
<polygon points="346,332.554 330,304.841 362,304.841"
stroke="black" stroke-width="1" fill="purple" />
<polygon points="378,332.554 362,304.841 394,304.841"
stroke="black" stroke-width="1" fill="purple" />
<polygon points="410,332.554 394,304.841 426,304.841"
stroke="black" stroke-width="1" fill="purple" />
<polygon points="442,332.554 426,304.841 458,304.841"
stroke="black" stroke-width="1" fill="purple" />
<polygon points="106,360.267 90,332.554 122,332.554"
stroke="black" stroke-width="1" fill="purple" />
<polygon points="138,360.267 122,332.554 154,332.554"
stroke="black" stroke-width="1" fill="purple" />
<polygon points="170,360.267 154,332.554 186,332.554"
stroke="black" stroke-width="1" fill="purple" />
<polygon points="202,360.267 186,332.554 218,332.554"
stroke="black" stroke-width="1" fill="purple" />
<polygon points="234,360.267 218,332.554 250,332.554"
stroke="black" stroke-width="1" fill="purple" />
<polygon points="266,360.267 250,332.554 282,332.554"
stroke="black" stroke-width="1" fill="purple" />
<polygon points="298,360.267 282,332.554 314,332.554"
stroke="black" stroke-width="1" fill="purple" />
<polygon points="330,360.267 314,332.554 346,332.554"
stroke="black" stroke-width="1" fill="purple" />
<polygon points="362,360.267 346,332.554 378,332.554"
stroke="black" stroke-width="1" fill="purple" />
<polygon points="394,360.267 378,332.554 410,332.554"
stroke="black" stroke-width="1" fill="purple" />
<polygon points="426,360.267 410,332.554 442,332.554"
stroke="black" stroke-width="1" fill="purple" />
<polygon points="458,360.267 442,332.554 474,332.554"
stroke="black" stroke-width="1" fill="purple" />
<polygon points="90,387.979 74,360.267 106,360.267"
stroke="black" stroke-width="1" fill="purple" />
<polygon points="122,387.979 106,360.267 138,360.267"
stroke="black" stroke-width="1" fill="purple" />
<polygon points="154,387.979 138,360.267 170,360.267"
stroke="black" stroke-width="1" fill="purple" />
<polygon points="186,387.979 170,360.267 202,360.267"
stroke="black" stroke-width="1" fill="purple" />
<polygon points="218,387.979 202,360.267 234,360.267"
stroke="black" stroke-width="1" fill="purple" />
<polygon points="250,387.979 234,360.267 266,360.267"
stroke="black" stroke-width="1" fill="purple" />
<polygon points="282,387.979 266,360.267 298,360.267"
stroke="black" stroke-width="1" fill="purple" />
<polygon points="314,387.979 298,360.267 330,360.267"
stroke="black" stroke-width="1" fill="purple" />
<polygon points="346,387.979 330,360.267 362,360.267"
stroke="black" stroke-width="1" fill="purple" />
<polygon points="378,387.979 362,360.267 394,360.267"
stroke="black" stroke-width="1" fill="purple" />
<polygon points="410,387.979 394,360.267 426,360.267"
stroke="black" stroke-width="1" fill="purple" />
<polygon points="442,387.979 426,360.267 458,360.267"
stroke="black" stroke-width="1" fill="purple" />
<polygon points="474,387.979 458,360.267 490,360.267"
stroke="black" stroke-width="1" fill="purple" />
<polygon points="74,415.692 58,387.979 90,387.979"
stroke="black" stroke-width="1" fill="purple" />
<polygon points="106,415.692 90,387.979 122,387.979"
stroke="black" stroke-width="1" fill="purple" />
<polygon points="138,415.692 122,387.979 154,387.979"
stroke="black" stroke-width="1" fill="purple" />
<polygon points="170,415.692 154,387.979 186,387.979"
stroke="black" stroke-width="1" fill="purple" />
<polygon points="202,415.692 186,387.979 218,387.979"
stroke="black" stroke-width="1" fill="purple" />
<polygon points="234,415.692 218,387.979 250,387.979"
stroke="black" stroke-width="1" fill="purple" />
<polygon points="266,415.692 250,387.979 282,387.979"
stroke="black" stroke-width="1" fill="purple" />
<polygon points="298,415.692 282,387.979 314,387.979"
stroke="black" stroke-width="1" fill="purple" />
<polygon points="330,415.692 314,387.979 346,387.979"
stroke="black" stroke-width="1" fill="purple" />
<polygon points="362,415.692 346,387.979 378,387.979"
stroke="black" stroke-width="1" fill="purple" />
<polygon points="394,415.692 378,387.979 410,387.979"
stroke="black" stroke-width="1" fill="purple" />
<polygon points="426,415.692 410,387.979 442,387.979"
stroke="black" stroke-width="1" fill="purple" />
<polygon points="458,415.692 442,387.979 474,387.979"
stroke="black" stroke-width="1" fill="purple" />
<polygon points="490,415.692 474,387.979 506,387.979"
stroke="black" stroke-width="1" fill="purple" />
<polygon points="58,443.405 42,415.692 74,415.692"
stroke="black" stroke-width="1" fill="purple" />
<polygon points="90,443.405 74,415.692 106,415.692"
stroke="black" stroke-width="1" fill="purple" />
<polygon points="122,443.405 106,415.692 138,415.692"
stroke="black" stroke-width="1" fill="purple" />
<polygon points="154,443.405 138,415.692 170,415.692"
stroke="black" stroke-width="1" fill="purple" />
<polygon points="186,443.405 170,415.692 202,415.692"
stroke="black" stroke-width="1" fill="purple" />
<polygon points="218,443.405 202,415.692 234,415.692"
stroke="black" stroke-width="1" fill="purple" />
<polygon points="250,443.405 234,415.692 266,415.692"
stroke="black" stroke-width="1" fill="purple" />
<polygon points="282,443.405 266,415.692 298,415.692"
stroke="black" stroke-width="1" fill="purple" />
<polygon points="314,443.405 298,415.692 330,415.692"
stroke="black" stroke-width="1" fill="purple" />
<polygon points="346,443.405 330,415.692 362,415.692"
stroke="black" stroke-width="1" fill="purple" />
<polygon points="378,443.405 362,415.692 394,415.692"
stroke="black" stroke-width="1" fill="purple" />
<polygon points="410,443.405 394,415.692 426,415.692"
stroke="black" stroke-width="1" fill="purple" />
<polygon points="442,443.405 426,415.692 458,415.692"
stroke="black" stroke-width="1" fill="purple" />
<polygon points="474,443.405 458,415.692 490,415.692"
stroke="black" stroke-width="1" fill="purple" />
<polygon points="506,443.405 490,415.692 522,415.692"
stroke="black" stroke-width="1" fill="purple" />
<polygon points="42,471.118 26,443.405 58,443.405"
stroke="black" stroke-width="1" fill="purple" />
<polygon points="74,471.118 58,443.405 90,443.405"
stroke="black" stroke-width="1" fill="purple" />
<polygon points="106,471.118 90,443.405 122,443.405"
stroke="black" stroke-width="1" fill="purple" />
<polygon points="138,471.118 122,443.405 154,443.405"
stroke="black" stroke-width="1" fill="purple" />
<polygon points="170,471.118 154,443.405 186,443.405"
stroke="black" stroke-width="1" fill="purple" />
<polygon points="202,471.118 186,443.405 218,443.405"
stroke="black" stroke-width="1" fill="purple" />
<polygon points="234,471.118 218,443.405 250,443.405"
stroke="black" stroke-width="1" fill="purple" />
<polygon points="266,471.118 250,443.405 282,443.405"
stroke="black" stroke-width="1" fill="purple" />
<polygon points="298,471.118 282,443.405 314,443.405"
stroke="black" stroke-width="1" fill="purple" />
<polygon points="330,471.118 314,443.405 346,443.405"
stroke="black" stroke-width="1" fill="purple" />
<polygon points="362,471.118 346,443.405 378,443.405"
stroke="black" stroke-width="1" fill="purple" />
<polygon points="394,471.118 378,443.405 410,443.405"
stroke="black" stroke-width="1" fill="purple" />
<polygon points="426,471.118 410,443.405 442,443.405"
stroke="black" stroke-width="1" fill="purple" />
<polygon points="458,471.118 442,443.405 474,443.405"
stroke="black" stroke-width="1" fill="purple" />
<polygon points="490,471.118 474,443.405 506,443.405"
stroke="black" stroke-width="1" fill="purple" />
<polygon points="522,471.118 506,443.405 538,443.405"
stroke="black" stroke-width="1" fill="purple" />
</svg>
