<svg version="1.1" 
baseProfile="full"
width="1000" height="1000"
xmlns="http://www.w3.org/2000/svg">
<polygon points="0,0 100,0 100,100 0,100 "
stroke="black" stroke-width="1" fill="purple" />
<polygon points="400,200 399.605,212.558 398.423,225.067 396.457,237.476 393.717,249.738 390.211,261.803 385.955,273.625 380.965,285.156 375.261,296.351 368.866,307.165 361.803,317.557 354.103,327.485 345.794,336.909 336.909,345.794 327.485,354.103 317.557,361.803 307.165,368.866 296.351,375.261 285.156,380.965 273.625,385.955 261.803,390.211 249.738,393.717 237.476,396.457 225.067,398.423 212.558,399.605 200,400 187.442,399.605 174.933,398.423 162.524,396.457 150.262,393.717 138.197,390.211 126.375,385.955 114.844,380.965 103.649,375.261 92.8346,368.866 82.4429,361.803 72.5152,354.103 63.0906,345.794 54.2063,336.909 45.8974,327.485 38.1966,317.557 31.1344,307.165 24.7387,296.351 19.0346,285.156 14.0447,273.625 9.7887,261.803 6.28337,249.738 3.54255,237.476 1.57706,225.067 0.394654,212.558 0,200 0.394654,187.442 1.57706,174.933 3.54255,162.524 6.28337,150.262 9.7887,138.197 14.0447,126.375 19.0346,114.844 24.7387,103.649 31.1344,92.8346 38.1966,82.4429 45.8974,72.5152 54.2063,63.0906 63.0906,54.2063 72.5152,45.8974 82.4429,38.1966 92.8346,31.1344 103.649,24.7387 114.844,19.0346 126.375,14.0447 138.197,9.7887 150.262,6.28337 162.524,3.54255 174.933,1.57706 187.442,0.394654 200,0 212.558,0.394654 225.067,1.57706 237.476,3.54255 249.738,6.28337 261.803,9.7887 273.625,14.0447 285.156,19.0346 296.351,24.7387 307.165,31.1344 317.557,38.1966 327.485,45.8974 336.909,54.2063 345.794,63.0906 354.103,72.5152 361.803,82.4429 368.866,92.8346 375.261,103.649 380.965,114.844 385.955,126.375 390.211,138.197 393.717,150.262 396.457,162.524 398.423,174.933 399.605,187.442 "
stroke="black" stroke-width="1" fill="purple" />
<polygon points="10,0 0,17.3205 20,17.3205 "
stroke="black" stroke-width="1" fill="purple" />
</svg>
